<?xml version="1.0" encoding="utf-8"?>
<!-- Generator: Adobe Illustrator 24.3.0, SVG Export Plug-In . SVG Version: 6.00 Build 0)  -->
<svg version="1.1" id="图层_1" xmlns="http://www.w3.org/2000/svg" xmlns:xlink="http://www.w3.org/1999/xlink" x="0px" y="0px"
	 viewBox="0 0 560 288" style="enable-background:new 0 0 560 288;" xml:space="preserve">
<style type="text/css">
	.st0{fill:#F7FAF9;}
	.st1{fill:#F2E9EA;}
	.st2{fill:#E9F8F9;}
	.st3{fill:#75CECD;}
	.st4{fill:#EBF7F9;}
	.st5{fill:#96ECEA;}
	.st6{fill:#88E5E3;}
	.st7{fill:#8CF7FA;}
	.st8{fill:#D1FAFA;}
	.st9{fill:#61D8E7;}
	.st10{fill:#53D2DD;}
	.st11{fill:#B6EBF5;}
	.st12{fill:#C6FAF7;}
	.st13{fill:#D0F2FA;}
	.st14{fill:#7BEDF4;}
	.st15{fill:#75B3B5;}
	.st16{fill:#BFF4F2;}
	.st17{fill:#88DBD5;}
	.st18{fill:#5DC7D1;}
	.st19{fill:#E3EAE0;}
	.st20{fill:#70D3D6;}
	.st21{fill:#D4FBFC;}
	.st22{fill:#EDEFE1;}
	.st23{fill:#C9ECF9;}
	.st24{fill:#95CFD7;}
	.st25{fill:#BED9DA;}
	.st26{fill:#C4F6F6;}
	.st27{fill:#A3CEC5;}
	.st28{fill:#98C4C3;}
	.st29{fill:#A4CBC0;}
	.st30{fill:#9AD9D7;}
	.st31{fill:#F2F1E6;}
	.st32{fill:#F8F7F0;}
	.st33{fill:#F2F7F0;}
	.st34{fill:#C3F7F8;}
	.st35{fill:#E5F8F9;}
	.st36{fill:#E3F8FA;}
	.st37{fill:#B4F4F4;}
	.st38{fill:#F4F7F4;}
	.st39{fill:#C4F8FB;}
	.st40{fill:#A7FBF8;}
	.st41{fill:#CBF8F6;}
	.st42{fill:#5290E6;}
	.st43{fill:#84E4E4;}
	.st44{fill:#51C6D3;}
	.st45{fill:#77D4D2;}
	.st46{fill:#5190D9;}
	.st47{fill:#8DF2F7;}
	.st48{fill:#67DDED;}
	.st49{fill:#91E4D9;}
	.st50{fill:#59D5E4;}
	.st51{fill:#55C6D5;}
	.st52{fill:#54CEDE;}
	.st53{fill:#8FE9EA;}
	.st54{fill:#61D9E3;}
	.st55{fill:#DAF7FB;}
	.st56{fill:#BEF9F8;}
	.st57{fill:#A3F3F1;}
	.st58{fill:#73E6EC;}
	.st59{fill:#BFF5F7;}
	.st60{fill:#C7F5F7;}
	.st61{fill:#58CCDF;}
	.st62{fill:#F8C6C8;}
	.st63{fill:#9EF4F9;}
	.st64{fill:#EAD5CE;}
	.st65{fill:#A2F2F1;}
	.st66{fill:#87F6F7;}
	.st67{fill:#AFFCFB;}
	.st68{fill:#A6FCF8;}
	.st69{fill:#C2F8F8;}
	.st70{fill:#E6F5E5;}
	.st71{fill:#A6F9F5;}
	.st72{fill:#8FECEE;}
	.st73{fill:#EAF3E8;}
	.st74{fill:#AFF6E9;}
	.st75{fill:#FCF1EE;}
	.st76{fill:#5797EE;}
	.st77{fill:#57CFDF;}
	.st78{fill:#91EBE7;}
	.st79{fill:#E9BEC1;}
	.st80{fill:#79D9DB;}
	.st81{fill:#65A7F8;}
	.st82{fill:#6FE8F0;}
	.st83{fill:#5DA0F6;}
	.st84{fill:#98F7EC;}
	.st85{fill:#F4B0B4;}
	.st86{fill:#F3BABA;}
	.st87{fill:#6FDFEC;}
	.st88{fill:#6AD2DD;}
	.st89{fill:#67DAE8;}
	.st90{fill:#D3ECF0;}
	.st91{fill:#68DEEB;}
	.st92{fill:#63D3E4;}
	.st93{fill:#61CEDC;}
	.st94{fill:#80E3E8;}
</style>
<g>
	<path class="st0" d="M258.9,139.1c2.4-4.3,4.7-8.6,7.4-12.7c0.8-1.2,3-1.5,4.5-2.2c0,0,0,0,0,0c-1.3,3.3,1.2,2.8,3,3
		c-1,3.3-2,6.6-3,9.9c-1.3,0.7-2.7,1.4-4,2c-1.3,0-2.6,0-3.9,0C261.6,139.1,260.2,139.1,258.9,139.1z"/>
	<path class="st1" d="M326.3,135.2c2,6.3,4,12.5,6,18.8c-0.4,0.7-0.7,1.4-1.1,2.1c-1-1-1.9-2-2.9-3c-1.3-3-2.7-5.9-4-8.9
		c0-1.7,0-3.3,0-5C325,137.8,325.7,136.5,326.3,135.2z"/>
	<path class="st2" d="M282.7,115.3c2.4-0.7,4.7-1.6,7.2-2c1.9-0.3,3.8,0,5.8,0c-0.3,0-0.7,0-1,0c-1,0.7-2,1.3-2.9,2
		c-1.4,0.7-2.8,1.2-4.1,2.1c-1.7,1.2-3.3,2.6-4.9,4c-0.6,0-1.3,0-1.9,0c-1.7,0-3.3,0-5,0l0,0C278.1,119.3,280.4,117.3,282.7,115.3z"
		/>
	<path class="st3" d="M301.5,156.9c-1,0.7-2,1.4-2.9,2.1c-0.9-0.2-1.8-0.5-2.7-0.7c0,0-0.2-0.2-0.2-0.2c0-0.3,0-0.7,0-1
		c0.7-0.5,1.5-1,2.2-1.5c-0.4-0.5-0.8-1-1.2-1.4c1.7-1.3,3.3-2.7,5-4c0.3,0,0.6,0,0.9-0.1c1-0.3,2-0.7,3-1c0.7,2,1.3,4,2,6
		c-0.7,0-1.4,0-2.1,0C304.1,155.7,302.8,156.3,301.5,156.9z"/>
	<path class="st4" d="M258.9,139.1c1.3,0,2.6,0,3.9,0c-2,5.3-3.9,10.6-5.9,15.9c-0.7-0.7-1.4-1.3-2-2
		C256.3,148.4,257.6,143.8,258.9,139.1z"/>
	<path class="st5" d="M318.4,156.9c-0.4,0-0.7,0-1.1,0c0.7-4.3-2.1-4-4.9-3.8c0-1.3,0-2.7,0-4c-0.3-0.7-0.7-1.3-1-2
		c0.3-0.7,0.7-1.3,1-2c0.3,0,0.6,0,1,0c1,0,2,0,3,0c-0.3,1.7-0.7,3.3-0.9,4.5c2.3,1.7,4.1,3.1,5.9,4.5c0,0.3-0.1,0.7-0.1,1
		C320.3,155.7,319.4,156.3,318.4,156.9z"/>
	<path class="st6" d="M280.7,157c-0.6,0.1-1.2,0.1-1.8,0.1c-1-0.7-2-1.4-3-2.1c0-0.3,0-0.7,0-1c1-1.3,2-2.6,3-3.9c0.3,0,0.7,0,1,0
		c1.3,0.4,2.6,0.7,3.9,1.1c1,0.6,2,1.3,3,1.9c-0.7,0.7-1.3,1.3-2,2C283.4,155.7,282,156.3,280.7,157z"/>
	<path class="st7" d="M263.9,156.1c-0.3,0.6-0.7,1.2-1,1.8c-1.3-0.3-2.6-0.6-3.9-0.9c0-0.6,0-1.3,0-1.9c1-1.3,2-2.7,3-4
		c1,0,1.9-0.1,2.9-0.1c1.3,0,2.7,0,4,0.1c1,0.3,2,0.6,3,1c0,0,0,0,0,0c-1,0-2,0-3,0C265.9,151.9,263.6,152.3,263.9,156.1z"/>
	<path class="st8" d="M326.3,135.2c-0.7,1.3-1.3,2.6-2,4c-0.3,0-0.7,0-1,0c-0.7,0-1.3,0-2-0.1c-0.3-2-0.7-3.9-1-5.9c1-0.3,2-0.7,3-1
		C324.4,133.2,325.3,134.2,326.3,135.2z"/>
	<path class="st9" d="M312.5,153.1c2.8-0.2,5.6-0.5,4.9,3.8c-2.2,0.4-2.1,6.3-5.9,2.4c0,0,0.2-0.4,0.2-0.4c0.8-0.4,1.6-0.9,2.4-1.3
		c-0.6-1-1.1-1.8-1.6-2.6C312.5,154.4,312.5,153.7,312.5,153.1z"/>
	<path class="st0" d="M282.7,115.3c-2.3,2-4.6,4-6.9,5.9c-1.6,1-3.3,2-4.9,3c0,0,0,0,0,0c0.6-1.4,0.9-3.5,2-4.2
		C275.9,118.1,279.4,116.8,282.7,115.3z"/>
	<path class="st10" d="M275.8,155c1,0.7,2,1.4,3,2.1c-0.7,0.6-1.4,1.1-2.1,1.7c-1.7,0.1-3.3,0.2-5,0.2c-0.7-0.7-1.4-1.3-2.2-2
		c0,0,0.4,0,0.4,0C271.9,156.4,273.9,155.7,275.8,155z"/>
	<path class="st11" d="M314.4,121.3c1.3,1.3,2.7,2.6,4,4c-0.3,0.5-0.5,1.5-0.8,1.5c-1,0-2.1-0.3-3.1-0.5c-1-0.3-2-0.6-3-0.9
		c-0.3-0.3-0.7-0.7-1-1c1-1,2-2,2.9-3C313.7,121.3,314.1,121.3,314.4,121.3z"/>
	<path class="st12" d="M304.5,115.3c1,0.6,2,1.3,3,1.9c0.3,0.7,0.6,1.4,1,2c-0.3,0-0.7,0.1-1,0.1c-1,0-1.9-0.1-2.9-0.1
		c-1.3-0.3-2.7-0.7-4-1c0.3-1,0.6-2,1-3C302.5,115.3,303.5,115.3,304.5,115.3z"/>
	<path class="st13" d="M314.5,126.2c1,0.2,2.1,0.5,3.1,0.5c0.3,0,0.5-1,0.8-1.5c1.3,1.3,2.6,2.6,4,4c-0.7,0-1.3,0-2,0
		c-1,0.7-2,1.4-3,2c-0.6-0.7-1.2-1.4-1.9-2.1C315.2,128.2,314.8,127.2,314.5,126.2z"/>
	<path class="st14" d="M263.9,156.1c-0.3-3.8,2-4.3,4.9-4c-2.4,2-0.8,3,1,4c0,0.3,0.1,0.7,0.1,1c0,0-0.4,0-0.4,0
		C267.7,156.7,265.8,156.4,263.9,156.1z"/>
	<path class="st15" d="M295.4,160.9c-3.5,0.5-6-1-7.8-3.8c2.7,0.3,5.4,0.6,8,1c0,0,0.2,0.2,0.2,0.2
		C295.7,159.1,295.5,160,295.4,160.9z"/>
	<path class="st16" d="M328.3,153c1,1,1.9,2,2.9,3c0,0.3,0,0.7,0,1c-1.3,0.6-2.6,1.3-3.8,1.9c-0.3-0.6-0.7-1.3-1-1.9
		C327,155.7,327.7,154.4,328.3,153z"/>
	<path class="st17" d="M284.7,155c0.7-0.7,1.3-1.3,2-2c1.6,0,3.3,0,4.9,0c-0.3,0.7-0.7,1.3-1,2c-1.6,0.6-3.3,1.2-4.9,1.8
		c-0.3,0-0.7,0-1-0.1C284.7,156.2,284.7,155.6,284.7,155z"/>
	<path class="st18" d="M305.5,155c0.7,0,1.4,0,2.1,0c1,0,2,0,3,0c0.4,1.3,0.7,2.6,1.1,3.9c0,0-0.2,0.4-0.2,0.4
		c-1.9-0.8-3.9-1.6-5.8-2.4C305.6,156.3,305.5,155.7,305.5,155z"/>
	<path class="st19" d="M254.9,153c0.7,0.7,1.4,1.3,2,2c0.3,0.7,0.6,1.3,1,2l0,0.1c-1.5-0.1-3-0.1-4.4-0.2
		C254,155.6,254.5,154.3,254.9,153z"/>
	<path class="st20" d="M285.8,156.9c1.6-0.6,3.3-1.2,4.9-1.8c1.7,0.7,3.3,1.3,5,2c0,0.3,0,0.7,0,1c-2.7-0.3-5.4-0.6-8-1
		C287,157,286.4,156.9,285.8,156.9z"/>
	<path class="st21" d="M304.5,115.3c-1,0-2,0-3,0c-1.3,0-2.6,0-3.9-0.1c-1-0.6-2-1.3-3-1.9c0.3,0,0.7,0,1,0
		C298.6,113.9,301.6,114.6,304.5,115.3z"/>
	<path class="st22" d="M258.9,157c1.3,0.3,2.6,0.6,3.9,0.9c-0.7,1-1.5,2-2.2,3c-0.9-1.3-1.8-2.6-2.7-3.9c0,0,0-0.1,0-0.1
		C258.3,157,258.6,157,258.9,157z"/>
	<path class="st23" d="M308.5,119.3c-0.3-0.7-0.6-1.4-1-2c2.3,1.3,4.6,2.7,6.9,4c-0.3,0-0.7,0-1,0
		C311.8,120.6,310.1,119.9,308.5,119.3z"/>
	<path class="st24" d="M318.4,156.9c0.9-0.6,1.9-1.3,2.8-1.9c1,0.4,2.1,0.8,3.1,1.2c0,0.3,0,0.5,0,0.8
		C322.4,157,320.4,157,318.4,156.9z"/>
	<path class="st25" d="M331.2,157.1c0-0.3,0-0.7,0-1c0.4-0.7,0.7-1.4,1.1-2.1c0.1,1.5,0.3,3,0.4,4.5
		C332.2,157.9,331.7,157.5,331.2,157.1z"/>
	<path class="st26" d="M320.4,129.2c0.7,0,1.3,0,2,0c0.3,1,0.7,2,1,3c-1,0.3-2,0.7-3,1c0,0,0,0,0,0
		C320.4,131.8,320.4,130.5,320.4,129.2z"/>
	<path class="st27" d="M271.7,159.1c1.7-0.1,3.3-0.1,5-0.2C275.2,161.7,273.6,162.5,271.7,159.1z"/>
	<path class="st28" d="M284.7,155c0,0.6,0,1.2,0,1.8c-1.3,0.1-2.7,0.1-4,0.2C282,156.3,283.4,155.7,284.7,155z"/>
	<path class="st29" d="M305.5,155c0.1,0.6,0.1,1.2,0.2,1.9c-1.4,0-2.7,0-4.1,0C302.8,156.3,304.1,155.7,305.5,155z"/>
	<path class="st30" d="M324.3,157c0-0.3,0-0.5,0-0.8c0.7,0.3,1.3,0.6,2,0.9c0.3,0.6,0.7,1.3,1,1.9c0,0,0.1,0.1,0.1,0.1
		c-0.7,0-1.4,0-2.1-0.1C325,158.4,324.7,157.7,324.3,157z"/>
	<path class="st31" d="M295.4,160.9c0.1-0.9,0.3-1.8,0.4-2.7c0.9,0.2,1.8,0.5,2.7,0.7C297.5,159.6,296.5,160.3,295.4,160.9z"/>
	<path class="st32" d="M325.3,159c0.7,0,1.4,0,2.1,0.1c-0.4,0.6-0.9,1.3-1.3,1.9C325.8,160.3,325.6,159.7,325.3,159z"/>
	<path class="st33" d="M270.8,137.2c1-3.3,2-6.6,3-9.9c0.7-0.6,1.3-1.3,2-1.9c0.3,0.3,0.7,0.6,1,0.9c0.6,2.3,1.1,4.7,1.7,7
		c-1.1,0.4-3.3,0.9-3.3,1.3C275.3,138.3,272.5,136.8,270.8,137.2C270.8,137.2,270.8,137.2,270.8,137.2z"/>
	<path class="st34" d="M258.9,157c-0.3,0-0.7,0-1-0.1c-0.3-0.7-0.6-1.3-1-2c2-5.3,3.9-10.6,5.9-15.9c1.3,0,2.6,0,3.9,0
		c0,0.7,0,1.3,0,2c-1.2,0.3-2.4,0.5-3.6,0.8c0.5,1,1.1,2.1,1.6,3.1c-4,0.1-3.6,3.8-5,6c-0.3,1.4-0.6,2.7-1,4.1
		C259,155.8,259,156.4,258.9,157z"/>
	<path class="st35" d="M275.8,125.3c-0.7,0.6-1.3,1.3-2,1.9c-1.8-0.2-4.3,0.4-3-3c1.6-1,3.3-2,4.9-3c0,0,0,0,0,0
		C275.8,122.6,275.8,123.9,275.8,125.3z"/>
	<path class="st33" d="M266.8,141.2c0-0.7,0-1.3,0-2c1.3-0.7,2.7-1.4,4-2c0,0,0,0,0,0c0.3,1,0.7,2,1,3.1c0,0.3-0.1,0.6-0.2,0.8
		C270,141.1,268.4,141.1,266.8,141.2z"/>
	<path class="st36" d="M326.3,157.1c-0.7-0.3-1.3-0.6-2-0.9c-1-0.4-2.1-0.8-3.1-1.2c0-0.3,0.1-0.7,0.1-1c0-1,0.3-2.2-0.1-3.1
		c-1.8-3.6-1.4-6.2,3.1-6.9c1.3,3,2.7,5.9,4,8.9C327.7,154.4,327,155.7,326.3,157.1z"/>
	<path class="st37" d="M324.3,144.1c-4.5,0.7-4.9,3.3-3.1,6.9c0.4,0.8,0.1,2,0.1,3.1c-1.8-1.4-3.6-2.7-5.9-4.5
		c0.2-1.1,0.6-2.8,0.9-4.5c1.6-0.9,3.1-2.4,4.9-2.7c2.3-0.4,2.3-1.6,2.1-3.2c0.3,0,0.7,0,1,0C324.4,140.8,324.3,142.4,324.3,144.1z"
		/>
	<path class="st38" d="M282.7,121.3c1.6-1.3,3.2-2.8,4.9-4c1.2-0.9,2.7-1.4,4.1-2.1c1.6,0.7,3.3,1.3,4.9,2c0.3,0.3,0.7,0.7,1,1
		c-0.3,1-0.7,2-1,3c-0.9-0.7-1.9-1.4-3-2.2c-1.1,2.4-2.1,4.3-3,6.2c0,0.6-0.1,1.3-0.1,1.9c-0.6,0-1.2,0-1.9,0c0-0.6,0-1.3,0-1.9
		c-0.6-0.6-1.1-1.2-1.7-1.9c-0.4,0.6-0.9,1.2-1.3,1.7c-0.7-0.6-1.3-1.3-2-1.9C283.4,122.6,283,122,282.7,121.3z"/>
	<path class="st39" d="M275.8,125.3c0-1.3,0-2.7,0-4c1.7,0,3.3,0,5,0c-1,1.3-2,2.6-3,4c-0.3,0.3-0.6,0.7-1,1
		C276.5,125.9,276.1,125.6,275.8,125.3z"/>
	<path class="st40" d="M277.8,125.2c1-1.3,2-2.6,3-4c0.6,0,1.3,0,1.9,0c0.3,0.7,0.7,1.3,1,2C281.7,123.9,279.7,124.6,277.8,125.2z"
		/>
	<path class="st41" d="M296.6,117.3c-1.6-0.7-3.3-1.3-4.9-2c1-0.7,2-1.3,2.9-2c1,0.6,2,1.3,3,1.9
		C297.3,115.9,296.9,116.6,296.6,117.3z"/>
	<path class="st42" d="M301.6,150.1c-1.7,1.3-3.3,2.7-5,4c-1-0.4-2-0.7-3-1.1c-0.3-0.6-0.7-1.3-1-1.9c1-0.5,2.6-0.8,2.9-1.6
		c2-6.7,3.4-7.5,9-4.4c-0.3,0.7-0.6,1.3-0.9,2c-1.1-0.5-2.2-1-3.4-1.5c-0.3,0.2-0.6,0.4-0.9,0.6
		C300.1,147.5,300.8,148.8,301.6,150.1z"/>
	<path class="st43" d="M310.5,155.1c-1,0-2,0-3,0c-0.7-2-1.3-4-2-6c1.3-1,2.6-2,4-3c0.7-0.3,1.3-0.7,2-1c0.3,0,0.7,0,1,0
		c-0.3,0.7-0.7,1.3-1,2c-0.5,0.4-1,0.8-1.5,1.2c0.8,0.2,1.6,0.5,2.5,0.7c0,1.3,0,2.7,0,4c0,0.6,0,1.3,0,1.9
		C311.8,155,311.1,155,310.5,155.1z"/>
	<path class="st44" d="M309.5,146.1c-1.3,1-2.6,2-4,3c-1,0.3-2,0.7-3,1c0.3-1,0.7-2,1-2.9c0.3-0.7,0.6-1.3,0.9-2c0.3-1,0.7-2,1-3
		C306.8,143.4,308.2,144.8,309.5,146.1z"/>
	<path class="st45" d="M293.7,153c1,0.4,2,0.7,3,1.1c0.4,0.5,0.8,0.9,1.2,1.4c-0.7,0.5-1.5,1-2.2,1.5c-1.7-0.7-3.3-1.3-5-2
		c0.3-0.7,0.7-1.3,1-2C292.3,153.1,293,153,293.7,153z"/>
	<path class="st46" d="M303.6,147.1c-0.3,1-0.7,2-1,2.9c-0.3,0-0.6,0.1-0.9,0.1c-0.8-1.3-1.6-2.6-2.3-3.9c0.3-0.2,0.6-0.4,0.9-0.6
		C301.3,146.1,302.5,146.6,303.6,147.1z"/>
	<path class="st47" d="M323.3,139.2c0.2,1.6,0.2,2.8-2.1,3.2c-1.7,0.3-3.2,1.7-4.9,2.7c-1,0-2,0-3,0c0.7-1.3,1.3-2.6,2-4
		c-1-0.3-2-0.7-2.9-1c0-0.3,0-0.6,0-0.9c1,0,1.9-0.1,2.9-0.1c2,0,4,0,6,0C322,139.1,322.7,139.2,323.3,139.2z"/>
	<path class="st48" d="M315.4,141.1c-0.7,1.3-1.3,2.6-2,4c-0.3,0-0.6,0-1,0c-0.3,0-0.7,0-1,0c0-1.3,0-2.6,0-3.9
		C312.8,141.1,314.1,141.1,315.4,141.1z"/>
	<path class="st49" d="M312.5,149.1c-0.8-0.2-1.6-0.5-2.5-0.7c0.5-0.4,1-0.8,1.5-1.2C311.8,147.8,312.1,148.4,312.5,149.1z"/>
	<path class="st50" d="M279.8,150c-0.3,0-0.7,0-1,0c-1.7-1-3.3-2-5-3c0.7-2,1.3-4,2-5.9c3.6,0,7.3,0,10.9,0c0,0.3,0,0.7,0,1
		C282.5,143.1,279.2,144.9,279.8,150z"/>
	<path class="st51" d="M293.7,153c-0.7,0-1.4,0.1-2,0.1c-1.6,0-3.3,0-4.9,0c-1-0.6-2-1.3-3-1.9c0.3-1.8,0.5-3.7,0.7-4.9
		c1-0.5,1.7-0.8,2.3-1.2c0.3,0,0.7,0,1,0c1,1.3,2,2.7,3,4c0.7,0.7,1.3,1.3,2,2C293,151.7,293.3,152.3,293.7,153z"/>
	<path class="st52" d="M286.7,145.1c-0.7,0.3-1.3,0.7-2.3,1.2c-0.2,1.2-0.4,3-0.7,4.9c-1.3-0.4-2.6-0.7-3.9-1.1
		c-0.6-5.2,2.7-7,6.9-7.9C286.7,143.1,286.7,144.1,286.7,145.1z"/>
	<path class="st53" d="M273.8,147.1c1.7,1,3.3,2,5,3c-1,1.3-2,2.6-3,3.9c-1.3-0.3-2.6-0.7-3.9-1c0-0.3,0-0.6,0-1c0,0,0,0,0,0
		c0.3-1.6,0.7-3.3,1-4.9C273.1,147.1,273.5,147.1,273.8,147.1z"/>
	<path class="st54" d="M271.8,153c1.3,0.3,2.6,0.7,3.9,1c0,0.3,0,0.7,0,1c-2,0.7-3.9,1.4-5.9,2c0-0.3-0.1-0.7-0.1-1
		C270.5,155,271.2,154,271.8,153z"/>
	<path class="st55" d="M259.9,151c1.4-2.2,1-5.9,5-6c0.3,0,0.6,0,1,0c-0.3,2-0.7,3.9-1,5.9c-1,0-1.9,0.1-2.9,0.1
		C261.3,151.1,260.6,151.1,259.9,151z"/>
	<path class="st56" d="M264.8,151c0.3-2,0.7-3.9,1-5.9c1,0,2,0,3,0c0,2,0,3.9,0,5.9C267.5,151,266.2,151,264.8,151z"/>
	<path class="st57" d="M268.8,151c0-2,0-3.9,0-5.9c0,0,0.1-0.1,0.1-0.1c1.3,0.7,2.6,1.4,3.9,2.1c-0.3,1.6-0.7,3.3-1,4.9
		C270.8,151.7,269.8,151.4,268.8,151z"/>
	<path class="st58" d="M271.8,153c-0.7,1-1.4,2-2,3c-1.7-1-3.4-2-1-4c1,0,2,0,3,0C271.8,152.4,271.8,152.7,271.8,153z"/>
	<path class="st59" d="M259.9,151c0.7,0,1.3,0,2,0.1c-1,1.3-2,2.7-3,4C259.3,153.8,259.6,152.4,259.9,151z"/>
	<path class="st60" d="M321.4,139.1c-2,0-4,0-6,0c0.3-0.7,0.6-1.3,1-2c0.4-1.3,0.8-2.7,1.2-4c0.6,0,1.2,0,1.9,0c0.3,0,0.7,0,1,0
		c0,0,0,0,0,0C320.7,135.2,321.1,137.1,321.4,139.1z"/>
	<path class="st61" d="M310.5,155.1c0.7,0,1.3,0,2,0c0.5,0.8,1,1.6,1.6,2.6c-0.8,0.5-1.6,0.9-2.4,1.3
		C311.2,157.6,310.9,156.3,310.5,155.1z"/>
	<path class="st62" d="M317.5,133.1c-0.4,1.3-0.8,2.7-1.2,4c-0.9-0.7-1.9-1.3-2.8-2l0,0c-1-1.3-2-2.6-3-4l0,0c-1-1.3-2-2.6-3-4
		c-0.3,0-0.7,0-1,0c-0.6-0.6-1.3-1.3-1.9-1.9c0-0.6,0-1.3,0.1-1.9c0.6-0.1,1.2-0.2,1.8-0.2c1.3,0.4,2.7,0.8,4,1.2
		c0.3,0.3,0.7,0.7,1,1c1.3,1.3,2.7,2.6,4,3.9c0.6,0.7,1.2,1.4,1.9,2.1c0,0,0.1-0.1,0.1-0.1C317.5,131.8,317.5,132.5,317.5,133.1z"/>
	<path class="st63" d="M310.5,124.3c-1.3-0.4-2.7-0.8-4-1.2c0.3-1.2,0.6-2.5,1-3.7c0.3,0,0.7-0.1,1-0.1c1.6,0.7,3.3,1.4,4.9,2
		C312.4,122.3,311.4,123.3,310.5,124.3z"/>
	<path class="st64" d="M315.5,129.2c-1.3-1.3-2.7-2.6-4-3.9c1,0.3,2,0.6,3,0.9C314.8,127.2,315.2,128.2,315.5,129.2z"/>
	<path class="st65" d="M304.7,123.3c0,0.6,0,1.3-0.1,1.9c-0.3,0.7-0.7,1.4-1,2c-2.6,0.3-5.3,0.6-7.9,0.9c-0.3,0-0.7,0.1-1,0.1
		c-3,0.3-6,0.6-8.9,0.9c1-0.7,2-1.3,3-2c0.6,0,1.2,0,1.9,0c1.4-0.6,2.7-1.3,4-1.9c0.3-0.7,0.7-1.3,1-2c0.3-0.7,0.7-1.3,1-2
		c0.3-1,0.7-2,1-3c1,0,2,0,3,0c1.3,0.3,2.7,0.7,4,1c-1.9,0.2-3.8,0.4-5.8,0.6c-0.1,0.4-0.1,0.8-0.2,1.1
		C300.6,121.8,302.6,122.6,304.7,123.3z"/>
	<path class="st66" d="M304.7,123.3c-2-0.8-4-1.5-6-2.3c0.1-0.4,0.1-0.8,0.2-1.1c1.9-0.2,3.8-0.4,5.8-0.6c1,0,1.9,0.1,2.9,0.1
		c-0.3,1.2-0.6,2.5-1,3.7C305.9,123.2,305.3,123.2,304.7,123.3z"/>
	<path class="st67" d="M300.6,118.3c-1,0-2,0-3,0c-0.3-0.3-0.7-0.7-1-1c0.3-0.7,0.7-1.3,1-2c1.3,0,2.6,0,3.9,0.1
		C301.2,116.3,300.9,117.3,300.6,118.3z"/>
	<path class="st68" d="M320.4,133.2c-0.3,0-0.7,0-1,0c-0.6-0.7-1.3-1.3-1.9-2c0,0-0.1,0.1-0.1,0.1c1-0.7,2-1.4,3-2
		C320.4,130.5,320.4,131.8,320.4,133.2z"/>
	<path class="st69" d="M288.7,127.2c-1,0.7-2,1.3-3,2c-3.1,0-5.8,0.6-6.9,4c0,0-0.2,0-0.2,0c-0.6-2.3-1.1-4.7-1.7-7
		c0.3-0.3,0.6-0.7,1-1c2-0.7,4-1.3,5.9-2c0.7,0.6,1.3,1.3,2,1.9c1,0,2,0.1,3,0.1C288.7,125.9,288.7,126.5,288.7,127.2z"/>
	<path class="st70" d="M271.9,140.2c-0.3-1-0.7-2-1-3.1c1.7-0.4,4.5,1.1,4.4-2.6c0-0.4,2.1-0.9,3.3-1.3c0,0,0.2,0,0.2,0
		c-0.1,0.3-0.1,0.6,0,1c-0.6,1-1.3,2-1.9,3C275.2,138.2,273.5,139.2,271.9,140.2z"/>
	<path class="st71" d="M268.8,145.1c-1,0-2,0-3,0c-0.3,0-0.6,0-1,0c-0.5-1-1.1-2.1-1.6-3.1c1.2-0.3,2.4-0.5,3.6-0.8
		c1.6,0,3.2-0.1,4.8-0.1c0,0,0.3,0.1,0.3,0.1C270.9,142.5,269.9,143.8,268.8,145.1L268.8,145.1z"/>
	<path class="st72" d="M271.9,140.2c1.6-1,3.3-2,4.9-3c1.3,0.3,2.6,0.6,4,1l0.5,0h0.5c1.7,0.3,3.3,0.7,5,1c0,0.3,0,0.7,0,1
		c0,0.3,0,0.6,0,1c-3.6,0-7.3,0-10.9,0c-1.3,0-2.6,0-3.9,0c0,0-0.3-0.1-0.3-0.1C271.8,140.8,271.9,140.5,271.9,140.2z"/>
	<path class="st73" d="M296.6,121.3c-0.3,0.7-0.7,1.3-1,2c-1,0.7-2,1.3-3,2c-0.7,0-1.3,0-2,0.1c0.9-1.9,1.8-3.8,3-6.2
		C294.8,119.9,295.7,120.6,296.6,121.3z"/>
	<path class="st74" d="M290.7,125.3c0.7,0,1.3,0,2-0.1c0.7,0,1.3,0,2,0c-1.3,0.6-2.7,1.3-4,1.9C290.6,126.5,290.6,125.9,290.7,125.3
		z"/>
	<path class="st75" d="M288.7,125.3c-1,0-2-0.1-3-0.1c0.4-0.6,0.9-1.2,1.3-1.7C287.6,124,288.1,124.6,288.7,125.3z"/>
	<path class="st76" d="M292.6,151.1c-0.7-0.7-1.3-1.3-2-2c-0.1-0.5-0.4-1.2-0.3-1.4c3.1-3.4,6.3-6.8,9.7-10.4
		c0.4,0.5,1.2,1.7,2.1,2.9c0.5-0.7,0.9-1.4,1.3-2c0.3,0.7,0.7,1.3,1,2c0.3,0.3,0.6,0.7,1,1c0,0.3,0,0.6,0.1,0.9c-0.3,1-0.7,2-1,3
		c-5.6-3.1-7-2.3-9,4.4C295.3,150.2,293.6,150.5,292.6,151.1z"/>
	<path class="st77" d="M305.5,142.1c0-0.3,0-0.6-0.1-0.9c2,0,4,0,6,0c0,1.3,0,2.6,0,3.9c-0.7,0.3-1.3,0.7-2,1
		C308.2,144.8,306.8,143.4,305.5,142.1z"/>
	<path class="st78" d="M312.5,139.2c0,0.3,0,0.6,0,0.9c-2,0-4,0-5.9,0c0-1,0-2,0-2.9c0.6-0.6,1.3-1.2,1.9-1.8c1,0.6,2,1.2,3,1.7
		C311.8,137.9,312.1,138.5,312.5,139.2z"/>
	<path class="st79" d="M312.5,139.2c-0.3-0.7-0.7-1.3-1-2c0.7-0.7,1.4-1.4,2.1-2c0.9,0.7,1.9,1.3,2.8,2c-0.3,0.7-0.6,1.3-1,2
		C314.4,139.1,313.4,139.2,312.5,139.2z"/>
	<path class="st80" d="M306.5,140.1c2,0,4,0,5.9,0c1,0.3,2,0.7,2.9,1c-1.3,0-2.6,0-3.9,0c-2,0-4,0-6,0c-0.3-0.3-0.6-0.7-1-1
		c0,0,0.1,0,0.1,0C305.3,140.1,305.9,140.1,306.5,140.1z"/>
	<path class="st81" d="M286.7,141.1c0-0.3,0-0.6,0-1c2-2.3,4-4.7,5.9-7c1.3,0,2.6,0,4,0c1,0.3,1.9,0.7,2.9,1c-3,2.4-6,4.7-8.9,7.3
		c-1.2,1-1.9,2.4-2.9,3.6c-0.3,0-0.7,0-1,0c0-1,0-2,0-3C286.7,141.8,286.7,141.5,286.7,141.1z"/>
	<path class="st82" d="M271.9,141.2c1.3,0,2.6,0,3.9,0c-0.7,2-1.3,4-2,5.9c-0.3,0-0.7,0-1,0c-1.3-0.7-2.6-1.4-3.9-2.1
		C269.9,143.8,270.9,142.5,271.9,141.2z"/>
	<path class="st83" d="M287.7,145.1c1-1.2,1.8-2.6,2.9-3.6c2.9-2.5,5.9-4.9,8.9-7.3c1.3,1.3,2.6,2.7,4,4c-0.4,0.7-0.9,1.3-1.3,2
		c-0.8-1.2-1.7-2.3-2.1-2.9c-3.3,3.6-6.5,6.9-9.7,10.4c-0.2,0.2,0.2,0.9,0.3,1.4C289.7,147.8,288.7,146.4,287.7,145.1z"/>
	<path class="st84" d="M317.5,131.2c0.6,0.7,1.3,1.3,1.9,2c-0.6,0-1.2,0-1.9,0C317.5,132.5,317.5,131.8,317.5,131.2z"/>
	<path class="st85" d="M313.5,135.2c-0.7,0.7-1.4,1.3-2.1,2c-1-0.6-2-1.2-3-1.8c-1.3-1.4-2.6-2.8-3.9-4.2c0-0.6,0-1.3,0-1.9
		c0.7-0.7,1.4-1.4,2-2.1c0.3,0,0.7,0,1,0c-0.2,1.2-0.4,2.3-0.6,3.8c1.4,0.1,2.5,0.1,3.6,0.2c0,0,0,0,0,0
		C311.5,132.5,312.5,133.8,313.5,135.2L313.5,135.2z"/>
	<path class="st86" d="M310.5,131.2c-1.1-0.1-2.2-0.1-3.6-0.2c0.2-1.4,0.4-2.6,0.6-3.8C308.5,128.6,309.5,129.9,310.5,131.2z"/>
	<path class="st86" d="M313.5,135.2c-1-1.3-2-2.6-3-4C311.5,132.5,312.5,133.8,313.5,135.2z"/>
	<path class="st86" d="M306.5,127.2c-0.7,0.7-1.4,1.4-2,2.1c-0.3-0.7-0.6-1.3-0.9-2c0.3-0.7,0.7-1.4,1-2
		C305.2,125.9,305.9,126.6,306.5,127.2z"/>
	<path class="st87" d="M278.7,134.2c0-0.3,0-0.7,0-1c1.1-3.4,3.8-4,6.9-4c3-0.3,6-0.6,8.9-0.9c-1.3,1-2.6,1.9-4,2.9
		c-1-0.2-2.1-0.7-3-0.4C284.7,131.7,281.7,133,278.7,134.2z"/>
	<path class="st88" d="M290.7,131.2c1.3-1,2.6-1.9,4-2.9c0.3,0,0.7-0.1,1-0.1c1.3,1,2.6,2,4,3c-1,0.7-2,1.3-3,2c-1.3,0-2.6,0-4,0
		c-0.7-0.3-1.3-0.7-2-1C290.7,131.9,290.7,131.5,290.7,131.2z"/>
	<path class="st89" d="M299.6,131.2c-1.3-1-2.6-2-4-3c2.6-0.3,5.3-0.6,7.9-0.9c0.3,0.7,0.6,1.3,0.9,2c0,0.6,0,1.3,0,1.9
		C302.9,131.2,301.2,131.2,299.6,131.2z"/>
	<path class="st90" d="M294.6,125.2c-0.7,0-1.3,0-2,0c1-0.7,2-1.3,3-2C295.3,123.9,294.9,124.6,294.6,125.2z"/>
	<path class="st91" d="M290.7,131.2c0,0.3,0,0.7,0,1c-4.5-0.1-7.2,3-9.9,6c-1.3-0.3-2.6-0.6-4-1c0.6-1,1.3-2,1.9-3
		c3-1.2,5.9-2.4,9-3.4C288.5,130.5,289.7,131,290.7,131.2z"/>
	<path class="st92" d="M280.7,138.2c2.7-3,5.4-6.1,9.9-6c0.7,0.3,1.3,0.7,2,1c-2,2.3-4,4.7-5.9,7c0-0.3,0-0.7,0-1
		c-1.7-0.3-3.3-0.7-5-1h-0.5L280.7,138.2z"/>
	<path class="st91" d="M281.7,138.2c1.7,0.3,3.3,0.7,5,1C285,138.8,283.4,138.5,281.7,138.2z"/>
	<path class="st93" d="M299.6,131.2c1.6,0,3.3,0.1,4.9,0.1c1.3,1.4,2.6,2.8,3.9,4.2c-0.6,0.6-1.3,1.2-1.9,1.8
		c-0.6,1-1.3,1.9-1.9,2.9c0,0-0.1,0-0.1,0c-0.3-0.7-0.7-1.3-1-2c-1.3-1.3-2.6-2.7-4-4c-1-0.3-1.9-0.7-2.9-1
		C297.6,132.5,298.6,131.8,299.6,131.2z"/>
	<path class="st94" d="M304.6,140.1c0.6-1,1.3-1.9,1.9-2.9c0,1,0,2,0,2.9C305.9,140.1,305.3,140.1,304.6,140.1z"/>
</g>
</svg>
