<?xml version="1.0" encoding="utf-8"?>
<!-- Generator: Adobe Illustrator 24.3.0, SVG Export Plug-In . SVG Version: 6.00 Build 0)  -->
<svg version="1.1" id="图层_1" xmlns="http://www.w3.org/2000/svg" xmlns:xlink="http://www.w3.org/1999/xlink" x="0px" y="0px"
	 viewBox="0 0 560 288" style="enable-background:new 0 0 560 288;" xml:space="preserve">
<style type="text/css">
	.st0{fill:#F6F7D0;}
	.st1{fill:#F5D3F4;}
	.st2{fill:#846D99;}
	.st3{fill:#ECE9B6;}
	.st4{fill:#BE94C4;}
	.st5{fill:#ACEECE;}
	.st6{fill:#A9DBF9;}
	.st7{fill:#E9EDC6;}
	.st8{fill:#DDB1D9;}
</style>
<g>
	<path class="st0" d="M243,131.1c1.3-3.5,1.8-7.5,4.9-10.1c0.8,1.1,1.6,0.7,2.5,0c2.6-1.9,3.3-0.7,3.6,2c0.5,4.5,2.1,4.9,5.7,2
		c5.4-4.4,5.9-4.4,10,1c2.3,3.1,4.8,2.5,6.9,0.3c5.4-5.7,5.4-5.7,11.3-0.9c3.4,2.8,6,2,6.9-2.4c0.9-4,3.3-3.5,6-2.5
		c0.6,0.2,1,0.9,1.5,1.3c1.1,0.9,2.1,2.6,3.8,1.5c1.5-1,0-2.4-0.1-3.6c-0.1-1.1-1.5-2.7,0.9-3c2.9,2.9,4.5,6.5,5.9,10.3
		c-1.5-0.1-3.1-0.5-4.2,0.8c-2.2,2.4-4.9,5-4.9,8.2c0,3.2,4.3,2.1,6.2,3.7c-1,1.2-2.4,2.2-2,4.1c-5.4-0.1-9.1,3.6-13.3,6.1
		c-3.3,1.9-3.6,3.2,0.1,4.8c1.1,0.4,2.2,0.8,3.2,1.2c0.5,4.7-4.1,2.6-6,4.2c-3.8,3.2-7.9,6.9-13.7,3.8c-0.6-0.3-1.6,0-2.4,0.1
		c-4.2-1.1-7,1.4-9.7,4c-0.4-1.6,0.5-4.5-2.3-4c-6.1,1.1-7.2-3.3-8.9-7.2c2.5-7,0.7-10.2-5.9-11.1c0.7-1.9-2.3-3-1.1-5
		c0.4-1.9,1-3.9,1.1-5.8C249.2,130.1,247.8,129.3,243,131.1z M276.9,159.1c6.1,0,9.3-2,9.1-5.8c-0.2-3.1-4.2-5.5-9.5-5.2
		c-4.9,0.2-9.4,1.9-13.8,3.7c-2.2,0.9-2.3,2.3-0.1,3.4C267.1,157.5,271.7,159.3,276.9,159.1z M300,138c0-2.9-1.3-4.5-4.3-5
		c-6.1-1-10.8,2.4-15.8,4.9c-1.7,0.8-2.3,2.2,0,3.7c3.5,2.2,7.3,3.2,11.2,3.4C295.9,145.1,299.9,141.7,300,138z M263.5,134
		c-3.4-0.4-6.6,0.2-9.6,2c-2,1.2-2.7,2.8-0.7,4.3c2.9,2.1,5.8,4.7,9.5,5.3c3.1,0.5,6.5,0,8.5-2.7c1.5-2,0.9-4.4-0.2-6.6
		C269.3,132.9,266.1,134.4,263.5,134z"/>
	<path class="st1" d="M307.1,116.9c-2.4,0.3-1.1,1.9-0.9,3c0.1,1.2,1.6,2.6,0.1,3.6c-1.6,1.1-2.7-0.6-3.8-1.5
		c-0.5-0.4-0.9-1.1-1.5-1.3c-2.7-1.1-5.1-1.5-6,2.5c-0.9,4.4-3.5,5.2-6.9,2.4c-6-4.9-5.9-4.8-11.3,0.9c-2.2,2.2-4.6,2.8-6.9-0.3
		c-4-5.4-4.6-5.4-10-1c-3.6,2.9-5.2,2.4-5.7-2c-0.3-2.7-1-3.9-3.6-2c-0.9,0.7-1.7,1.1-2.5,0c3.5-8.5,9.3-15.3,17-20.2
		c10.7-6.9,16.9-6.7,28.6,1.3C299.2,105.9,304.1,110.6,307.1,116.9z"/>
	<path class="st2" d="M311.5,175c-8.3,10.7-20.2,14-32.9,15.1c-12,1.1-29.2-8.6-33.7-18.4c-0.6-1.2-0.9-2.5-1-3.8
		c0.7,0.4,1.3,0.7,2,1.1c0.3,4.9,5.2,4.4,7.8,6.5c13.9,10.7,28.7,8.3,43.7,2.9c4.9-1.8,7.9-6.3,12.7-8.2
		C311.6,171.7,308.6,174.1,311.5,175z"/>
	<path class="st3" d="M308,144c-0.4-1.9,1.1-2.9,2-4.1c2.9,0.9,4.1-1.6,5.9-3c0.9,0.5,1.1,1.3,1,2.2c-0.7,1.8-1.3,3.6-2.1,5.3
		c-1.6,3.4-0.6,4.9,3.2,4.7c0.2,4,1,8.1-0.9,11.9c-2.3-3.6-3.9-3.5-6.3,0.8c-1.7,3-2.7,6.5-6.8,7c-0.6-0.6-1.3-1.1-1.7-1.7
		c-3.5-5.7-6.5-5.8-10.7-0.3c-1.1,1.4-2.4,2.8-3.8,4c-2.2,1.9-4.7,2-6.6-0.2c-1.8-2.1-4.3-3.7-5.4-6.4c0.8,0,1.8-0.4,2.5-0.1
		c5.8,3.1,9.9-0.7,13.7-3.8c1.9-1.6,6.5,0.5,6-4.2c1.8,0,3.7,0,5.5,0c3.8,0.2,6.1-1.6,7.7-5.1C312.7,147.2,309.9,145.9,308,144z"/>
	<path class="st4" d="M304,168.8c4.2-0.5,5.2-4,6.8-7c2.4-4.2,4-4.4,6.3-0.8c0.1,5.4-3.6,9.4-5.6,14c-2.8-0.9,0.1-3.3-1.3-4.8
		c-4.8,1.8-7.9,6.4-12.7,8.2c-15,5.4-29.8,7.9-43.7-2.9c-2.7-2.1-7.5-1.6-7.8-6.5c0.6-0.1,1.2-0.2,1.9-0.3c0.6,0.2,1.4,0.3,1.8,0.7
		c4.9,5.7,11.8,6.2,18.5,7.7c5.4,1.2,10.5,0.4,15.9,0.1c4.9-0.3,9.3-1.8,12.9-4.2C299.2,171.4,303.1,172.6,304,168.8z"/>
	<path class="st3" d="M247.8,168.7c-0.6,0.1-1.2,0.2-1.9,0.3c-0.7-0.4-1.3-0.7-2-1.1c0,0,0,0.1,0,0.1c-0.2-3-0.8-5.9-3.1-8.1
		c-1.9-3.6-0.4-7.3-0.8-11c0.5,0.2,1.2,0.2,1.3,0.5c2.2,6.8,7.3,8.3,13.6,7.5c1.7,3.9,2.8,8.3,8.9,7.2c2.8-0.5,1.9,2.4,2.3,4
		c-2.8,5-4.7,5.2-7.9,0.8c-0.7-0.9-1.6-1.7-2.2-2.7c-1.3-2.1-3-4.2-5.4-3.7C247.6,163.1,248,166.3,247.8,168.7z"/>
	<path class="st5" d="M255,157c-6.3,0.8-11.4-0.7-13.6-7.5c-0.1-0.3-0.9-0.4-1.3-0.5c0-0.3,0-0.6,0-0.9c0.8-0.1,1.5-0.3,1.9-1.1
		c2.3-0.4,4.7-0.8,7-1.2C255.7,146.8,257.4,150,255,157z"/>
	<path class="st6" d="M315.9,136.9c-1.8,1.4-3,3.9-5.9,3c-1.9-1.6-6.2-0.5-6.2-3.7c0-3.2,2.7-5.8,4.9-8.2c1.1-1.2,2.7-0.9,4.2-0.8
		c1.5,1.6,1.2,3.9,2.1,5.7c0.3,0.4,0.5,0.7,0.8,1.1C315.9,135,315.9,136,315.9,136.9z"/>
	<path class="st6" d="M243,131.1c4.8-1.8,6.1-1,5.9,3.9c-0.1,1.9-0.7,3.9-1.1,5.8c-5.3,1.7-5.7,1.3-6-5.7
		C242.3,133.8,242.7,132.4,243,131.1z"/>
	<path class="st7" d="M241.9,135.1c0.3,7,0.7,7.4,6,5.7c-1.2,2,1.8,3.1,1.1,5c-2.3,0.4-4.7,0.8-7,1.2c-0.1-1.3-0.7-2-2-2
		C240.3,141.6,240.6,138.3,241.9,135.1z"/>
	<path class="st8" d="M318,149.1c-3.7,0.3-4.7-1.3-3.2-4.7c0.8-1.7,1.4-3.5,2.1-5.3C318.3,142.3,318,145.7,318,149.1z"/>
	<path class="st4" d="M240.8,160c2.4,2.2,2.9,5,3.1,8.1C240.7,166.2,241.1,163,240.8,160z"/>
	<path class="st3" d="M240,145c1.3,0,1.9,0.8,2,2c-0.4,0.8-1.2,1-1.9,1.1C240.1,147.1,240.1,146,240,145z"/>
	<path class="st3" d="M315.9,134c-0.3-0.4-0.5-0.7-0.8-1.1C315.4,133.3,315.6,133.7,315.9,134z"/>
	<path class="st8" d="M247.8,168.7c0.2-2.4-0.3-5.6,2.9-6.2c2.4-0.5,4.1,1.6,5.4,3.7c0.6,1,1.5,1.8,2.2,2.7c3.2,4.4,5.1,4.3,7.9-0.8
		c2.7-2.7,5.4-5.1,9.7-4c1.1,2.7,3.6,4.2,5.4,6.4c1.9,2.2,4.4,2.1,6.6,0.2c1.4-1.2,2.6-2.5,3.8-4c4.2-5.4,7.2-5.3,10.7,0.3
		c0.4,0.7,1.1,1.2,1.7,1.7c-0.8,3.8-4.8,2.6-7.1,4.2c-3.6,2.4-8,3.9-12.9,4.2c-5.3,0.3-10.5,1.2-15.9-0.1c-6.6-1.5-13.6-2-18.5-7.7
		C249.3,169,248.4,168.9,247.8,168.7z"/>
	<path class="st6" d="M276.9,159.1c-5.2,0.3-9.7-1.6-14.2-3.8c-2.2-1.1-2.2-2.5,0.1-3.4c4.4-1.8,9-3.5,13.8-3.7
		c5.2-0.2,9.3,2.1,9.5,5.2C286.2,157,283,159.1,276.9,159.1z"/>
	<path class="st1" d="M300,138c0,3.7-4.1,7.1-8.9,6.9c-4-0.2-7.8-1.1-11.2-3.4c-2.3-1.5-1.7-2.9,0-3.7c5-2.4,9.7-5.8,15.8-4.9
		C298.7,133.5,300,135.1,300,138z"/>
	<path class="st5" d="M263.5,134c2.6,0.4,5.8-1.2,7.5,2.2c1.1,2.2,1.7,4.6,0.2,6.6c-2.1,2.7-5.4,3.2-8.5,2.7
		c-3.7-0.6-6.6-3.1-9.5-5.3c-2-1.5-1.2-3.1,0.7-4.3C256.9,134.2,260.1,133.7,263.5,134z"/>
	<path class="st5" d="M308,144c1.9,1.9,4.8,3.2,3.1,6.9c-1.5,3.5-3.8,5.3-7.7,5.1c-1.8-0.1-3.7,0-5.5,0c-1.1-0.4-2.2-0.7-3.2-1.2
		c-3.7-1.5-3.3-2.9-0.1-4.8C298.9,147.6,302.6,143.9,308,144z"/>
</g>
</svg>
