<?xml version="1.0" encoding="utf-8"?>
<!-- Generator: Adobe Illustrator 24.3.0, SVG Export Plug-In . SVG Version: 6.00 Build 0)  -->
<svg version="1.1" id="图层_1" xmlns="http://www.w3.org/2000/svg" xmlns:xlink="http://www.w3.org/1999/xlink" x="0px" y="0px"
	 viewBox="0 0 560 288" style="enable-background:new 0 0 560 288;" xml:space="preserve">
<style type="text/css">
	.st0{fill:#FDE1C7;}
	.st1{fill:#FDCCB1;}
	.st2{fill:#FBAD8A;}
	.st3{fill:#A36D5A;}
	.st4{fill:#FDB79C;}
	.st5{fill:#F8E574;}
	.st6{fill:#FDD8C0;}
	.st7{fill:#BF8279;}
	.st8{fill:#FCF1C7;}
	.st9{fill:#FDF796;}
	.st10{fill:#FDC3A5;}
	.st11{fill:#C5B248;}
	.st12{fill:#F58C6B;}
	.st13{fill:#EFDF5F;}
</style>
<g>
	<path class="st0" d="M284.7,88.1c0.3-1.2,0.8-2.6,1.8-0.7c0.8,1.5,1.8,1.7,3.1,1.6c-1.3,3.5,3.7,4.6,3,7.9
		c-1.1,1.4-2.2,2.8-3.3,4.2c-1.3,1.6-4.2,1.2-5,2.6c-1.6,3,3.1,1.4,3.2,3.6c0,1,0.2,2,0.2,2.9c0,2,0.1,3.9,0,5.9
		c-0.2,2.7,1.6,1.7,2.9,1.7c1,0,2,0,3,0c1,1.5,1.1,3.2,1,5c-2.1-0.5-3.2,1.3-4.6,2.3c-3.3,2.5-6.4,3.1-10.3,1
		c-1.9-1-3.7-3.4-6.7-2.6c-0.1,1.5-0.2,2.9-0.3,4.3c-4.9-1-4.1-4.7-3.7-8.1c0.3-2,1.6-4-0.3-5.9c-0.3-3.5,2.7-3.3,4.7-3.9
		c3.6-1.2,4.3-2.8,1.3-5.5c-1.9-1.8-3.1-3.6,0-5.4c1.2-0.1,2.5-0.5,2.6-1.7c0.4-3.9,2.3-6.2,6.1-7.2
		C284.4,89.8,284.6,88.9,284.7,88.1z"/>
	<path class="st1" d="M308.4,101.9c0,0.3,0.1,0.7,0.1,1c0.1,4.4,0.3,4.7,3,3.8c3.3,5.4,6.1,10.9,7.7,17.1c-4.1-0.1-1.6-6.1-5.8-6.4
		c-1.3,3.1-1.8,6.9-6.4,7.5c-3.9,0.5-3.8,2.7-1,4.6c2.6,1.7,2.5,3.6,1.8,6.3c-0.5,1.8-2,3-2.2,4.8c-0.2,6.5-3.8,10.5-10.1,11.1
		c-2,0.2-1.7,1.6-1.8,2.8c-1,1-2,2-3,3c-0.5-2.5-1-5-1.4-7.5c-2.5-0.1-3.8,1.7-5.5,2.5c-1.3,0-2,0.7-1.9,2.1c-0.3,0.3-0.7,0.6-1,0.9
		c-1.3-0.7-3-1.1-3-3.1c3.7-12.4,14.3-9.7,23.3-9.9c0.1-2.5-1.3-3.2-2.5-3.9c-1.2-0.8-2.8-1.1-2.9-2.9c6.1-6.1,7.7-13.6,6.9-21.8
		c1.5,0.5,3.2,1.8,4.5,0.2c1.2-1.5-1.2-2.6-1.2-3.8c-0.1-5.1-1.9-8.9-7.2-10.3c2.6,0,5.3,0,7.9,0c0,0,0,0,0,0c0.3,0.3,0.7,0.6,1,1
		c0,0,0,0,0,0C307.8,101.3,308.1,101.6,308.4,101.9z"/>
	<path class="st2" d="M305.6,140.6c0.2-1.8,1.7-3,2.2-4.8c0.8-2.7,0.8-4.5-1.8-6.3c-2.9-1.9-2.9-4.1,1-4.6c4.6-0.6,5.1-4.4,6.4-7.5
		c4.3,0.3,1.8,6.3,5.8,6.4c1,3.3,2,6.6,2.9,9.9c-1.7,4.9-0.4,9.8-0.7,14.8c0,0-0.1,0-0.1,0c-2.3,1.4-0.5,6.2-4.8,6
		c0.9-3.2,1-6.6,0.8-9.9c-0.1-1.4,0.5-3-1-4c-1-3.3-3.3-2-5.1-1.3C309.4,140.1,307.6,140.9,305.6,140.6z"/>
	<path class="st3" d="M309.6,170.3c-7.6,5.2-15.9,8.8-25.1,8.9c-4.9,0-10.1-0.1-14.5-3c-2.3-3.6-5.9-4.7-9.9-4.8c0,0,0,0,0,0
		c0.2-2.6-2.9-3.2-3.3-5.5c1.6-1,2.8,0.8,4.2,0.7c3.1,5.6,9,4.5,13.9,5.8c3.6,1.9,7.5-0.9,11,0.4c3.1,1.1,5.4,0.2,7.8-1.4
		c3.3-1.3,7.5-0.3,9.9-3.8c0.6-0.1,1.2-0.1,1.9-0.2C307.4,167.4,309.3,167.8,309.6,170.3z"/>
	<path class="st4" d="M274.9,99c-3.2,1.8-2,3.7,0,5.4c2.9,2.7,2.2,4.3-1.3,5.5c-2,0.7-4.9,0.5-4.7,3.9c-2.9,2-3.5,5.6-5.9,8
		c-0.3-0.6-0.6-1.2-0.7-1.8c-0.7-4.4-0.1-9.5-5.9-11.2c-0.2-0.1-0.2-1.2-0.3-1.8c0.4-0.3,0.7-0.7,1.1-1c3.8-1.5,6.1-4.5,7.8-8.1
		c2.4-0.1,4.8,0.5,7.2-0.5C273.6,96.7,274.7,97.2,274.9,99z"/>
	<path class="st5" d="M246.3,138.5c-0.5-5.5,0.3-10.7,2.8-15.7c2.3,0.4,4.4-0.4,6.8-2c0.1,4.6-1.1,9.4,5,9.9c0,0,0,0,0,0
		c0.2,3.6-4.8,3.4-5,6.7c-5.3,0.1-3.5,4.2-3.9,7.1C248.8,143.8,249.6,139.2,246.3,138.5z"/>
	<path class="st1" d="M260.9,130.8c-6.1-0.6-4.9-5.4-5-9.9c-2.5,1.6-4.5,2.3-6.8,2c0.6-6,3.7-11,6.9-15.8c0.1,0.6,0,1.8,0.3,1.8
		c5.8,1.7,5.3,6.8,5.9,11.2c0.1,0.6,0.5,1.2,0.7,1.8C262,124.8,259.5,127.3,260.9,130.8z"/>
	<path class="st4" d="M246.3,138.5c3.3,0.7,2.5,5.3,5.7,6c1.9,2.7,5.2,3.9,7.1,6.6c1.6,2.3,4,3.5,7.1,3.6c2.2,0.1,4.9,0.8,5.7,3.8
		c0,1.3,0.1,2.6,0.1,3.9c-2-0.3-3.9-0.7-5.9-1c-1.8-1-3.7-2.1-5.6-3.1c-2-1.1-4.2-2-4.5-4.8c-0.2-1.4,0.1-4.7-1.7-3.5
		c-1.9,1.3-7.4-1.1-6,4.5l-0.4-0.1C246.7,149.2,244.4,144.1,246.3,138.5z"/>
	<path class="st6" d="M274.9,99c-0.2-1.7-1.2-2.2-2.7-1.6c-2.4,1-4.8,0.4-7.2,0.5c-0.3-0.3-0.6-0.6-0.9-0.9c3.7-6.5,10.4-7.4,16.7-9
		c0.4,0,0.7,0,1.1,0c1,0,1.9,0,2.9,0c-0.1,0.8-0.3,1.7-1.2,2c-3.7,1-5.7,3.3-6.1,7.2C277.4,98.5,276.1,98.9,274.9,99z"/>
	<path class="st6" d="M306.6,99.9c-2.6,0-5.3,0-7.9,0c-2.2-0.5-3.3-3.4-6-3c0.7-3.3-4.3-4.4-3-7.9C297.6,89.1,302,94.6,306.6,99.9z"
		/>
	<path class="st7" d="M309.6,170.3c-0.2-2.6-2.1-2.9-4.2-3.1c-0.1-2,1.4-2.5,2.9-3.3c3.2-1.6,6.1-3.6,7.1-7.4
		c0.4-0.7,0.8-1.4,1.2-2.1c4.3,0.2,2.5-4.5,4.8-6C321.3,157.9,315.6,164.2,309.6,170.3z"/>
	<path class="st7" d="M260.9,166.5c-1.4,0.1-2.5-1.6-4.2-0.7c0.3,2.3,3.5,3,3.3,5.5c-5.8-3.4-9.4-8.3-10.8-14.9c0,0,0,0,0,0
		c4.3,2.9,8.9,5.5,11.8,10L260.9,166.5z"/>
	<path class="st1" d="M264,97c0.3,0.3,0.6,0.6,0.9,0.9c-1.7,3.6-3.9,6.6-7.8,8.1C258.6,102.3,260.7,99.2,264,97z"/>
	<path class="st7" d="M260,171.4c4,0.1,7.6,1.2,9.9,4.8C266,175.8,263.1,173.4,260,171.4z"/>
	<path class="st4" d="M321.5,148.5c0.3-4.9-1-9.9,0.7-14.8C322.1,138.7,323.4,143.7,321.5,148.5z"/>
	<path class="st6" d="M311.5,106.8c-2.7,0.8-2.9,0.6-3-3.8C310.4,103.6,310.6,105.4,311.5,106.8z"/>
	<path class="st7" d="M249.2,156.5c-1-0.3-0.9-1.3-1.2-2c0,0,0.4,0.1,0.4,0.1C248.6,155.2,248.9,155.8,249.2,156.5L249.2,156.5z"/>
	<path class="st0" d="M281.8,88c-0.4,0-0.7,0-1.1,0c0.2-0.4-0.1-1.2,0.7-1.1C281.6,86.9,281.7,87.6,281.8,88z"/>
	<path class="st6" d="M308.4,101.9c-0.3-0.3-0.6-0.7-0.8-1C307.8,101.3,308.1,101.6,308.4,101.9z"/>
	<path class="st6" d="M307.5,100.9c-0.3-0.3-0.7-0.6-1-1C306.9,100.3,307.2,100.6,307.5,100.9z"/>
	<path class="st8" d="M295.6,135.7c0.1,1.9,1.7,2.2,2.9,2.9c1.2,0.8,2.6,1.4,2.5,3.9c-9,0.3-19.6-2.5-23.3,9.9c-0.6,0-1.3,0-1.9,0
		c0-1-0.1-2,0-2.9c0.3-4.8-1-8.1-6.6-8c-0.8,0-1.5-0.6-2.3-0.7c-4.2-0.5-3.1-2.2-1-4.2c3.8-1.8,7.8-3.4,6.9-8.9
		c0.1-1.4,0.2-2.9,0.3-4.3c3-0.7,4.8,1.6,6.7,2.6c3.9,2.1,7,1.5,10.3-1c1.4-1,2.4-2.8,4.6-2.3c0.3,2.6-1.3,4.6-2.2,6.9
		C291.2,133.1,292.2,134.9,295.6,135.7z"/>
	<path class="st9" d="M292.7,96.9c2.7-0.4,3.7,2.5,6,3c5.3,1.4,7.1,5.2,7.2,10.3c0,1.3,2.4,2.3,1.2,3.8c-1.3,1.6-3,0.3-4.5-0.2
		c-2-3-4.1-3.9-6.6-0.5c-0.6,0.8-1.3,1.4-2.4,1.5c-1.9,0-2.9,1-3,2.9c-1.3,0-3.1,1.1-2.9-1.7c0.1-2,0.1-3.9,0-5.9c0-1-0.1-2-0.2-2.9
		c-0.1-2.2-4.8-0.6-3.2-3.6c0.8-1.4,3.7-1.1,5-2.6C290.5,99.7,291.6,98.3,292.7,96.9z"/>
	<path class="st6" d="M293.7,114.9c1-0.1,1.8-0.7,2.4-1.5c2.4-3.4,4.6-2.5,6.6,0.5c0.7,8.2-0.9,15.7-6.9,21.8
		c-3.4-0.8-4.4-2.6-3.1-6c0.8-2.2,2.5-4.3,2.2-6.9c0.1-1.7,0-3.4-1-5C293.6,116.8,293.7,115.9,293.7,114.9z"/>
	<path class="st6" d="M272.8,127.8c0.9,5.5-3.1,7.1-6.9,8.9c0-3.4-1.8-5.2-5-5.9c0,0,0,0,0,0c-1.5-3.5,1.1-6,2-8.9
		c2.4-2.4,3-6,5.9-8c1.9,1.9,0.6,3.8,0.3,5.9C268.7,123,268,126.8,272.8,127.8z"/>
	<path class="st8" d="M293.7,114.9c0,1,0,1.9,0,2.9c-1,0-2,0-3,0C290.8,115.9,291.7,114.9,293.7,114.9z"/>
	<path class="st10" d="M275.9,152.5c0.6,0,1.3,0,1.9,0c0,2,1.7,2.3,3,3.1c0.1,2.2-1.9,2.6-3.1,3.7c-1,0-2,0.1-2.9,0.1
		c-1-0.3-1.9-0.6-2.9-0.9c-0.8-2.9-3.4-3.7-5.7-3.8c-3.1-0.1-5.5-1.2-7.1-3.6c-1.9-2.8-5.2-3.9-7.1-6.6c0.4-2.9-1.4-6.9,3.9-7.1
		c0.2,1.4-0.4,3.3,0.9,4.2c4.2,2.7,6.9,7,11.2,9.7C270.6,153,273.1,153.5,275.9,152.5z"/>
	<path class="st10" d="M305.6,140.6c2,0.3,3.8-0.5,5.7-1.2c1.9-0.7,4.2-2.1,5.1,1.3c-0.8,0.1-1.4,0.4-1.9,1.3
		c-2.5,4.7-6,8.4-10.2,11.6c-3.6,2.7-6.8,3.6-10.6,1c0.1-1.2-0.2-2.6,1.8-2.8C301.8,151.1,305.4,147.1,305.6,140.6z"/>
	<path class="st4" d="M293.7,154.5c3.8,2.6,7,1.7,10.6-1c4.3-3.2,7.8-6.9,10.2-11.6c0.5-0.9,1-1.2,1.9-1.3c1.5,1,0.9,2.6,1,4
		c-1.7,0.1-2.1,1.3-1.9,2.7c0.3,2.2-1,3.6-2,5.2c-5.2,2.1-8.5,7.7-14.8,7.9c-0.4-0.3-0.7-0.5-1.1-0.8c-2,0-3.9-0.1-5.9-0.1
		c-0.3-0.7-0.7-1.3-1-2C291.7,156.5,292.7,155.5,293.7,154.5z"/>
	<path class="st5" d="M290.7,157.5c0.3,0.7,0.7,1.3,1,2c-2.9,2.3-6.7,2-10,2.8c-2.2,0.6-3.7-0.7-3.9-3.1c1.2-1.1,3.2-1.5,3.1-3.7
		c0.3-0.3,0.7-0.6,1-0.9c1.3-0.1,1.9-0.8,2-2.1c1.7-0.8,3-2.7,5.5-2.5C289.7,152.5,290.2,155,290.7,157.5z"/>
	<path class="st10" d="M283.8,152.6c0,1.3-0.7,2-2,2.1C281.8,153.3,282.4,152.6,283.8,152.6z"/>
	<path class="st10" d="M313.5,152.5c1-1.6,2.3-3.1,2-5.2c-0.2-1.4,0.2-2.6,1.9-2.7c0.1,3.3,0,6.7-0.8,9.9c-0.4,0.7-0.8,1.4-1.2,2.1
		C312.9,156.1,313.6,154.1,313.5,152.5z"/>
	<path class="st2" d="M313.5,152.5c0.2,1.6-0.6,3.6,1.9,4.1c-1,3.8-3.9,5.8-7.1,7.4c-1.5,0.8-3,1.2-2.9,3.3
		c-0.6,0.1-1.2,0.1-1.9,0.2c-3.9-2.2-7-0.4-10,2c-0.6-0.1-1.2-0.1-1.8-0.2c0-4.6,4.9-4.9,6.9-7.7c0-0.3,0-0.7,0.1-1
		C304.9,160.2,308.3,154.7,313.5,152.5z"/>
	<path class="st11" d="M291.7,169.2c0.6,0.1,1.2,0.1,1.8,0.2c0,0.6,0,1.2,0,1.8c-2.4,1.6-4.7,2.5-7.8,1.4c-3.5-1.3-7.4,1.5-11-0.3
		c0-0.8-0.2-1.5-0.9-2c0-0.3,0.1-0.5,0.1-0.8c0.3-0.3,0.5-0.6,0.8-0.9c0.4-0.1,0.7-0.1,1.1-0.2c1.9,1.2,4,1.3,6,1
		C285.2,168.8,288.4,168.1,291.7,169.2z"/>
	<path class="st12" d="M293.6,171.3c0-0.6,0-1.2,0-1.8c3-2.4,6.1-4.2,10-2C301,170.9,296.9,170,293.6,171.3z"/>
	<path class="st7" d="M273.8,170.3c0.7,0.5,1,1.2,0.9,2c-4.9-1.2-10.8-0.2-13.9-5.8c0,0,0.1-0.1,0.1-0.1c3.4,2,7.1,3.1,11,3.8
		C272.6,170.3,273.2,170.3,273.8,170.3z"/>
	<path class="st1" d="M275.9,152.5c-2.8,1-5.3,0.5-7.9-1.1c-4.3-2.6-7-7-11.2-9.7c-1.4-0.9-0.7-2.8-0.9-4.2c0.2-3.3,5.2-3.1,5-6.7
		c3.2,0.7,5,2.5,5,5.9c-2,2-3.2,3.7,1,4.2c0.8,0.1,1.6,0.7,2.3,0.7c5.6,0,6.9,3.3,6.6,8C275.8,150.5,275.9,151.5,275.9,152.5z"/>
	<path class="st12" d="M272,170.3c-3.9-0.7-7.6-1.9-11-3.8c-3-4.5-7.5-7.1-11.8-10c-0.3-0.6-0.5-1.2-0.8-1.9c-1.4-5.6,4-3.2,6-4.5
		c1.8-1.2,1.5,2.1,1.7,3.5c0.3,2.8,2.5,3.7,4.5,4.8c1.9,1,3.7,2.1,5.5,3.1c-1.5,2.9-0.3,4.6,2.3,6.1
		C269.7,168.2,271.8,168.1,272,170.3z"/>
	<path class="st2" d="M272,170.3c-0.2-2.2-2.3-2-3.6-2.7c-2.6-1.5-3.9-3.2-2.3-6.1c2,0.3,3.9,0.7,5.9,1c1.3,0.7,2.5,1.4,3.8,2.1
		c0,1.3,0,2.5,0.1,3.8c-0.4,0.1-0.7,0.1-1.1,0.2c-0.3,0.3-0.5,0.6-0.8,0.9c0,0.3-0.1,0.5-0.1,0.8C273.2,170.3,272.6,170.3,272,170.3
		z"/>
	<path class="st5" d="M275.8,164.5c-1.3-0.7-2.5-1.4-3.8-2.1c0-1.3-0.1-2.6-0.1-3.9c1,0.3,1.9,0.6,2.9,0.9
		C275.1,161.1,275.4,162.8,275.8,164.5z"/>
	<path class="st13" d="M275.8,164.5c-0.3-1.7-0.6-3.4-1-5.1c1,0,2-0.1,2.9-0.1c0.2,2.4,1.7,3.6,3.9,3.1c3.4-0.9,7.1-0.5,10-2.8
		c2,0,3.9,0.1,5.9,0.1c0.1,0.8,0.3,1.4,1.1,1.8c-2,2.9-6.9,3.1-6.9,7.7c-3.3-1.1-6.6-0.4-9.9,0.1c-2,0.3-4.2,0.3-6-1
		C275.8,167.1,275.8,165.8,275.8,164.5z"/>
	<path class="st5" d="M298.6,161.5c-0.8-0.4-1-1-1.1-1.8c0.4,0.3,0.7,0.5,1.1,0.8C298.7,160.8,298.7,161.1,298.6,161.5z"/>
	<path class="st7" d="M274,169.5c0.3-0.3,0.5-0.6,0.8-0.9C274.5,168.9,274.2,169.2,274,169.5z"/>
</g>
</svg>
