<?xml version="1.0" encoding="utf-8"?>
<!-- Generator: Adobe Illustrator 24.3.0, SVG Export Plug-In . SVG Version: 6.00 Build 0)  -->
<svg version="1.1" id="图层_1" xmlns="http://www.w3.org/2000/svg" xmlns:xlink="http://www.w3.org/1999/xlink" x="0px" y="0px"
	 viewBox="0 0 560 288" style="enable-background:new 0 0 560 288;" xml:space="preserve">
<style type="text/css">
	.st0{fill:#8BF5E6;}
	.st1{fill:#448182;}
	.st2{fill:#4FAEA3;}
	.st3{fill:#94E5C3;}
	.st4{fill:#EEF0C9;}
	.st5{fill:#7DEBD8;}
	.st6{fill:#FAC5B1;}
	.st7{fill:#AAF3DB;}
	.st8{fill:#64A4D3;}
	.st9{fill:#DBFBEA;}
	.st10{fill:#9FDAFC;}
</style>
<g>
	<path class="st0" d="M275.1,81.4c3.7-5.1,8.9-8.2,14.6-10.5c9.2-3.7,16.4,1.2,23.3,6.4c3.4,2.6,6,6,7.8,10c-0.7,4.6-4.4,2.6-7,3.1
		c-1-0.8-2-1.6-3-2.5c-6.3-6.1-14.9-4-17.9,4.3c-2.6,0.1-5.3,0.1-7.9,0.2c-0.7,0-1.3,0-2,0c-1,0-2-0.1-3-0.1
		c-0.4-1.6-0.8-3.3-1.1-4.9c0-0.9,0-1.8,0-2.7c0.1-0.9,0.1-1.7-1-2C277,82.4,275.8,82.4,275.1,81.4z"/>
	<path class="st1" d="M327.7,146.8c-9,12-21,16.3-35.9,15.3c-7.6-0.5-13.6-3.9-19.9-7.2c-4.5-2.4-7.3-6.6-9.4-11.2
		c1.8-0.9,2.9-0.5,4.8,0.7c4.9,3.1,9.6,6.6,15.4,8.1c8.5,2.1,17.2,2.7,25.8,1.1c5.6-1,11.5-1.9,15.6-6.6
		C325.3,145.8,326.5,146.3,327.7,146.8z"/>
	<path class="st2" d="M327.7,146.8c-1.2-0.5-2.4-1-3.6,0.3c-4.1,4.7-10,5.6-15.6,6.6c-8.6,1.5-17.3,1-25.8-1.1
		c-5.8-1.4-10.5-4.9-15.4-8.1c-1.8-1.2-3-1.6-4.8-0.7c-2.8-3-4.2-6.6-4.1-10.7c0.3-1,0.7-2,1-3c1.6,2.1,0.7,6.7,3.1,6.6
		c4.1,0,4.6,3.3,6.7,5c2.6,2.1,5,4.8,9,3.2c2.1,0.9,4.3,1.7,6.3,2.7c9.5,4.8,18.9,4.6,28.3-0.5c5.5-3,11.4-4.9,17.8-5.1
		C329.6,143.6,329.4,145.7,327.7,146.8z"/>
	<path class="st3" d="M330.6,142c-6.4,0.2-12.3,2.2-17.8,5.1c-9.4,5.1-18.7,5.4-28.3,0.5c-2-1-4.2-1.8-6.3-2.7
		c0.4-2,0.7-3.9,1.1-5.9c2.1,0,2.9,2.1,4.4,2.7c2.6,1,4.1,5,7.8,2.9c0.7,0.4,1.4,0.7,2.1,1.2c4.6,3.8,7.5,3.5,11.5-1.1
		c1.4-1.6,2-3.8,3.9-5c0.4,0.4,0.8,0.8,1.2,1.2c0,1.5,1,2.3,2.2,1.6c2.8-1.6,6.3-2.4,8.6-4.3c1.9-1.6,5.4,0.2,5.9-3.3
		c0.7,0,1.3,0,2,0c0.7,1.3,1.7,2.3,3.1,3C331.4,139.3,331,140.6,330.6,142z"/>
	<path class="st4" d="M279.1,84.5c0,0.9,0,1.8,0,2.7c-1,2.8-1.8,5.7-3.6,8.2c-3.1,3.3-6.2,6.5-9.3,9.8c-0.9,0-1.9,0-2.8,0
		c0-1.6-0.1-3.3-0.1-4.9c2.4-7.3,6.7-13.3,11.8-18.9c0.7,1.1,1.9,1,2.9,1.1C278.4,83.2,278.7,83.9,279.1,84.5z"/>
	<path class="st5" d="M326.6,95.4c0.4,1,0.8,1.9,1.2,2.9c0,3.8,0.5,7.9-5.1,8.1c-1.3,0.1-2.7-0.4-3.8,0.7c-2-0.7-3.9-1.3-5.9-2
		c1.6-3.1,2.3-6.4,2-9.9C318.8,94.7,322.7,96.9,326.6,95.4z"/>
	<path class="st5" d="M310,141c-0.4-0.4-0.8-0.8-1.2-1.2c0.5-1.5,1-3.1,1.5-4.6c3.1-1.4,6.8-1.4,9.7-3.4c3.6,2.4,4.9-1.1,6.9-2.8
		c2.1-0.2,3.5-2.5,5.8-2c0.3,0.1,0.5,0.1,0.8,0.2c0,1.6-0.1,3.3-0.1,4.9c-0.2,0.3-0.5,0.6-0.7,1c0,0,0,0,0,0
		c-1.8-0.2-3.2,0.2-4.1,1.9c-0.7,0-1.3,0-2,0C320.3,134.6,314.8,136.9,310,141z"/>
	<path class="st6" d="M259.5,130.1c-0.3,1-0.7,2-1,3c-2.4-5.7-1.2-11.5-0.4-17.2c0.3-2.7,0.7-5.4,2.2-7.8c1.3,0.7,1.1,2.1,1.5,3.2
		c0,0.7,0,1.3,0,2c0,0.9,0,1.9,0,2.8c-0.1,0.7-0.1,1.4-0.2,2.1c-0.4,2.9,0.1,6-1.4,8.7C259.2,127.8,259.3,128.9,259.5,130.1z"/>
	<path class="st7" d="M326.6,95.4c-3.9,1.5-7.8-0.7-11.7-0.2c-0.3-1.6-0.7-3.3-1-4.9c2.6-0.5,6.2,1.5,7-3.1
		C324,89.1,324.8,92.6,326.6,95.4z"/>
	<path class="st7" d="M332.8,127c-2.3-0.5-3.7,1.8-5.8,2c2.7-4.3,1.7-9.2,2-13.9c1.2,0,2.4,0,3.5,0c0.3,1,0,2.3,1.1,3.1
		c0,1.3,0,2.6,0,3.9C332.2,123.5,332.9,125.3,332.8,127z"/>
	<path class="st7" d="M322.7,106.3c5.7-0.2,5.1-4.3,5.1-8.1c1.9,1.6,1.8,4.1,2.9,6.1c-1,2-2,4-3.1,6.1
		C326,109,324.3,107.7,322.7,106.3z"/>
	<path class="st5" d="M327.6,110.4c1-2,2-4,3.1-6.1c0.1,0.3,0.1,0.5,0.2,0.8c0.6,2.7-2,6,1.8,8c0,0,0.1,0,0.1,0
		c-0.1,0.7-0.1,1.3-0.2,2c-1.2,0-2.4,0-3.5,0C328.5,113.6,328.1,112,327.6,110.4z"/>
	<path class="st3" d="M261.8,111.2c-0.4-1.1-0.2-2.5-1.5-3.2c0.1-3,1.9-5.3,3-7.8c0,1.6,0.1,3.3,0.1,4.9c0,1,0,2,0,3
		C263.3,109.4,263.6,110.8,261.8,111.2z"/>
	<path class="st8" d="M328.7,135c0.8-1.8,2.3-2.1,4.1-1.9c-0.5,1.6,0.7,3.6-1,4.9C330.4,137.3,329.5,136.3,328.7,135z"/>
	<path class="st7" d="M332.6,113.1c-3.7-2-1.2-5.3-1.8-8C331.9,107.7,333,110.2,332.6,113.1z"/>
	<path class="st9" d="M332.8,127c0.2-1.7-0.6-3.5,0.9-4.9c0.3,1.7,1.4,3.4-0.1,5.1C333.3,127.2,333,127.1,332.8,127z"/>
	<path class="st6" d="M332.5,115.1c0.1-0.7,0.1-1.3,0.2-2c1.8,1.4,0.7,3.4,0.9,5.1C332.6,117.5,332.9,116.2,332.5,115.1z"/>
	<path class="st8" d="M332.8,133.1c0.2-0.3,0.5-0.6,0.7-1C333.2,132.4,333,132.7,332.8,133.1z"/>
	<path class="st9" d="M313,105.1c2,0.7,3.9,1.3,5.9,2c-2,2-3.3,4.7-5.9,6.1c-3.5,0-7.1-0.9-10.1,1.8c-1,0.1-2.1,0-2.8,0.9
		c-0.4,0-0.7,0.1-1.1,0.1c-2-0.4-3.9-1.5-5.9,0.1c-1,0-2,0-2.9,0c0-0.4-0.1-0.7-0.1-1.1c2.1-3.8,0.6-8,1-11.9c1.5,0,3.5,0,2.6-2.2
		c-0.7-1.8-2.1-4.2-4.7-1.5c-1.8-1.2-3.7-2.2-5.9-2.4c-0.8-1.7-3.1-2.6-2.9-5c1,0,2,0.1,3,0.1c0.2,0.5,0.4,1.4,0.7,1.5
		c1,0.3,1.1-0.7,1.2-1.4c2.6-0.1,5.3-0.1,7.9-0.2c0.2,0.9-0.3,2,1.3,2.8c1.1-1.3,2.4-3.4,4.6-2.3c2,1,2.7,3.3,3,5.4
		c0.3,2.1,0.4,4.3-0.4,6.3c-0.7,1.9-0.6,3.6,1.3,4.7c1.9,1.1,3.9,1.9,5.9,0.1C310.1,107.8,311.5,106.4,313,105.1z"/>
	<path class="st10" d="M313,105.1c-1.4,1.3-2.9,2.7-4.3,4c-2,1.9-3.9,1-5.9-0.1c-1.9-1.1-2.1-2.8-1.3-4.7c0.8-2.1,0.7-4.3,0.4-6.3
		c-0.3-2.1-1-4.4-3-5.4c-2.2-1.1-3.5,1-4.6,2.3c-1.5-0.7-1.1-1.9-1.3-2.8c3-8.3,11.6-10.4,17.9-4.3c0.9,0.9,2,1.7,3,2.5
		c0.3,1.6,0.7,3.3,1,4.9C315.3,98.7,314.6,102,313,105.1z"/>
	<path class="st7" d="M280.2,92.2c-0.2,2.3,2.1,3.2,2.9,5c-1,0-2,0-3,0c-1-2.1-2.8-1.9-4.6-1.7c1.8-2.5,2.5-5.4,3.6-8.2
		C279.5,88.9,279.8,90.5,280.2,92.2z"/>
	<path class="st7" d="M285.2,92.4c-0.2,0.7-0.2,1.7-1.2,1.4c-0.3-0.1-0.5-1-0.7-1.5C283.9,92.3,284.5,92.3,285.2,92.4z"/>
	<path class="st7" d="M279.1,84.5c-0.3-0.7-0.7-1.4-1-2C279.1,82.8,279.2,83.6,279.1,84.5z"/>
	<path class="st8" d="M259.5,130.1c-0.2-1.2-0.2-2.3,0.8-3.2c3.6,1.3,6.3-3,10-1.6c0.6,0.3,1.2,0.5,1.9,0.8c0.5,0.8,1.2,1.1,2.2,1
		l-0.1,0c0.6,3.1,3.1,4.8,4.9,6.9c0,1.7,0.1,3.3,0.1,5c-0.3,2-0.7,3.9-1.1,5.9c-3.9,1.6-6.4-1.1-9-3.2c-2.1-1.7-2.6-5-6.7-5
		C260.2,136.7,261.1,132.1,259.5,130.1z"/>
	<path class="st4" d="M310.4,135.2c-0.5,1.5-1,3.1-1.5,4.6c-1.9,1.2-2.5,3.4-3.9,5c-4,4.6-6.9,4.8-11.5,1.1
		c-0.6-0.5-1.4-0.8-2.1-1.2c-1.4-2.9-3.9-5.2-4.3-8.6c0-2,0-4,0-6c0.4-0.9,0.7-1.9,1.1-2.8c0.3-0.4,0.6-0.7,0.9-1.1
		c0,0,0.1-0.1,0.1-0.1c0.3-0.3,0.6-0.6,0.8-0.9c0,0,0.1-0.1,0.1-0.1c5.5-3.6,11.1-4.1,16.9-0.8c0.8,1.3,1.5,2.5,2.3,3.8
		C310.5,130.2,310.3,132.7,310.4,135.2z"/>
	<path class="st5" d="M287.1,136c0.5,3.4,2.9,5.7,4.3,8.6c-3.7,2.1-5.2-1.8-7.8-2.9c-1.5-0.6-2.3-2.8-4.4-2.7c0-1.7-0.1-3.3-0.1-5
		C282.1,133.6,284.7,134.4,287.1,136z"/>
	<path class="st7" d="M310,141c4.8-4.1,10.2-6.5,16.7-6c-0.4,3.5-4,1.7-5.9,3.3c-2.3,1.9-5.8,2.7-8.6,4.3
		C311,143.3,310.1,142.5,310,141z"/>
	<path class="st5" d="M275.5,95.4c1.8-0.2,3.6-0.4,4.6,1.7c-0.9,0.4-1.8,0.8-2.7,1.2c-0.9-0.1-1.8,0.1-1.9,1.2
		c-1.4,2.2-2.8,4.4-4.1,6.6c-1.8,0.2-3.5-0.1-5.1-1C269.3,101.9,272.4,98.7,275.5,95.4z"/>
	<path class="st7" d="M266.2,105.2c1.6,0.9,3.3,1.2,5.1,1c-0.1,2.4-0.1,4.7-0.2,7.1c-4.3,0.9-5.2-3.3-7.7-5.1c0-1,0-2,0-3
		C264.4,105.2,265.3,105.2,266.2,105.2z"/>
	<path class="st6" d="M313,113.2c2.6-1.4,3.8-4.1,5.9-6.1c1.1-1.2,2.5-0.7,3.8-0.8c1.6,1.3,3.3,2.7,4.9,4c0.5,1.6,0.9,3.2,1.4,4.8
		c-0.3,4.7,0.7,9.6-2,13.9c-2,1.6-3.3,5.2-6.9,2.8c-1.6-1.8-2.4-4.2-5.1-4.8c0.3-2.1-1.1-3.4-2.1-4.9
		C312.9,119.1,312.9,116.2,313,113.2z"/>
	<path class="st7" d="M315,127c2.7,0.5,3.6,3,5.1,4.8c-3,1.9-6.6,1.9-9.7,3.4c0-2.4,0.2-4.9-1.2-7.2
		C311.5,130.2,312.9,126.7,315,127z"/>
	<path class="st5" d="M263.4,108.2c2.5,1.8,3.4,6,7.7,5.1c0.8,1.8,1.4,3.6,2.4,5.3c4,7.2,6,7.5,12.5,2.4c1.9,0.8,3.4,1.9,4.1,4
		c0,0-0.1,0.1-0.1,0.1c-0.3,0.3-0.6,0.6-0.8,0.9c0,0-0.1,0.1-0.1,0.1c-0.3,0.4-0.6,0.7-0.9,1.1c-0.4,0.9-0.7,1.9-1.1,2.8
		c-4.7,0.6-8.7-1.4-12.9-2.9c0,0,0.1,0,0.1,0c-0.4-0.9-1.3-1-2.2-1c-0.6-0.3-1.2-0.5-1.9-0.8c-1.5-4-6.8-3.4-8.6-7.1
		c0.1-0.7,0.1-1.4,0.2-2.1c0.8-0.9,0.8-1.9,0-2.8c0-0.7,0-1.3,0-2C263.6,110.8,263.3,109.4,263.4,108.2z"/>
	<path class="st3" d="M261.6,118.1c1.8,3.7,7.1,3.1,8.6,7.1c-3.6-1.4-6.3,2.9-10,1.6C261.7,124.1,261.2,121.1,261.6,118.1z"/>
	<path class="st3" d="M261.8,113.2c0.8,1,0.8,1.9,0,2.8C261.8,115.1,261.8,114.2,261.8,113.2z"/>
	<path class="st6" d="M285.9,121c-6.5,5.2-8.5,4.8-12.5-2.4c-0.9-1.7-1.6-3.6-2.4-5.3c0.1-2.4,0.1-4.7,0.2-7.1
		c1.4-2.2,2.8-4.4,4.1-6.6c0.6-0.4,1.3-0.8,2-1.2c0.9-0.4,1.8-0.8,2.7-1.2c1,0,2,0,3,0c2.2,0.2,4.1,1.1,5.9,2.4
		c0.7,1.2,1.4,2.5,2.1,3.7c-0.5,4,1.1,8.1-1,11.9c-0.3,0.4-0.6,0.8-0.8,1.1c0,0,0,0,0,0c-0.9,0.4-1.1,1.1-1.1,1.9
		C287.4,119.1,286.7,120,285.9,121z"/>
	<path class="st0" d="M285.9,121c0.7-0.9,1.5-1.9,2.2-2.8c0.9-0.4,1.1-1.1,1.1-1.9c0,0,0,0,0,0c0.3,0,0.6,0,0.9-0.1c1,0,2,0,2.9,0
		c0.2,2.3,1.6,3,3.7,2.9c2.2-0.1,2.3-1.4,2.1-3.1c0.4,0,0.7-0.1,1.1-0.1c1.7,1.9,2.6,1.5,2.8-1c3-2.7,6.6-1.8,10.1-1.8
		c-0.1,3-0.1,5.9-0.2,8.9c-3.6-4-3.9,1.4-5.9,2.1c-5.8-3.4-11.4-2.8-16.9,0.8C289.4,122.9,287.8,121.7,285.9,121z"/>
	<path class="st7" d="M298.9,116c0.1,1.6,0,3-2.1,3.1c-2.1,0.1-3.5-0.6-3.7-2.9C295,114.6,297,115.7,298.9,116z"/>
	<path class="st7" d="M291.1,103.2c-0.7-1.2-1.4-2.5-2.1-3.7c2.6-2.6,4-0.3,4.7,1.5C294.6,103.2,292.6,103.2,291.1,103.2z"/>
	<path class="st7" d="M302.8,115c-0.2,2.5-1.2,2.8-2.8,1C300.7,115,301.8,115.1,302.8,115z"/>
	<path class="st4" d="M290.1,116.2c-0.3,0.1-0.6,0.1-0.9,0.1c0.3-0.4,0.6-0.8,0.8-1.1C290.1,115.5,290.1,115.8,290.1,116.2z"/>
	<path class="st7" d="M274.2,127.1c4.2,1.5,8.2,3.5,12.9,2.9c0,2,0,4,0,6c-2.4-1.6-5-2.4-8-2C277.3,131.9,274.8,130.2,274.2,127.1z"
		/>
	<path class="st7" d="M272.1,126.1c0.9,0,1.7,0.1,2.2,1C273.3,127.2,272.6,126.9,272.1,126.1z"/>
	<path class="st5" d="M306.9,124.2c2-0.6,2.3-6.1,5.9-2.1c1,1.5,2.5,2.8,2.1,4.9c-2-0.3-3.4,3.2-5.8,1
		C308.4,126.7,307.7,125.4,306.9,124.2z"/>
	<path class="st0" d="M288.2,127.2c0.3-0.4,0.6-0.7,0.9-1.1C288.8,126.4,288.5,126.8,288.2,127.2z"/>
	<path class="st0" d="M289.1,126c0.3-0.3,0.6-0.6,0.8-0.9C289.7,125.4,289.4,125.7,289.1,126z"/>
	<path class="st7" d="M277.4,98.4c-0.7,0.4-1.3,0.8-2,1.2C275.6,98.4,276.4,98.3,277.4,98.4z"/>
	<path class="st4" d="M289.2,116.2c0,0.8-0.2,1.6-1.1,1.9C288.2,117.3,288.4,116.6,289.2,116.2z"/>
</g>
</svg>
