<?xml version="1.0" encoding="utf-8"?>
<!-- Generator: Adobe Illustrator 24.3.0, SVG Export Plug-In . SVG Version: 6.00 Build 0)  -->
<svg version="1.1" id="图层_1" xmlns="http://www.w3.org/2000/svg" xmlns:xlink="http://www.w3.org/1999/xlink" x="0px" y="0px"
	 viewBox="0 0 560 288" style="enable-background:new 0 0 560 288;" xml:space="preserve">
<style type="text/css">
	.st0{fill:#F4F87F;}
	.st1{fill:#A1F7B3;}
	.st2{fill:#B1DE3A;}
	.st3{fill:#E6F1B3;}
	.st4{fill:#8FE7A4;}
	.st5{fill:#658534;}
	.st6{fill:#799C38;}
	.st7{fill:#E2EA84;}
	.st8{fill:#ECF36C;}
	.st9{fill:#F3F9C3;}
	.st10{fill:#C0E942;}
	.st11{fill:#99C437;}
</style>
<g>
	<path class="st0" d="M258,64.3c8.4-7.4,20.5-5.4,28.7,1.3c6.9,5.6,11.9,12.4,15.7,20.3c-2.3,0.4-1.6,1.9-1.3,3.4
		c0.4,1.9,1.5,3.9,0.8,6.4c-4.5-3.2-7.3-7.4-11.2-12.3c0.2,4.8-0.4,8.3-1.8,11.6c-1.5,3.5-3,3.4-5.1,0.8c-1.5-5-5.1-9.1-5.7-14.4
		c-0.3-2.5-1.1-4.9-3.8-5c-2.7-0.1-4.7,2.4-5.1,4.6c-0.9,5.3-2.8,10.5-2.1,16c-3.9-0.5-5.6-3-6.2-9.1c1.2-0.2,2.6,0.5,3.4-0.6
		c-2.7-9.9-0.5-17.8,9-23c-6.2-4.5-10.3-1.6-14.3,1.8C258.6,65.5,258.3,64.9,258,64.3z M276.4,63.9c-0.3-0.1-0.6-0.4-0.8-0.3
		c-0.2,0.1-0.3,0.5-0.4,0.8c0.3,0.1,0.6,0.4,0.8,0.3C276.2,64.6,276.3,64.2,276.4,63.9z"/>
	<path class="st1" d="M283.8,95.8c2.2,2.7,3.6,2.8,5.1-0.8c1.4-3.4,2-6.8,1.8-11.6c4,4.8,6.7,9.1,11.2,12.3c0.7-2.5-0.4-4.4-0.8-6.4
		c-0.3-1.5-1-2.9,1.3-3.4c2.5,4.7,5.4,9.2,4.2,14.9c0,2.4,0,4.9-0.1,7.3c-0.1,1.8,0.8,4.1-2,4.7c-4.4-3-5.2-8.4-8.5-13.2
		c-1,5.8-2.7,10.3-5.1,14.6c-1.6,2.8-3.3,3.1-5.3,0.8c-2.9-3.4-5.7-6.8-6.9-11.2C278.8,100.1,279.2,96.6,283.8,95.8z"/>
	<path class="st2" d="M308.3,120.8c-0.7,7.4-2.3,14.5-8.6,19.5c0-0.9,0-1.8,0-2.7c2.3-1.2,3.2-3,3-5.6c-2.8-0.4-3.9,2.2-5.9,3.2
		c-14,7.4-28,5.9-42.3,0.7c-4.2-1.6-7.6-3.6-8.6-8.3c0.3-0.3,0.5-0.7,0.8-1c7.9,2.7,14.4,8.7,23.6,8.6c7.6,0,14.9,0.5,22.3-2.6
		c3.5-1.4,6.3-4,9.9-4.9C307.1,127.5,305.5,122.2,308.3,120.8z"/>
	<path class="st3" d="M246.8,126.5c-0.3,0.3-0.5,0.7-0.8,1c-2.2,1.4-3.6,0.4-4.6-1.5c-1.1-2.1-2.2-4.2-3.2-6.3
		c0-0.3-0.1-0.6-0.2-0.8c-0.1-0.7-0.2-1.3-0.3-2c-0.2-2-0.5-4-0.9-7.2c-1.4,3.3-2.6,5.4-2.2,8c-0.4,1-0.7,2-1.1,3
		c-2.1-1.3-1-3.3-1.2-5.1c1.4-1.9,1.3-3.8,0-5.7c0.3-1.1,0.6-2.1,0.9-3.2c3.8-2.2,3.5-7.2,6.8-10.3c-0.1,4.7,0,8.7,1.3,12.7
		c0.7,2.2,1.5,4.7,4.8,2.8c-0.2,2.4-0.4,4.9-0.7,7.8c2.2-0.8,3.7-2.4,5.7-2C249.7,120.7,248.2,123.6,246.8,126.5z"/>
	<path class="st4" d="M246.1,111.9c-3.2,1.9-4-0.6-4.8-2.8c-1.3-3.9-1.4-8-1.3-12.7c-3.3,3.2-3,8.2-6.8,10.3
		c-0.2-6.2,1.4-11.8,4.9-16.9c1.5,0.1,2.2-1,3.1-2.1c1.8-2,3-4.7,5.8-5.7c-0.7,3.6-1.2,7.1-0.9,10.8c0.3,5.1-1.6,10.7,2.9,15
		C248.1,109.2,247.1,110.5,246.1,111.9z"/>
	<path class="st5" d="M282.7,150.3c-11.5,3.7-22.4,2.1-32.7-4c-0.3-0.2-0.6-0.5-0.9-0.7c0,0,0-0.1,0-0.1c0-1.1,0.1-2.3-1.3-2.8
		c-1.3-0.5-2.6-1.4-1.6-2.8c1-1.4,2.2-0.2,3.4,0.4c9.6,4.8,19.8,7.1,30.6,6.2c2.4-0.2,5.3,0.2,6.7-2.8c0.6,0,1.3-0.1,1.9-0.1
		c1.7,1.6,1.9,2.8-0.9,2.9C285.1,146.5,283.6,147.9,282.7,150.3z"/>
	<path class="st6" d="M286.7,143.6c-1.4,3-4.3,2.6-6.7,2.8c-10.8,0.9-20.9-1.4-30.6-6.2c-1.2-0.6-2.4-1.8-3.4-0.4
		c-1,1.4,0.3,2.3,1.6,2.8c1.4,0.5,1.3,1.7,1.3,2.8c-9.3-3.9-15.7-14.1-15.6-24.7c0.4-1,0.7-2,1.1-3c0.2,0.1,0.4,0.2,0.6,0.2
		c-0.1,2,0.1,3.9,1,5.8c4.3,9.5,12.6,14.3,21.5,17.8C266.9,145.1,276.9,145.1,286.7,143.6z"/>
	<path class="st3" d="M308.3,120.8c-2.9,1.5-1.2,6.8-5.8,6.8c-0.6-1.7-1.3-3.4-1.9-5.1c0-0.6,0-1.2,0-1.8c2.7-1.9,3.7-4.6,3.8-7.8
		c2.8-0.6,1.9-3,2-4.7c0.1-2.4,0.1-4.9,0.1-7.3c1.1,0.1,1.7,0.6,1.9,1.8c0.6,4.4,1.4,8.7,1.9,13.1
		C310.6,117.7,310.7,119.8,308.3,120.8z"/>
	<path class="st7" d="M247,82c-2.7,1.1-4,3.7-5.8,5.7c-0.9,1-1.5,2.1-3.1,2.1c3.4-11,10.4-19.2,19.8-25.5c0.3,0.6,0.6,1.2,0.9,1.8
		c-2.9,1.8-3.6,5.8-7.6,6.9c-1.4,0.4-4.1,2.8-2.6,6C249.5,80.4,248.3,81.4,247,82z"/>
	<path class="st6" d="M282.7,150.3c0.9-2.3,2.4-3.7,5.1-3.8c2.7-0.1,2.5-1.4,0.9-2.9c4-1.4,8.1-2.8,11.1-6c0,0.9,0,1.8,0,2.7
		C295.5,145.9,289.3,148.4,282.7,150.3z"/>
	<path class="st1" d="M232.3,109.9c1.3,1.9,1.3,3.8,0,5.7C232.3,113.7,232.3,111.8,232.3,109.9z"/>
	<path class="st6" d="M249.1,145.5c0.3,0.2,0.6,0.5,0.9,0.7C249.3,146.4,249.1,146.1,249.1,145.5z"/>
	<path class="st1" d="M249,107.8c-4.6-4.3-2.6-9.9-2.9-15c1,1.3,2,2.8,3.8,0.8c2-2.2,4.5-4,6.1-6.4c2.5-3.8,3.6-1.7,4.8,0.8
		c0.6,6.2,2.3,8.6,6.2,9.1c4-0.1,4.8,4.3,7.7,5.7c-0.3,5.3-4.1,8.4-7.3,11.9c-2.3,2.5-3.8,2.2-5.7-0.5c-3.1-4.2-4.8-9.1-6.4-14.7
		C252.7,102.7,252.4,106.4,249,107.8z"/>
	<path class="st8" d="M260.8,88c-1.2-2.5-2.2-4.6-4.8-0.8c-1.6,2.4-4.2,4.2-6.1,6.4c-1.8,2-2.7,0.5-3.8-0.8
		c-0.3-3.6,0.2-7.2,0.9-10.8c1.3-0.6,2.5-1.6,1.8-3c-1.5-3.2,1.2-5.6,2.6-6c4-1.1,4.7-5.1,7.6-6.9c4-3.4,8.1-6.3,14.3-1.8
		c-9.4,5.2-11.7,13.1-9,23C263.5,88.4,262.1,87.7,260.8,88z"/>
	<path class="st3" d="M274.8,102.8c-2.9-1.5-3.7-5.8-7.7-5.7c-0.6-5.5,1.3-10.7,2.1-16c0.4-2.2,2.4-4.7,5.1-4.6
		c2.6,0.1,3.5,2.4,3.8,5c0.6,5.3,4.2,9.4,5.7,14.4c-4.6,0.8-5,4.3-5,8C277.6,102.6,276.5,101.4,274.8,102.8z M277,88.8
		c0.8-2.2,0.3-3.7-0.8-4.2c-1.7-0.7-2,1-2.4,2.2c-0.6,1.5-1.2,3-2,4.4c-1.3,2.1,0.3,3.3,1.5,3.9c2.1,1.1,2.9-0.9,3.4-2.3
		C277.1,91.3,276.9,89.6,277,88.8z"/>
	<path class="st8" d="M276.4,63.9c-0.1,0.3-0.2,0.7-0.4,0.8c-0.2,0.1-0.5-0.2-0.8-0.3c0.1-0.3,0.2-0.7,0.4-0.8
		C275.8,63.5,276.1,63.8,276.4,63.9z"/>
	<path class="st9" d="M274.8,102.8c1.7-1.4,2.8-0.2,4,1c1.2,4.4,4,7.8,6.9,11.2c2,2.4,3.7,2,5.3-0.8c2.4-4.3,4.1-8.8,5.1-14.6
		c3.3,4.8,4.1,10.2,8.5,13.2c-0.1,3.2-1.2,5.9-3.8,7.8c-1.5-1.5-0.2-4.4-3-5.5c-1,2.9-2,5.7-3,8.5c-0.4,0.6-0.8,1.3-1.3,1.9
		c-5.2,0.6-6.2,1.5-4.4,4.4c-2.9,2.6-4.2-0.9-6.2-1.6c-0.2-1.4,0.5-3.3-1.7-3.8c-1.5-2.4-2.1-5.4-5.3-7.2c-1,2.3-2,4.3-2.9,6.3
		c-0.1,0.3-0.2,0.5-0.2,0.8c-1.1,0.2-1.8,0.9-1.9,2.1c-1.4,1.3-2.8,2.7-4.3,4c-1.1,0.9-2.4,1.4-3.5,0.2c-3.5-3.8-7.5-7.3-8.2-13
		c0.2-1.6,0.3-3.5-1.8-3.6c-1.6-0.1-1.9,1.3-1.6,2.8c-0.1,0.3-0.2,0.5-0.3,0.8c-2-0.5-3.5,1.1-5.7,2c0.3-3,0.5-5.4,0.7-7.8
		c1-1.3,2-2.7,3-4c3.3-1.4,3.7-5.1,6.3-8.4c1.6,5.7,3.3,10.5,6.4,14.7c2,2.7,3.4,3,5.7,0.5C270.7,111.2,274.5,108.1,274.8,102.8z"/>
	<path class="st10" d="M254.8,117.8c0.7,5.6,4.7,9.2,8.2,13c1.1,1.2,2.4,0.7,3.5-0.2c1.5-1.3,2.9-2.6,4.3-4c1.4,0,2.1-0.7,1.9-2.1
		c0-0.3,0.1-0.5,0.2-0.8c3-0.9,4.6,4.3,8,1.9c0.7,0.9,0.7,2.3,2,2.8c2,0.6,3.3,4.2,6.2,1.6c2-0.9,3.6-2.2,4.4-4.4
		c0.4-0.6,0.8-1.3,1.3-1.9c2-0.4,4-0.8,6-1.2c0.6,1.7,1.3,3.4,1.9,5.1c-3.6,0.9-6.5,3.5-9.9,4.9c-7.4,3.1-14.6,2.6-22.3,2.6
		c-9.2,0-15.7-6-23.6-8.6c1.4-2.9,2.9-5.8,4.3-8.7c0.1-0.2,0.2-0.5,0.3-0.8C252.7,116.6,253.8,117.1,254.8,117.8z"/>
	<path class="st11" d="M299.8,137.5c-3,3.3-7.1,4.6-11.1,6c-0.6,0-1.3,0.1-1.9,0.1c-9.9,1.5-19.8,1.5-29.1-2.1
		c-9-3.5-17.2-8.4-21.5-17.8c-0.9-1.9-1-3.8-1-5.8c0.5-1.2,1.5-1.2,2.5-1.1c0.1,0.7,0.2,1.3,0.3,2c-0.1,0.1-0.3,0.3-0.3,0.3
		c0.1,0.2,0.3,0.4,0.5,0.6c1.1,2.1,2.1,4.2,3.2,6.3c1,1.9,2.4,2.9,4.6,1.5c1,4.7,4.4,6.7,8.6,8.3c14.2,5.2,28.2,6.7,42.3-0.7
		c1.9-1,3-3.6,5.9-3.2C303,134.5,302,136.3,299.8,137.5z"/>
	<path class="st10" d="M237.6,116.8c-1-0.1-2-0.1-2.5,1.1c-0.2-0.1-0.4-0.1-0.6-0.2c-0.5-2.6,0.8-4.7,2.2-8
		C237.1,112.8,237.4,114.8,237.6,116.8z"/>
	<path class="st10" d="M238.2,119.6c-0.2-0.2-0.3-0.4-0.5-0.6c0,0,0.2-0.2,0.3-0.3C238.1,119,238.2,119.3,238.2,119.6z"/>
	<path class="st8" d="M300.7,122.5c-2,0.4-4,0.8-6,1.2c1-2.8,2-5.6,3-8.5c2.8,1.1,1.5,4,3,5.5C300.7,121.3,300.7,121.9,300.7,122.5z
		"/>
	<path class="st9" d="M277,88.8c-0.1,0.8,0.1,2.5-0.4,4c-0.4,1.5-1.3,3.4-3.4,2.3c-1.3-0.7-2.8-1.8-1.5-3.9c0.8-1.4,1.4-2.9,2-4.4
		c0.5-1.2,0.7-2.9,2.4-2.2C277.3,85.1,277.8,86.6,277,88.8z"/>
	<path class="st8" d="M280.8,125.6c-3.4,2.3-4.9-2.8-8-1.9c0.9-2,1.8-4,2.9-6.3c3.1,1.8,3.8,4.8,5.3,7.2
		C280.9,124.9,280.9,125.3,280.8,125.6z"/>
	<path class="st3" d="M293.4,125.6c-0.8,2.1-2.4,3.5-4.4,4.4C287.2,127.1,288.2,126.2,293.4,125.6z"/>
	<path class="st7" d="M254.8,117.8c-1-0.7-2.1-1.2-3.4-0.8c-0.3-1.4,0-2.9,1.6-2.8C255.1,114.3,254.9,116.2,254.8,117.8z"/>
	<path class="st3" d="M280.8,125.6c0.1-0.3,0.1-0.7,0.2-1c2.3,0.5,1.6,2.3,1.7,3.8C281.5,127.9,281.5,126.5,280.8,125.6z"/>
	<path class="st8" d="M272.6,124.5c0.2,1.4-0.5,2.1-1.9,2.1C270.8,125.4,271.5,124.7,272.6,124.5z"/>
</g>
</svg>
