<?xml version="1.0" encoding="utf-8"?>
<!-- Generator: Adobe Illustrator 24.3.0, SVG Export Plug-In . SVG Version: 6.00 Build 0)  -->
<svg version="1.1" id="图层_1" xmlns="http://www.w3.org/2000/svg" xmlns:xlink="http://www.w3.org/1999/xlink" x="0px" y="0px"
	 viewBox="0 0 560 288" style="enable-background:new 0 0 560 288;" xml:space="preserve">
<style type="text/css">
	.st0{fill:#F8EA6A;}
	.st1{fill:#7F7035;}
	.st2{fill:#F4E859;}
	.st3{fill:#9FE1B0;}
	.st4{fill:#EFDF51;}
	.st5{fill:#A39834;}
	.st6{fill:#F5F1AC;}
	.st7{fill:#FCCF42;}
	.st8{fill:#BEB975;}
	.st9{fill:#ABE7B8;}
	.st10{fill:#CB8A19;}
	.st11{fill:#E9D941;}
	.st12{fill:#E6D334;}
	.st13{fill:#EAA21D;}
</style>
<g>
	<path class="st0" d="M315.9,58.6c1.6,1,3.2,2.1,4.9,3.1c0,1,0.2,2-0.2,2.9c-3,6.9-1.5,9.4,6.3,10.1c0,0.9-0.1,1.8-0.1,2.7
		c-1.2,0.7-2.5,1.2-3.9,1c-2.4-0.2-4.5,0.4-6.8,1.9c0.9,2.6,0.7,5.5,1.2,7.9c0.9,4.4-1.9,8.9,0.7,13c0.9,4.2-4.3,3.4-5.1,6.2
		c-1.9,0-3.8-0.1-5.7-0.1c-2.9-1.3-3.3-6.6-8-5.1c3.4-5,1-9.9,0-14.8c1.3-3.3-0.7-6.9,1.1-10.1c0.3-0.3,0.7-0.5,1-0.8
		c0.3,0,0.5,0,0.8,0.1c1.5,1.4,3.4,0.7,5.2,0.9c2.2,0.2,4.7-0.1,5.3-2.4c0.6-2.2-1.2-3.8-3.3-4.7c-2.6-5.1-6.7-1.4-10-1.8
		c0.1-1.2-0.4-2.6,0.9-3.7c2.8,1,5.6,0.7,8-1.4C312,64,315.9,64.4,315.9,58.6z M306.7,87.3c1.6,1.6-1.9,5.7,2.7,5.9
		c3.9,0.2,3.4-3.2,3.6-5.8c0.2-2.9-0.3-5.8-3.7-5.8C305.4,81.6,307.6,85.1,306.7,87.3z"/>
	<path class="st1" d="M339.7,135c-14.7,17.9-43.2,20.2-60.5,2.1c0-0.4,0-0.8,0.1-1.3c3.2-1.1,5,2.4,7.9,2.2
		c8.6,3.9,17.4,6.4,26.9,4.1c3.8,0.2,7.4-0.4,11.1-1.5C330.1,138.9,334.5,135.9,339.7,135z"/>
	<path class="st2" d="M308,63.5c-2.4,2.1-5.1,2.4-8,1.4c-1.4,1.1-0.8,2.5-0.9,3.7c-5,4.6-4.8,5.7,0.9,7.9c0.1,0.3,0.1,0.6,0.1,0.8
		c-1.8,3.2,0.2,6.8-1.1,10.1c-4.6-0.7-9,0.4-12.4,3.4c-1.7,1.5-3.5,2-5.4,2.5c-0.1-0.5-0.1-1-0.2-1.5c2.4-2.1,4.8-4.3,7.2-6.4
		c2.7-3,4.1-6.2,2-10.1c-0.8-2.5-3-3.1-5.1-3.8c2.6-3.8,5.8-6.9,9.7-9.3c0.4-0.2,0.8-0.4,1.2-0.6c0.6,0,1.3-0.1,1.9-0.1
		c1.6,0.1,3.3,0.1,4.9,0.2c0.3,0.3,0.6,0.5,1,0.8C305.4,62.9,306.7,63.2,308,63.5z"/>
	<path class="st3" d="M288.3,85.5c-2.4,2.1-4.8,4.3-7.2,6.4c-1.5,0.9-3.7,1.2-3.7,3.6c-0.8,0-1.5,0.3-1.9,1.1
		c-2.1-0.3-2.2-1.8-2.2-3.4c3.2-7.6,6-15.5,12-21.6c2.1,0.7,4.3,1.3,5.1,3.8c-1,0.4-2.1,0.7-3.1,1.1c-0.1-0.1-0.3-0.1-0.4-0.2
		c0.1,0.1,0.3,0.2,0.4,0.2c0.2,1.8-0.9,3-1.5,4.5C284.7,83.3,284.7,85.5,288.3,85.5z"/>
	<path class="st4" d="M326.8,77.4c0-0.9,0.1-1.8,0.1-2.7c2.7-0.9,5.2,0.7,7.8,0.8c0,0,0,0,0,0c0,0.8,0.1,1.6,1,2c0,0,0,0,0,0
		c0,0.8,0.1,1.6,0.9,2c1,0.7,1.8,1.7,2.1,2.9c-0.4,4.6,0.1,9.1,1,13.6c-1.9,5-3.7,9.9-5.7,15.2c-2.3-1.6-4.2-0.4-6.3,0
		c0-2.3,0-4.6,0-6.9c7-1.5,9.7-5.2,9-12.2C336.2,85.4,334.2,79.6,326.8,77.4z"/>
	<path class="st5" d="M339.7,135c-5.2,0.9-9.5,4-14.5,5.5c-3.7,1.2-7.3,1.7-11.1,1.5c0-1,0-2-0.1-3c0.8-0.4,1-1.2,1-2
		c2.7,0.1,5.4,0.1,7.8-1.3c0.2,0.8,0.3,1.7,1.2,2c3.7,1,11.9-4.7,12.6-8.5c0.1-0.8,0.2-1.5,0.3-2.3c1.5,0.2,2.3-0.5,2.9-1.8
		c1.8,0.4,2.8-0.8,3.8-1.9c0.4,0.3,0.7,0.6,1.1,0.9C344.5,128.4,341,131.2,339.7,135z"/>
	<path class="st6" d="M334.7,75.5c-2.6-0.1-5.1-1.7-7.8-0.8c-7.8-0.7-9.3-3.2-6.3-10.1c0.4-0.8,0.1-1.9,0.2-2.9
		C326.9,64.8,331.4,69.6,334.7,75.5z"/>
	<path class="st7" d="M344.7,97.1c0.3,1.4,0.7,2.7,1,4.1c0,6,0,12,0,18c0,0,0,0,0,0c-0.7,0.3-1.3,0.6-2,0.9c0.2-4.1-2.4-1.9-4.1-1.9
		c-0.3-0.3-0.6-0.7-0.9-1c-0.1-7.1,4.1-12.8,6-19.2C344.8,97.7,344.8,97.4,344.7,97.1z"/>
	<path class="st6" d="M308,63.5c-1.3-0.3-2.7-0.6-4-0.9c-0.3-0.3-0.6-0.5-1-0.8c-1.6-0.1-3.3-0.1-4.9-0.2c2.8-3.9,6.4-5.9,11.2-4.3
		c2.2,0.7,4.7-0.7,6.6,1.3C315.9,64.4,312,64,308,63.5z"/>
	<path class="st8" d="M273.3,93.2c-0.1,1.6,0.1,3.1,2.2,3.4c0,0.2,0,0.5,0,0.8c-0.1,0.3-0.2,0.6-0.2,1l0,0c-1.7,0.3-3,0.9-2,3
		c-1.2,5.3-2,10.5,0.2,15.8c0.6,2.6,1.2,5.2,1.8,7.8c0,2,0,4,0,6.1c-3.9-3.6-4.3-8.8-4.8-13.4C269.8,109.4,269.4,101,273.3,93.2z"/>
	<path class="st5" d="M275.3,130.9c0-2,0-4,0-6.1c2.9,3,5.4,6.4,9.9,7.2c0.3,0.4,0.6,0.8,0.9,1.1c0.4,1.6,0.7,3.2,1.1,4.8
		c-2.9,0.2-4.8-3.3-7.9-2.2c-0.3,0.1-0.5,0.1-0.8,0.2c-0.3-0.3-0.6-0.6-0.9-0.9c0.4-0.6,0.1-0.8-0.5-0.8
		C276.3,133.2,275.4,132.3,275.3,130.9z"/>
	<path class="st6" d="M339.9,96c-0.9-4.5-1.4-9-1-13.6c2.8,4.6,5.3,9.3,5.9,14.7c0.1,0.3,0.1,0.6,0,0.8
		C343.3,96.8,341.1,97.6,339.9,96z"/>
	<path class="st8" d="M345.7,119.2c0-6,0-12,0-18C347.3,107.2,347.3,113.2,345.7,119.2z"/>
	<path class="st8" d="M343.7,120c0.7-0.3,1.3-0.6,2-0.9c-0.4,1.6,0.8,3.6-1,4.9c-0.4-0.3-0.7-0.6-1.1-0.9
		C343.6,122.2,343.7,121.1,343.7,120z"/>
	<path class="st6" d="M336.7,79.5c-0.8-0.4-0.9-1.2-0.9-2C336.7,77.9,336.8,78.6,336.7,79.5z"/>
	<path class="st6" d="M335.7,77.5c-0.9-0.4-1-1.1-1-2C335.6,75.9,335.7,76.7,335.7,77.5z"/>
	<path class="st6" d="M296.2,61.8c-0.4,0.2-0.8,0.4-1.2,0.6C295.4,62.2,295.8,62,296.2,61.8z"/>
	<path class="st8" d="M277.1,134.2c0.6,0,0.9,0.2,0.5,0.8C277.4,134.8,277.3,134.5,277.1,134.2z"/>
	<path class="st8" d="M278.5,136c0.3-0.1,0.5-0.1,0.8-0.2c0,0.4,0,0.8-0.1,1.3C278.9,136.7,278.7,136.3,278.5,136z"/>
	<path class="st7" d="M281.2,93.4c2-0.5,3.7-1,5.4-2.5c3.4-3,7.7-4.1,12.4-3.4c1,4.9,3.4,9.9,0,14.8c-0.6,2.5-3.6,3.4-4,5.9
		c-4.1,1.6-7.9-1-11.9-1c-6.5-1.2-4.1-6.1-4-9.9C281,96.6,281.3,95.1,281.2,93.4z"/>
	<path class="st7" d="M326.8,77.4c7.4,2.1,9.3,7.9,10,14.6c0.7,7.1-2,10.7-9,12.2c-1.7-0.2-3.6,0.6-5-1c0-2.5-0.2-4.9,0.1-7.4
		c0.6-5.8-1.3-11.6,0-17.5C324.3,78.6,325.6,78.2,326.8,77.4z"/>
	<path class="st9" d="M307.1,107.4c1.9,0,3.8,0.1,5.7,0.1c2,0.5,4.1,1.2,6.1,1.5c3.5,0.6,6.8,1.2,8.1,5.1c-1.4-0.4-2.7-1.4-4.2-0.3
		c-7.3,5.7-14.7,4.3-22.1,0c-1.2-0.7-2.5-0.6-3.8-0.7C298.9,108.6,303.5,108.9,307.1,107.4z"/>
	<path class="st4" d="M322.9,78.5c-1.3,5.8,0.6,11.6,0,17.5c-0.2,2.4-0.1,4.9-0.1,7.4c-2.1,0.4-3.4-1.1-4.9-2
		c-2.6-4.2,0.2-8.6-0.7-13c-0.5-2.5-0.2-5.4-1.2-7.9C318.3,78.9,320.5,78.3,322.9,78.5z"/>
	<path class="st9" d="M300,76.6c-5.7-2.2-5.8-3.3-0.9-7.9c3.4,0.4,7.5-3.3,10,1.8c-0.4,4.3-4.6,4.4-7.2,6.2c-0.3,0-0.5,0-0.8-0.1
		C300.8,76.6,300.4,76.6,300,76.6z"/>
	<path class="st2" d="M317.9,101.3c1.5,0.9,2.8,2.4,4.9,2c1.4,1.6,3.3,0.8,5,1c0,2.3,0,4.6,0,6.9c0,0.9,0,1.8,0,2.7
		c-0.3,0.1-0.6,0.2-0.9,0.2c-1.3-3.9-4.6-4.6-8.1-5.1c-2.1-0.3-4.1-1-6.1-1.5C313.6,104.7,318.9,105.5,317.9,101.3z"/>
	<path class="st6" d="M306.7,87.3c1-2.2-1.2-5.7,2.6-5.7c3.4,0,3.9,3,3.7,5.8c-0.2,2.6,0.3,6-3.6,5.8
		C304.8,93,308.3,88.9,306.7,87.3z"/>
	<path class="st2" d="M307.1,107.4c-3.6,1.4-8.2,1.2-10.1,5.8c-0.3,0-0.6,0-0.9,0c-0.3-1.7-0.7-3.3-1-5c0.4-2.6,3.4-3.5,4-5.9
		C303.8,100.8,304.2,106.1,307.1,107.4z"/>
	<path class="st6" d="M301.9,76.7c2.6-1.8,6.8-1.9,7.2-6.2c2.1,0.9,3.9,2.5,3.3,4.7c-0.6,2.4-3.1,2.6-5.3,2.4
		C305.3,77.4,303.5,78,301.9,76.7z"/>
	<path class="st6" d="M300,76.6c0.4,0,0.8,0,1.2,0.1c-0.3,0.3-0.7,0.5-1,0.8C300.1,77.1,300,76.8,300,76.6z"/>
	<path class="st10" d="M287.2,138c-0.4-1.6-0.7-3.2-1.1-4.8c8.8,4.5,18.7,3.4,27.8,5.9c0,1,0,2,0.1,3
		C304.5,144.3,295.7,141.8,287.2,138z"/>
	<path class="st9" d="M288.3,85.5c-3.6,0.1-3.6-2.2-2.6-4.5c0.6-1.5,1.8-2.7,1.5-4.5l0,0c1-0.4,2.1-0.7,3.1-1.1
		C292.4,79.3,290.9,82.5,288.3,85.5z"/>
	<path class="st4" d="M281.2,93.4c0.1,1.7-0.2,3.2-2,4c-0.6-0.6-1.3-1.2-1.9-1.8c0.1-2.4,2.2-2.7,3.7-3.6
		C281.1,92.4,281.2,92.9,281.2,93.4z"/>
	<path class="st0" d="M303.1,61.8c0.3,0.3,0.6,0.5,1,0.8C303.7,62.3,303.4,62.1,303.1,61.8z"/>
	<path class="st11" d="M277.3,95.5c0.6,0.6,1.3,1.2,1.9,1.8c-0.1,3.9-2.6,8.7,4,9.9c-0.7,1.3-1.3,2.7-2,4c-2.2,0.3-3.5,1.6-3.8,3.8
		c-1.8-0.2-3,0.7-4,2c-2.1-5.2-1.4-10.5-0.2-15.8c2-0.1,2-1.5,2-3c0,0,0,0,0,0c0.1-0.1,0.4-0.2,0.4-0.2c0-0.3-0.1-0.5-0.1-0.7
		c0-0.3,0-0.5,0-0.8C275.8,95.8,276.5,95.5,277.3,95.5z"/>
	<path class="st9" d="M287.2,76.5c-0.1-0.1-0.3-0.2-0.4-0.2C286.9,76.3,287,76.4,287.2,76.5C287.2,76.5,287.2,76.5,287.2,76.5z"/>
	<path class="st11" d="M327.9,114c0-0.9,0-1.8,0-2.7c2-0.4,4-1.6,6.3,0c2-5.3,3.9-10.3,5.7-15.2c1.2,1.6,3.4,0.8,4.8,2
		c-1.9,6.4-6.1,12.1-6,19.2c-4.2,1.1-8.7,1.2-11.2,5.7c-0.9,1.6-2.6,2.5-4.6,2.3C324.6,121.4,329.3,119.1,327.9,114z"/>
	<path class="st12" d="M322.9,125.1c2,0.3,3.7-0.6,4.6-2.3c2.5-4.6,7.1-4.6,11.2-5.7c0.3,0.3,0.6,0.7,0.9,1c-0.8,2.3,0.5,4.7,0.1,7
		c-0.5,1.3-1.4,2-2.9,1.8c-1.7-2.5-3.7-2-5.9-0.8c-3.7,1.9-6,5.2-7.9,8.7c-0.1,0.3-0.2,0.6-0.2,0.9c-2.5,1.3-5.1,1.4-7.8,1.3
		c-2-5.2-6.1-7.5-11.4-7.9c-3.8-0.3-7.6,0.1-11.4-0.1c-2.9-0.1-5.1,0.8-7,3c-4.5-0.8-7-4.2-9.9-7.2c-0.6-2.6-1.2-5.2-1.8-7.8
		c1-1.3,2.2-2.2,4-2c0.3,0.4,0.5,0.8,0.8,1.2c0.1,1.9-0.3,4,0.3,5.8c0.7,2.2,2.2,4,4.9,4c2.3,0,2.9-1.7,2.9-3.7
		c0.3-0.1,0.5-0.2,0.8-0.2c2.2,2.3,4.9-0.8,7.5,0.9c3.2,2.1,7.1,2.5,10.9,2c0.5,0.1,1,0.1,1.5,0.2c1.8,1.2,3,4.9,6.1,1.7
		C316.5,127.3,319.9,127.4,322.9,125.1z"/>
	<path class="st13" d="M285.2,132c1.8-2.2,4.1-3.1,7-3c3.8,0.2,7.6-0.1,11.4,0.1c5.3,0.3,9.4,2.7,11.4,7.9c0,0.8-0.2,1.6-1,2
		c-9.2-2.5-19.1-1.4-27.8-5.9C285.8,132.8,285.5,132.4,285.2,132z"/>
	<path class="st3" d="M323,134.8c1.9-3.5,4.2-6.8,7.9-8.7c2.2-1.1,4.3-1.7,5.9,0.8c-0.1,0.8-0.2,1.5-0.3,2.3
		C332.8,132.8,327.8,133.7,323,134.8z"/>
	<path class="st8" d="M323,134.8c4.8-1.1,9.7-2,13.6-5.6c-0.7,3.9-8.9,9.5-12.6,8.5c-0.9-0.3-1-1.2-1.2-2
		C322.8,135.4,322.9,135.1,323,134.8z"/>
	<path class="st13" d="M339.8,125.2c0.4-2.3-0.9-4.6-0.1-7c1.7,0,4.3-2.2,4.1,1.9c-0.1,1.1-0.1,2.1-0.2,3.2
		C342.6,124.4,341.6,125.5,339.8,125.2z"/>
	<path class="st4" d="M275.3,98.3c0,1.4,0,2.9-2,3C272.3,99.2,273.6,98.6,275.3,98.3z"/>
	<path class="st4" d="M275.5,97.4c0.1,0.2,0.1,0.5,0.1,0.7c0,0.1-0.2,0.1-0.4,0.2C275.4,98,275.4,97.7,275.5,97.4z"/>
	<path class="st4" d="M281.2,111.3c0.7-1.3,1.3-2.7,2-4c4,0,7.8,2.5,11.9,1c0.3,1.7,0.7,3.3,1,5c0,1.6,0.1,3.3,0.1,4.9
		c-2.7-2.7-6.3-1-9.3-1.9C285,114.7,284,111.9,281.2,111.3z"/>
	<path class="st3" d="M296.2,118.2c0-1.6-0.1-3.3-0.1-4.9c0.3,0,0.6,0,0.9,0c1.3,0.1,2.5,0,3.8,0.7c7.3,4.3,14.7,5.6,22.1,0
		c1.5-1.1,2.8-0.1,4.2,0.3c0.3,0,0.6-0.1,0.9-0.2c1.4,5.1-3.2,7.5-5,11.2c-3,2.3-6.4,2.2-9.8,1.7c-1.9-1.1-3.9-1.7-6.1-1.7
		c-0.5-0.1-1-0.1-1.5-0.2c-1.7-2.2-4.5-2.4-6.6-3.8c0-1.3-0.4-2.3-1.8-2.6C296.8,118.3,296.5,118.2,296.2,118.2z"/>
	<path class="st6" d="M281.2,111.3c2.8,0.7,3.7,3.4,5.7,5c0.1,1.9,0.1,3.9,0.2,5.8c-0.3,0.1-0.6,0.1-0.8,0.2c-1-0.3-2.7,0.1-2.8-1.2
		c-0.4-3.2-3.1-3.7-5.2-4.8c-0.3-0.4-0.5-0.8-0.8-1.2C277.7,112.8,279,111.6,281.2,111.3z"/>
	<path class="st11" d="M287.1,122.1c-0.1-1.9-0.1-3.9-0.2-5.8c3,0.9,6.6-0.8,9.3,1.9c0.3,0.1,0.6,0.2,0.8,0.4c0,1.3,0.1,2.5,1.8,2.6
		c2.1,1.4,4.9,1.6,6.6,3.8c-3.8,0.5-7.7,0.1-10.9-2C292,121.3,289.3,124.4,287.1,122.1z"/>
	<path class="st0" d="M278.3,116.3c2.1,1.2,4.8,1.6,5.2,4.8c0.2,1.3,1.8,1,2.8,1.2c0,2-0.5,3.6-2.9,3.7c-2.7,0-4.2-1.8-4.9-4
		C278,120.2,278.3,118.2,278.3,116.3z"/>
	<path class="st11" d="M307,125.2c2.2,0,4.2,0.6,6.1,1.7C310,130.1,308.8,126.4,307,125.2z"/>
	<path class="st4" d="M298.9,121.2c-1.7-0.1-1.8-1.3-1.8-2.6C298.5,118.8,298.9,119.9,298.9,121.2z"/>
</g>
</svg>
