<?xml version="1.0" encoding="utf-8"?>
<!-- Generator: Adobe Illustrator 24.3.0, SVG Export Plug-In . SVG Version: 6.00 Build 0)  -->
<svg version="1.1" id="图层_1" xmlns="http://www.w3.org/2000/svg" xmlns:xlink="http://www.w3.org/1999/xlink" x="0px" y="0px"
	 viewBox="0 0 560 288" style="enable-background:new 0 0 560 288;" xml:space="preserve">
<style type="text/css">
	.st0{fill:#F7F7F8;}
	.st1{fill:#F5E6F8;}
	.st2{fill:#E1C0F8;}
	.st3{fill:#BC9AE2;}
	.st4{fill:#D0ABF8;}
	.st5{fill:#EFD7F7;}
	.st6{fill:#B48FD8;}
	.st7{fill:#C9A3F1;}
	.st8{fill:#C8A3F1;}
	.st9{fill:#CCF4F6;}
	.st10{fill:#E8E7E2;}
	.st11{fill:#F1F5E4;}
	.st12{fill:#DFD9D7;}
	.st13{fill:#D3C2DA;}
	.st14{fill:#E2F7FD;}
	.st15{fill:#DCC8E5;}
	.st16{fill:#B196B5;}
	.st17{fill:#BD9DE1;}
	.st18{fill:#EDEED2;}
	.st19{fill:#C3F7F8;}
	.st20{fill:#B5F2E4;}
	.st21{fill:#E7DDE5;}
	.st22{fill:#E8CFF1;}
	.st23{fill:#DDF8F1;}
	.st24{fill:#B1F6F7;}
	.st25{fill:#C8F5E9;}
	.st26{fill:#D4FCF5;}
	.st27{fill:#E4E7C4;}
	.st28{fill:#8AC6F5;}
	.st29{fill:#CBDFEE;}
	.st30{fill:#CBF6EB;}
	.st31{fill:#A7EEE5;}
	.st32{fill:#88BAF4;}
	.st33{fill:#7AB6F4;}
	.st34{fill:#C3E2F0;}
	.st35{fill:#9BBFCE;}
	.st36{fill:#C6ECFD;}
</style>
<g>
	<path class="st0" d="M257.6,171.7c1.4-7.7,4.1-14.6,8.9-21c4.1-5.5,8.7-10.2,14.6-13.7c0.6-0.4,0.8-1.4,1.4-1.8
		c1.2-0.8,2.6-1.5,3.9-2.2c0,0.3,0,0.7,0,1c-0.1,0.1-0.3,0.1-0.4,0.2c-0.1,0.1-0.1,0.2-0.1,0.3c0.2-0.2,0.3-0.3,0.5-0.5
		c1.3-0.3,2.6-0.7,3.9-1c0.7,0,1.3,0,2,0c1.3,0,2.6,0,4,0c0.7,2,1.3,3.9,2,5.9c-1,2-1.9,4-2.9,6c-0.1-2-1.6-2.1-3.1-2
		c-3.4,0-6.9-0.5-9.9,2c-0.5,0.5-1.3,1.1-1.3,1.6c0.2,1.5,0.8,2.9,1.3,4.3c-0.7,0-1.3,0-2,0c-3.8-1.1-5.3-0.3-7,3.1
		c-0.9,1.8-0.9,3,1.1,3.8c2,0,3.9,0,5.9,0c-0.7,0.7-1.3,1.3-2,2c-2,1.7-4,3.3-6,5c-0.6-0.3-1.3-0.7-1.9-1c-3.4-1.3-7.2,1.1-7.3,4.5
		c0,1.4-0.3,2.8-0.6,4.3c-0.3,1.7-0.7,3.4-1,5.1C260.2,175.7,258.9,173.7,257.6,171.7z"/>
	<path class="st0" d="M312,136c2,1.6,4,3.3,6,4.9c0,0.7,0,1.3,0,2c-0.6,0.7-1.6,1.3-1.8,2.2c-0.1,0.4,1,1.3,1.7,1.7
		c1,0.5,2.1,0.7,3.1,1.1c1,0.3,2,0.7,3,1c5.9,5.3,8.6,12.2,9.9,19.8c-3.2,0.2-4.4-2.2-5.7-4.4c-1.4-2.5-3.1-4.2-6.2-2.5
		c-0.7-1-1.3-2-2-3c2.3,0.3,4.2-0.3,4.8-2.8c0.3-1.5,0.4-3-1.8-3.1c0-2.1-1.5-2-3-2c-1.4,0-2.7,0-4.1,0c-1.3,0-2.6,0-3.9,0.1
		c0-0.7,0-1.3,0-2c0-1,0-2,0-3c0-1.5-0.1-2.9-2.2-2.9c-1.6,0-3.2,0-4.8-0.1c-0.3,0-0.7,0-1,0c-0.7,0-1.3,0-2,0c-0.3-1-0.7-2-1-3
		c1.1,0.2,2.2,0.7,3.3,0.6c1.1-0.1,3.1-0.6,3.2-1.2C308.1,136.7,310.6,137.1,312,136z"/>
	<path class="st1" d="M322,161.8c3.1-1.6,4.8,0,6.2,2.5c1.3,2.2,2.5,4.6,5.7,4.4c0.3,1,0.7,2,1,3c0.1,3-2.2,4.4-4,6.1
		c-1.6-0.7-3.3-1.4-4.9-2.1c-1-0.3-2-0.7-3-1c0.3-1.4,1-2.8,0.8-4.2c-0.2-2-0.6-4.6-3.8-2.7C320.7,165.8,321.3,163.8,322,161.8z"/>
	<path class="st2" d="M277.5,179.8c-2.6,1.7-3.3-1.5-5.1-2c-0.1-3.6,0-7.1,4-8.9c2-2,3.9-4,5.9-6c1.3-0.3,2.7-0.6,4-1
		c0,0.3,0,0.6,0,0.9c0.6,3.2-1.5,5.4-3.6,6.9c-3,2.2-3.1,4.3-1.5,7.1c-1.1,0-2.3-0.1-3.3,0.1C275.8,177.3,276,178.5,277.5,179.8z"/>
	<path class="st3" d="M296.2,180.6c-3.1,0.8-4.8-1.7-7-2.9c5.9-0.3,6-0.5,4.3-5.7c-0.2-0.7-0.1-1.6-0.2-2.4c2.5,1.5,4.5,0.2,6.4-1.3
		c1.1-0.9,2.2-1.8,3.3-2.6c-0.4,2-0.5,4.2-1.3,6C300.1,174.8,298.1,177.6,296.2,180.6z"/>
	<path class="st4" d="M281.3,176.7c-1.6-2.8-1.5-4.9,1.5-7.1c2-1.5,4.1-3.7,3.6-6.9c3.6-0.2,3.6,3.2,5,5c-1,2.5-4.6,3.6-4.1,7
		c-1.4,0-2.9-0.2-2.9,1.9c-0.3,0.1-0.6,0.1-0.9,0.1C282.8,176.7,282.1,176.7,281.3,176.7L281.3,176.7z"/>
	<path class="st1" d="M312,136c-1.5,1-3.9,0.7-4.4,3.4c-0.1,0.6-2,1.1-3.2,1.2c-1.1,0.1-2.2-0.4-3.3-0.6c-1-0.3-2-0.7-3-1
		c-0.7-2-1.3-3.9-2-5.9c1.3,0,2.6,0,3.9,0c0,2.2,1.6,2,3,2c1.5-0.3,3.7,0.8,4-2C309.5,132.8,311,134,312,136z"/>
	<path class="st5" d="M276.4,168.8c-3.9,1.8-4.1,5.3-4,8.9c-0.7-0.4-1.3-0.7-2-1.1c-1.3-0.6-2.6-1.3-3.8-1.9
		c-1.6-4.7,1.2-7.8,3.9-10.9c0.6,0.3,1.3,0.7,1.9,1c0,2.1-0.3,4.4,3,3.9C275.8,168.7,276.1,168.8,276.4,168.8z"/>
	<path class="st6" d="M296.2,180.6c1.9-3,3.9-5.8,5.5-9c0.9-1.8,0.9-4,1.3-6c0,0,0,0,0,0c1,1.7,2.6,3.4,2.9,5.2
		c0.3,2.2,1.5,3,3.1,3.8c0,0.6,0,1.2,0,1.9c-3.4-0.4-6.2,0.7-9,2.6C299,180,297.5,180.2,296.2,180.6z"/>
	<path class="st7" d="M309.1,176.6c0-0.6,0-1.2,0-1.9c-0.4-3.1-0.6-6.3-1.3-9.3c-0.3-1.6-0.6-2.5,1.3-2.6c1,1.3,2,2.6,3,3.8
		c0.3,3.7,0.6,7.4,0.9,11.1c-0.9,0-1.9,0-2.8,0.1C309.8,177.4,309.4,177,309.1,176.6z"/>
	<path class="st8" d="M287.3,174.7c-0.5-3.4,3.1-4.4,4.1-7c0.6,0.6,1.3,1.3,1.9,1.9c0.1,0.8,0,1.6,0.2,2.4c1.7,5.2,1.6,5.4-4.3,5.7
		c-0.6-0.4-1.3-0.7-1.9-1.1C287.3,176,287.3,175.3,287.3,174.7z"/>
	<path class="st4" d="M313,177.7c-0.3-3.7-0.6-7.4-0.9-11.1c1.3,0.7,2.6,1.4,3.8,2.2c0.7,0.7,1.3,1.3,2,2c-0.3,3-0.6,5.9-0.9,8.9
		c-1,0-1.9,0-2.9,0C313.8,179,313.4,178.4,313,177.7z"/>
	<path class="st5" d="M317.9,170.8c-0.7-0.7-1.3-1.3-2-2c0.3,0,0.7,0,1-0.1c1-0.3,2-0.6,3-1c3.2-1.9,3.6,0.7,3.8,2.7
		c0.2,1.3-0.5,2.8-0.8,4.2c-0.3,0.7-0.7,1.3-1,2c-0.3,0-0.7,0-1,0.1C321.2,174.1,321.7,171.4,317.9,170.8z"/>
	<path class="st2" d="M317.9,170.8c3.8,0.6,3.3,3.3,3,5.9c-1.3,1-2.6,2-4,3C317.3,176.7,317.6,173.8,317.9,170.8z"/>
	<path class="st9" d="M321,147.9c-1-0.3-2.2-0.6-3.1-1.1c-0.7-0.4-1.8-1.3-1.7-1.7c0.3-0.8,1.2-1.5,1.8-2.2c0.6,0,1.3,0,1.9,0
		c0.7,0.7,1.3,1.3,2,2c0,0.3,0,0.7,0,1C321.6,146.6,321.3,147.3,321,147.9z"/>
	<path class="st10" d="M257.6,171.7c1.3,2,2.6,4,4,6c0,0.3,0,0.7,0,1l0,0C256,178.5,255.4,177.4,257.6,171.7z"/>
	<path class="st11" d="M300.2,133.1c-1.3,0-2.6,0-3.9,0c-1.3,0-2.6,0-4,0c0.7-0.7,1.4-1.8,2.2-1.9c2.2-0.3,4.5-0.1,6.7-0.1
		C300.8,131.7,300.5,132.4,300.2,133.1z"/>
	<path class="st12" d="M330.8,177.8c1.8-1.7,4.1-3.1,4-6.1c0.3,0,0.7,0,1,0c0,1.7,0,3.3,0,5c-0.7,3.4-3.2,1.6-5,1.9
		C330.8,178.3,330.8,178,330.8,177.8z"/>
	<path class="st0" d="M300.2,133.1c0.3-0.7,0.7-1.3,1-2c1.5,0.2,3.7-0.8,4,1.9c-0.7,0.7-1.3,1.4-2,2.1
		C301.7,135,300.2,135.2,300.2,133.1z"/>
	<path class="st0" d="M335.8,176.7c0-1.7,0-3.3,0-5c2,0.1,3.3,1.2,2.8,3.1C338.4,175.7,336.8,176.1,335.8,176.7z"/>
	<path class="st13" d="M330.8,177.8c0,0.3,0,0.5,0,0.8c-2.5,1.2-4.4,0.3-6-1.8c0.4-0.4,0.7-0.7,1.1-1.1
		C327.6,176.4,329.2,177.1,330.8,177.8z"/>
	<path class="st4" d="M277.5,179.8c-1.5-1.3-1.6-2.4,0.5-3c1-0.3,2.2-0.1,3.3-0.1l0,0.1c-0.6,0.6-1.3,1.3-1.9,1.9
		C278.8,179,278.2,179.4,277.5,179.8z"/>
	<path class="st10" d="M266.5,178.6c-1.7,2.8-3.1,2.8-4.9,0l0,0c0.4,0,0.7,0,1.1,0C263.9,178.7,265.2,178.6,266.5,178.6z"/>
	<path class="st13" d="M266.5,178.6c-1.3,0-2.6,0-3.8,0c1.3-0.7,2.6-1.3,3.9-2l0.5,0l0.5,0C267.1,177.3,266.8,178,266.5,178.6z"/>
	<path class="st10" d="M303.2,135c0.7-0.7,1.3-1.4,2-2.1c0.7,0,1.3,0.1,2,0.1C306.9,135.9,304.7,134.8,303.2,135z"/>
	<path class="st14" d="M321,147.9c0.3-0.7,0.7-1.3,1-2c0.7,0.3,1.3,0.7,2,1c0,0.7,0,1.3,0,2C322.9,148.6,322,148.3,321,147.9z"/>
	<path class="st15" d="M325.9,175.7c-0.4,0.4-0.7,0.7-1.1,1.1c-1,0-1.9-0.1-2.9-0.1c0.3-0.7,0.7-1.3,1-2
		C323.9,175,324.9,175.3,325.9,175.7z"/>
	<path class="st16" d="M313,177.7c0.4,0.7,0.7,1.3,1.1,2c-2.5,1.7-2.5-1.5-4-1.9C311.1,177.7,312.1,177.7,313,177.7z"/>
	<path class="st17" d="M287.3,174.7c0,0.6,0,1.2,0,1.9c-1,0-1.9,0-2.9,0C284.4,174.5,285.9,174.7,287.3,174.7z"/>
	<path class="st6" d="M279.5,178.6c0.6-0.6,1.3-1.3,1.9-1.9c0.7,0,1.4,0,2.1,0C283.1,179.5,281.1,178.6,279.5,178.6z"/>
	<path class="st15" d="M267.5,176.7l-0.5,0l-0.5,0c0-0.6,0-1.3,0-1.9c1.3,0.6,2.6,1.3,3.8,1.9C269.4,176.7,268.5,176.7,267.5,176.7z
		"/>
	<path class="st11" d="M323.9,146.9c-0.7-0.3-1.3-0.7-2-1c0-0.3,0-0.7,0-1C323.2,145.1,325.2,144.4,323.9,146.9z"/>
	<path class="st10" d="M286.3,134c0-0.3,0-0.7,0-1c1.3,0,2.6,0,3.9,0C288.9,133.4,287.6,133.7,286.3,134
		C286.3,134.1,286.3,134,286.3,134z"/>
	<path class="st11" d="M319.9,143c-0.6,0-1.3,0-1.9,0c0-0.7,0-1.3,0-2C318.6,141.6,319.3,142.3,319.9,143z"/>
	<path class="st18" d="M276.4,168.8c-0.3,0-0.7,0-1,0c1-3,2-5.9,2.9-8.9c0.7-0.7,1.3-1.3,2-2c0-0.3,0-0.7,0-1c1-1.3,2-2.6,3-4
		c1.3,0.7,2.6,1.3,4,2c0.3,0,0.6,0,1,0.1c0.3,0.6,0.7,1.3,1,1.9c-0.9,0.7-1.8,1.3-2.7,2c-0.8,0.6-1.5,1.3-2.2,1.9
		c-0.7,0.7-1.3,1.3-2,2C280.4,164.8,278.4,166.8,276.4,168.8z"/>
	<path class="st1" d="M266.6,174.8c0,0.6,0,1.3,0,1.9c-1.3,0.7-2.6,1.3-3.9,2c-0.4,0-0.7,0-1.1,0c0-0.3,0-0.7,0-1
		c0.4-1.7,0.7-3.4,1-5.1c0.3-1.4,0.5-2.8,0.6-4.3c0.1-3.4,3.9-5.8,7.3-4.5C267.8,167,264.9,170.1,266.6,174.8z"/>
	<path class="st11" d="M287.3,154.9c-1.3-0.7-2.6-1.3-4-2c-0.3-0.7-0.7-1.3-1-2c-0.4-1.4-1-2.8-1.3-4.3c-0.1-0.5,0.8-1.1,1.3-1.6
		c1,0.7,1.9,1.3,2.9,2c0.6,3.3,3.3,1.5,5,2c0,0.7,0,1.4,0.1,2.1C289.3,152.3,288.3,153.6,287.3,154.9z"/>
	<path class="st19" d="M285.3,147c-1-0.7-1.9-1.3-2.9-2c2.9-2.5,6.4-2,9.9-2c0,1.3,0,2.7,0,4C289.9,146.9,287.6,147,285.3,147z"/>
	<path class="st11" d="M298.2,139c1,0.3,2,0.7,3,1c0.3,1,0.7,2,1,3c-0.7,0.3-1.3,0.7-2,1l0,0c-0.6,0.4-1.3,0.8-1.9,1.2
		c-1,0.6-2,1.2-3,1.8c0-0.7,0-1.3,0-2c0,0,0.1,0,0.1,0C296.3,143,297.2,141,298.2,139z"/>
	<path class="st1" d="M274.4,157.8c-2-0.8-2-2-1.1-3.8c1.7-3.4,3.3-4.2,7-3.1c-1.3,2-2.6,4-4,6C275.8,157.2,275.1,157.5,274.4,157.8
		z"/>
	<path class="st5" d="M276.4,156.9c1.3-2,2.6-4,4-6c0.7,0,1.3,0,2,0c0.3,0.7,0.7,1.3,1,2c-1,1.3-2,2.6-3,4
		C279.1,156.9,277.7,156.9,276.4,156.9z"/>
	<path class="st11" d="M278.4,159.8c-1,3-2,5.9-2.9,8.9c-3.3,0.5-3.1-1.8-3-3.9C274.4,163.2,276.4,161.5,278.4,159.8z"/>
	<path class="st20" d="M292.3,146.9c0-1.3,0-2.7,0-4c1.5-0.1,2.9,0,3.1,2l-0.1,0c-0.3,0.7-0.6,1.3-0.9,2l0,0
		C293.6,147,292.9,147,292.3,146.9z"/>
	<path class="st21" d="M276.4,156.9c1.3,0,2.7,0,4,0c0,0.3,0,0.7,0,1c-2,0-3.9,0-5.9,0C275.1,157.5,275.8,157.2,276.4,156.9z"/>
	<path class="st10" d="M286.3,134.1c-0.2,0.2-0.3,0.3-0.5,0.5c0-0.1,0-0.2,0.1-0.3C286,134.1,286.2,134.1,286.3,134.1L286.3,134.1z"
		/>
	<path class="st11" d="M320,167.8c-1,0.3-2,0.6-3,1c-0.6-2.6-1.3-5.3-1.9-7.9c0.7-0.7,1.3-1.3,2-2c1,0,2,0,3,0c0.7,1,1.3,2,2,3
		C321.3,163.8,320.7,165.8,320,167.8z"/>
	<path class="st22" d="M312.1,145.9c0,1,0,2,0,3c-1.3,0-2.7,0-4,0c-3.3-0.6-6.9-0.8-7.9-5l0,0c2.7,0.7,5.4,1.6,8.1,2.2
		C309.5,146.4,310.8,146,312.1,145.9z"/>
	<path class="st5" d="M312.1,145.9c-1.3,0.1-2.6,0.5-3.8,0.3c-2.7-0.6-5.4-1.4-8.1-2.2c0.7-0.3,1.3-0.7,2-1c0.7,0,1.3,0,2,0
		c0.3,0,0.7,0,1,0c1.6,0,3.2,0.1,4.8,0.1C312,143,312.1,144.4,312.1,145.9z"/>
	<path class="st23" d="M320,158.9c-1,0-2,0-3,0l0,0c0-0.6,0-1.3,0-1.9c1,0,2,0,3,0c3.3,0.4,3-1.8,2.9-4l0,0c2.2,0.1,2.1,1.6,1.8,3.1
		C324.2,158.6,322.3,159.1,320,158.9z"/>
	<path class="st24" d="M312.1,150.9c1.3,0,2.6,0,3.9-0.1c1,0.3,2,0.7,3,1c0,1,0,2,0,3c-1.3,0-2.6,0-4,0c0.3-2.3-0.7-3.2-3-3
		C312,151.6,312,151.2,312.1,150.9z"/>
	<path class="st11" d="M312.1,150.9c0,0.3,0,0.6,0,1c-0.6,0-1.3,0.1-1.9,0.1c-0.7-1-1.4-2-2-3c1.3,0,2.7,0,4,0
		C312.1,149.6,312.1,150.3,312.1,150.9z"/>
	<path class="st25" d="M319,151.9c-1-0.3-2-0.7-3-1c1.4,0,2.7,0,4.1,0c0,0.3,0,0.7,0,1C319.6,151.9,319.3,151.9,319,151.9z"/>
	<path class="st26" d="M320,151.9c0-0.3,0-0.7,0-1c1.4,0,2.9-0.1,3,2c0,0,0,0,0,0C321.9,152.6,321,152.2,320,151.9z"/>
	<path class="st11" d="M305.1,142.9c-0.3,0-0.7,0-1,0C304.5,142.9,304.8,142.9,305.1,142.9z"/>
	<path class="st27" d="M315,160.8c0.6,2.6,1.3,5.3,1.9,7.9c-0.3,0-0.7,0-1,0.1c-1.3-0.7-2.6-1.4-3.8-2.2c-1-1.3-2-2.6-3-3.8
		c-3.9-1.5-4.9-1.1-6,2.9c0,0,0,0,0,0c-1.1,0.9-2.2,1.8-3.3,2.6c-1.9,1.6-3.9,2.8-6.4,1.3c-0.6-0.6-1.3-1.3-1.9-1.9
		c-1.5-1.9-1.4-5.3-5-5c0-0.3,0-0.6,0-0.9c0.3-0.1,0.6-0.1,1-0.2c-0.2-0.3-0.3-0.7-0.5-0.7c-0.8-0.1-1.6-0.1-2.4-0.1
		c0.7-0.6,1.5-1.3,2.2-1.9c0.9-0.7,1.8-1.3,2.7-2c1,0,2,0,3,0c1,0.3,2,0.7,3,1c-0.1,0.1-0.3,0.2-0.3,0.4c0,0.1,0.1,0.4,0.2,0.4
		c2-0.2,4-0.4,6-0.6c1.3-0.8,2.6-1.5,3.9-2.3c0.4-0.3,0.7-0.6,1.1-0.9c1,0,1.9,0,2.9,0C308.7,159.2,311.7,160.2,315,160.8z"/>
	<path class="st21" d="M284.4,160.8c0.8,0,1.6,0,2.4,0.1c0.2,0,0.4,0.5,0.5,0.7c-0.3,0.1-0.6,0.1-1,0.2c-1.3,0.3-2.7,0.6-4,1
		C283,162.1,283.7,161.5,284.4,160.8z"/>
	<path class="st17" d="M303.1,165.7c1.2-3.9,2.1-4.4,6-2.9c-1.9,0.1-1.7,1-1.3,2.6c0.7,3.1,0.9,6.2,1.3,9.3
		c-1.7-0.7-2.8-1.5-3.1-3.8C305.7,169.1,304.1,167.4,303.1,165.7z"/>
	<path class="st28" d="M287.3,154.9c1-1.3,2-2.6,3-3.8c1.3-0.1,2.6-0.1,3.9-0.2c2.3,0,4.6,0,7,0.1c-0.7,1.3-1.3,2.6-2,3.9
		c-0.3,1-0.7,2-1,3c-0.7,0-1.3,0-2,0c0.2-1.9-0.4-3.1-2.6-2.9c-1.1,0.1-2.2,0-3.3,0c-0.7,0-1.3,0-2,0
		C288,154.9,287.6,154.8,287.3,154.9z"/>
	<path class="st29" d="M288.3,154.9c0.7,0,1.3,0,2,0c0.7,0.6,1.4,1.3,2,1.9c-1,0-2,0-3,0C289,156.2,288.6,155.6,288.3,154.9z"/>
	<path class="st18" d="M294.2,150.9c-1.3,0.1-2.6,0.1-3.9,0.2c0-0.7,0-1.4-0.1-2.1c1.5-0.3,3.7,0.8,4-2l0,0c0.3,0,0.7,0,1,0
		c1-0.6,2-1.2,3-1.8c0.6-0.4,1.3-0.8,1.9-1.2c1.1,4.2,4.6,4.4,7.9,5c0.7,1,1.4,2,2,3c-0.3,0.9-0.7,1.9-1,2.8l-0.1,0.1
		c-1,0-1.9,0-2.9,0c-1-1.3-2-2.7-3-4c-0.3-0.3-0.7-0.6-1-1c-2.3-1.5-4.6-1.6-6.9,0.1C294.9,150.2,294.5,150.6,294.2,150.9z"/>
	<path class="st30" d="M294.3,147c-0.3,2.8-2.5,1.7-4,2c-1.7-0.5-4.4,1.3-5-2c2.3,0,4.6,0,7,0C292.9,147,293.6,147,294.3,147z"/>
	<path class="st30" d="M295.3,147c-0.3,0-0.7,0-1,0c0.3-0.7,0.6-1.3,0.9-2C295.2,145.6,295.2,146.3,295.3,147z"/>
	<path class="st18" d="M315,160.8c-3.4-0.6-6.3-1.6-6-5.9l0.1-0.1c1.3,0,2.6,0.1,3.8,0.1c0.7,0.6,1.4,1.3,2.1,1.9
		c0.7,0.7,1.3,1.3,2,2l0,0C316.4,159.5,315.7,160.2,315,160.8z"/>
	<path class="st19" d="M320,151.9c1,0.3,2,0.7,2.9,1c0.1,2.1,0.3,4.3-2.9,4c-0.3-0.7-0.7-1.3-1-2c0-1,0-2,0-3
		C319.3,151.9,319.6,151.9,320,151.9z"/>
	<path class="st20" d="M319,154.9c0.3,0.7,0.7,1.3,1,2c-1,0-2,0-3,0c-0.7,0-1.3,0-2,0c-0.7-0.6-1.4-1.3-2.1-1.9c0.7,0,1.4,0,2.1-0.1
		C316.4,154.9,317.7,154.9,319,154.9z"/>
	<path class="st11" d="M315,156.9c0.7,0,1.3,0,2,0c0,0.6,0,1.3,0,1.9C316.4,158.2,315.7,157.5,315,156.9z"/>
	<path class="st31" d="M315,154.9c-0.7,0-1.4,0-2.1,0.1c-1.3,0-2.6-0.1-3.8-0.1c0.3-0.9,0.7-1.9,1-2.8c0.6,0,1.3-0.1,1.9-0.1
		C314.3,151.6,315.3,152.6,315,154.9z"/>
	<path class="st32" d="M303.2,150.8c1,1.3,2,2.7,3,4c-0.4,0.3-0.7,0.6-1.1,0.9c-2-0.3-3.9-0.6-5.9-0.9c0.7-1.3,1.3-2.6,2-3.9
		C301.8,150.9,302.5,150.9,303.2,150.8z"/>
	<path class="st33" d="M299.2,154.9c2,0.3,3.9,0.6,5.9,0.9c-1.3,0.8-2.6,1.5-3.9,2.3c-1-0.1-2-0.1-3-0.2
		C298.5,156.8,298.9,155.8,299.2,154.9z"/>
	<path class="st32" d="M292.3,156.8c-0.7-0.6-1.4-1.3-2-1.9c1.1,0,2.2,0.1,3.3,0c2.2-0.2,2.8,1,2.6,2.9c-0.3,0-0.6,0-1,0.1
		C294.3,157.5,293.3,157.2,292.3,156.8z"/>
	<path class="st34" d="M295.2,157.8c0.3,0,0.6,0,1-0.1c0.7,0,1.3,0,2,0c1,0.1,2,0.1,3,0.2c-2,0.2-4,0.4-6,0.6c0,0-0.2-0.3-0.2-0.4
		C295,158.1,295.1,158,295.2,157.8z"/>
	<path class="st35" d="M303.2,150.8c-0.7,0-1.4,0.1-2,0.1c-2.3,0-4.6,0-7-0.1c0.3-0.3,0.7-0.6,1-0.9c2.3,0,4.6,0,6.9-0.1
		C302.5,150.2,302.8,150.5,303.2,150.8z"/>
	<path class="st36" d="M302.1,149.9c-2.3,0-4.6,0-6.9,0.1C297.5,148.3,299.8,148.4,302.1,149.9z"/>
</g>
</svg>
