<?xml version="1.0" encoding="utf-8"?>
<!-- Generator: Adobe Illustrator 24.3.0, SVG Export Plug-In . SVG Version: 6.00 Build 0)  -->
<svg version="1.1" id="图层_1" xmlns="http://www.w3.org/2000/svg" xmlns:xlink="http://www.w3.org/1999/xlink" x="0px" y="0px"
	 viewBox="0 0 560 288" style="enable-background:new 0 0 560 288;" xml:space="preserve">
<style type="text/css">
	.st0{fill:#F5F9E9;}
	.st1{fill:#BBEA4A;}
	.st2{fill:#9DCF38;}
	.st3{fill:#D6F468;}
	.st4{fill:#C3ED5D;}
	.st5{fill:#B1E148;}
	.st6{fill:#F1F8AC;}
	.st7{fill:#EEF8B4;}
	.st8{fill:#CFF9EF;}
	.st9{fill:#EFF7DB;}
	.st10{fill:#E6F9F6;}
	.st11{fill:#A1C04A;}
	.st12{fill:#D8F489;}
	.st13{fill:#A2B73A;}
	.st14{fill:#DDEAB9;}
	.st15{fill:#B0C244;}
	.st16{fill:#9FF7D0;}
	.st17{fill:#A9F8DD;}
	.st18{fill:#D9E6B1;}
	.st19{fill:#BDF8E1;}
	.st20{fill:#8DEFC1;}
	.st21{fill:#7EE1AC;}
	.st22{fill:#89E6B8;}
	.st23{fill:#98F6CF;}
</style>
<g>
	<path class="st0" d="M252.9,167.8c-1.1,0.2-2.2,0.5-4.3,0.9c1.2-4.7,1.6-9.1,3.4-12.9c3.2-6.9,7.2-13.4,10.9-19.9
		c0.4-0.6,1.8-0.6,2.8-0.9c-0.3,2-0.6,4-1,6c0,0.6,0,1.3,0,1.9c0.2,1.2,0.5,2.4,0.7,3.7c0.8-0.5,1.5-1.1,2.3-1.6
		c2.9-2.6,5.9-5.3,8.8-7.9c0,2,0.1,4,0.1,5.9c-2.3,2.6-4.6,5.3-6.9,7.9c-1.9,2.6-3.7,5.3-5.8,7.6c-0.6,0.6-2.1,0.4-3.2,0.5
		c-0.7-2.6-1.4-5.3-2.1-7.9c-0.8,0-1.6,0-2.3,0.1C255,156.7,254,162.2,252.9,167.8z"/>
	<path class="st0" d="M319.1,143c2.3,5.3,4.6,10.6,6.9,15.9c-2.6-3-5.2-5.9-8-9.1c0,2.5,0,4.8,0,7.1c-5.5-0.4-7.2-3-5.6-8.3
		c0.2-0.8-0.2-1.8-0.3-2.7c0.3-1.9,0.6-3.9,0.9-5.8c1.6,1.2,3.1,2.3,4.7,3.4C318,143.6,318.7,143.2,319.1,143z"/>
	<path class="st1" d="M279.4,166.9c-2.5,0.8-5,1.7-7.5,2.5c-1.4,0.4-2.8,0.8-4.2,1.2c-2.4-7.6-0.7-13.2,5.1-16.8
		c1.5,1.7,3.1,3.5,4.6,5.2c0.1,0.6,0.1,1.2,0.2,1.9c-0.3,0.7-1,1.7-0.8,2.1c0.7,1.4,1.8,2.6,2.8,3.9L279.4,166.9z"/>
	<path class="st2" d="M285.4,170.9c-0.3,0-0.6-0.1-0.8-0.2c-0.3-0.9-0.7-1.9-1-2.8c1.4-0.9,3.3-1.6,4.2-2.9c2.1-2.9,3.7-6,5.6-9.1
		c1.3,2.9,3,5.1,6.7,4.6c1.1,2.1,2.2,4.2,3.4,6.3c-4-1.2-8-2.8-10.9,2C290,169.5,287.7,170.2,285.4,170.9z"/>
	<path class="st3" d="M272.8,153.8c-5.8,3.6-7.5,9.2-5.1,16.8c-3.3-1.2-6.6-2.5-9.9-3.7c0.9-2.6,1.9-5.2,2.8-7.8
		c1.1-0.2,2.7,0.1,3.2-0.5c2.1-2.4,3.9-5.1,5.8-7.6C270.7,151.9,271.7,152.8,272.8,153.8z"/>
	<path class="st4" d="M313.3,167.9c-2,0.9-4,1.8-6,2.7c0.5-2,1.2-4.1,1.6-6.1c0.6-3.4-2.3-9.9-4.8-10.7c0-0.4,0-0.7,0-1.1
		c0.5-1.2,1-2.3,1.8-4.1c3,4.4,5.6,8.3,8.2,12.2C313.8,163.2,313.5,165.6,313.3,167.9z"/>
	<path class="st5" d="M304.1,153.8c2.4,0.8,5.4,7.3,4.8,10.7c-0.4,2.1-1,4.1-1.6,6.1c-1.3-0.6-2.6-1.2-3.9-1.8c0-0.7-0.1-1.4-0.1-2
		c-1.1-2.1-2.2-4.2-3.3-6.3c0.5-1.2,1-2.4,1.5-3.6C302.3,155.9,303.2,154.9,304.1,153.8z"/>
	<path class="st6" d="M260.6,159.1c-0.9,2.6-1.9,5.2-2.8,7.8c0,0,0-0.1,0-0.1c-0.6,0.6-1.3,1.2-1.9,1.8c-1-0.3-2-0.6-3-0.9
		c1.1-5.5,2.1-11,3.2-16.5c0.8,0,1.6,0,2.3-0.1C259.1,153.8,259.8,156.5,260.6,159.1z"/>
	<path class="st7" d="M318.1,156.9c0-2.3,0-4.6,0-7.1c2.8,3.2,5.4,6.1,8,9.1c3.1,4.7,2,8.4-2.9,10.9c0,0,0,0,0,0
		C323,164.9,323.4,159.8,318.1,156.9z"/>
	<path class="st0" d="M269.6,132.1c1.1-2.7,2.8-4.1,6.1-4.5c3.2-0.4,6-3,9.2-4c1.6-0.5,3.7,0.3,5.5,0.5c-3,1.6-6,3.3-8.9,4.9
		c-0.3,0.7-0.6,1.3-1,2c-2.3,0.7-4.6,1.3-6.9,2C272.3,132.7,271,132.4,269.6,132.1z"/>
	<path class="st8" d="M319.1,143c-0.4,0.2-1.1,0.6-1.3,0.5c-1.6-1.1-3.2-2.3-4.7-3.4c-2.6-2.3-5.2-4.7-7.8-7c0-0.7,0-1.4,0-2.1
		c0-0.6,0-1.2,0.1-1.9C311.7,132,316.2,136.7,319.1,143z"/>
	<path class="st9" d="M281.5,129c3-1.6,6-3.3,8.9-4.9c0.3,0,0.7,0,1,0c0.3,0,0.7,0,1,0c2.3,0.7,4.6,1.4,6.9,2.1
		c-0.3,0.9-0.6,1.9-0.9,2.8c-0.6,0.7-1.2,1.4-1.8,2.1c0.8-3.3-2.1-2.9-3.6-3.3c-1-0.3-2.4,0.8-3.6,1.3c-0.6,0-1.3,0-1.9,0.1
		C285.5,129.1,283.5,129.1,281.5,129z"/>
	<path class="st10" d="M269.6,132.1c1.3,0.3,2.6,0.7,4,1c-3,2.7-5.9,5.3-8.9,8c0.3-2,0.6-4,1-6C267,134.1,268.3,133.1,269.6,132.1z"
		/>
	<path class="st11" d="M303.3,166.8c0,0.7,0.1,1.4,0.1,2c-3,0-5.9,0-8.9,0c-0.7,0-1.4,0-2.1-0.1C295.3,164,299.3,165.6,303.3,166.8z
		"/>
	<path class="st7" d="M298.4,129c0.3-0.9,0.6-1.9,0.9-2.8c0.7,0.3,1.3,0.6,2,0.9c1.3,1.3,2.7,2.6,4,3.9c0,0.7,0,1.4,0,2.1
		C302.9,131.7,300.7,130.4,298.4,129z"/>
	<path class="st12" d="M313.3,167.9c0.3-2.4,0.6-4.7,0.9-7.1c1.1,2,2.1,3.9,3.2,5.9c-0.4,0.4-0.8,0.8-1.2,1.1
		C315.2,167.9,314.2,167.9,313.3,167.9z"/>
	<path class="st13" d="M292.4,168.8c0.7,0,1.4,0,2.1,0.1c-2.7,2.3-5.1,6-9.1,2C287.7,170.2,290,169.5,292.4,168.8z"/>
	<path class="st14" d="M316.1,167.9c0.4-0.4,0.8-0.8,1.1-1.1c1.9,1,3.9,2,5.8,3.1c0,0,0,0,0,0C320.8,169.2,318.5,168.6,316.1,167.9z
		"/>
	<path class="st15" d="M283.5,167.9c0.3,0.9,0.7,1.9,1,2.8c-1.7-1.3-3.4-2.5-5.1-3.8c0,0,0.2-0.1,0.2-0.1
		C280.9,167.2,282.2,167.5,283.5,167.9z"/>
	<path class="st9" d="M305.3,131c-1.3-1.3-2.7-2.6-4-3.9c1.3,0.7,2.7,1.3,4,2C305.3,129.7,305.3,130.4,305.3,131z"/>
	<path class="st3" d="M255.9,168.7c0.6-0.6,1.3-1.2,1.9-1.8C257.2,167.4,256.5,168.1,255.9,168.7z"/>
	<path class="st0" d="M292.4,124.1c-0.3,0-0.7,0-1,0C291.7,124.1,292.1,124.1,292.4,124.1z"/>
	<path class="st9" d="M272.8,153.8c-1.1-0.9-2.1-1.9-3.2-2.9c2.3-2.6,4.6-5.3,6.9-7.9c0.6,0.4,1.3,0.7,1.9,1.1
		c1.5,0,3.4,0.6,4.3-0.1c1.6-1.2,2.6-3.2,3.9-4.9c0.6-0.7,1.2-1.4,1.8-2.1c0.6,0.7,1.3,1.4,1.9,2.1c0.6,0.7,1.1,1.4,1.7,2
		c0.1,0.6,0.2,1.3,0.3,1.9c-0.1,1.6-0.3,3.2-0.4,4.9c-0.5-0.5-0.9-0.9-1.4-1.4c-3.9,1.7-7.7,3.4-11.8,5.2c-0.5,2.4-0.9,4.8-1.4,7.3
		C275.9,157.3,274.4,155.5,272.8,153.8z"/>
	<path class="st8" d="M264.7,141.1c3-2.7,5.9-5.3,8.9-8c2.3-0.7,4.6-1.3,6.9-2c0,0.7,0,1.3,0.1,2c-3.1-0.3-3.2,1.8-3.1,4
		c-0.4,0-0.7,0-1.1,0c-2.9,2.6-5.9,5.3-8.8,7.9c-1-0.7-2-1.3-3-2C264.7,142.3,264.7,141.7,264.7,141.1z"/>
	<path class="st16" d="M276.5,137c0.4,0,0.7,0,1.1,0c2-0.7,4-1.3,5.9-2c1.6,4.4,3.3-1.4,5,0c0,0.6,0,1.2,0,1.9
		c-0.6,0.7-1.2,1.4-1.8,2.1c-3.1,1.1-6.9,0.9-8.2,5c-0.6-0.4-1.3-0.7-1.9-1.1C276.5,141,276.5,139,276.5,137z"/>
	<path class="st10" d="M264.7,143c1,0.7,2,1.3,3,2c-0.8,0.5-1.5,1.1-2.3,1.6C265.2,145.4,264.9,144.2,264.7,143z"/>
	<path class="st9" d="M323.1,169.8c-1.9-1-3.9-2-5.8-3.1c-1.1-2-2.1-3.9-3.2-5.9c-2.6-3.9-5.3-7.8-8.2-12.2
		c-0.8,1.8-1.3,2.9-1.8,4.1c-1.9-2.5-3.8-5.1-5.6-7.6c0,0-0.1-0.2-0.1-0.2c0.4-0.6,0.7-1.1,1.1-1.7c0.6-2.1,1.3-4.1,1.9-6.2
		c0.6,0,1.3,0,1.9,0l0,0c2.7,2.6,5.3,5.2,8,7.8c0.3,0.3,0.6,0.6,0.9,1c0.1,0.9,0.6,1.9,0.3,2.7c-1.6,5.3,0.1,7.9,5.6,8.3
		C323.4,159.8,323,164.9,323.1,169.8z"/>
	<path class="st17" d="M312.1,145.9c-0.3-0.3-0.6-0.6-0.9-1c-1.7-3.6-2.6-8-8-7.8c0,0,0,0,0,0c-1.3-0.7-2.6-1.4-3.9-2
		c-1-0.7-2-1.3-2.9-2c0.1-0.6,0.1-1.3,0.2-1.9c0.6-0.7,1.2-1.4,1.8-2.1c2.3,1.3,4.6,2.7,6.9,4c2.6,2.3,5.2,4.7,7.8,7
		C312.8,142,312.4,143.9,312.1,145.9z"/>
	<path class="st14" d="M298.4,145.1c1.9,2.5,3.8,5.1,5.6,7.6c0,0.4,0,0.7,0,1.1c-0.9,1.1-1.7,2.1-2.6,3.2c-2.2-2.1-4.4-4.1-7.4-6.9
		c-0.3,2.5-0.5,3.7-0.6,4.9c-1.6-1.8-3.3-3.6-5-5.4c-1.1,1.6-1.8,3.4-3.1,4.6c-2.4,2.4-5.1,4.5-7.7,6.8c-0.1-0.6-0.1-1.2-0.2-1.9
		c0.5-2.4,0.9-4.9,1.4-7.3c4-1.8,7.9-3.5,11.8-5.2c0.5,0.5,0.9,0.9,1.4,1.4c0.1-1.6,0.3-3.2,0.4-4.9
		C294.4,143.7,296.4,144.4,298.4,145.1z"/>
	<path class="st5" d="M277.6,160.9c2.6-2.2,5.3-4.4,7.7-6.8c1.2-1.2,2-2.9,3.1-4.6c1.7,1.9,3.3,3.7,5,5.4c0,0.3,0,0.6-0.1,1
		c-1.8,3-3.5,6.2-5.6,9.1c-1,1.3-2.8,1.9-4.2,2.9c-1.3-0.4-2.6-0.7-3.9-1.1c-1-1.3-2.1-2.5-2.8-3.9
		C276.6,162.5,277.3,161.6,277.6,160.9z"/>
	<path class="st18" d="M293.3,155.9c0.1-0.3,0.1-0.6,0.1-1c0.2-1.2,0.3-2.4,0.6-4.9c3,2.8,5.2,4.9,7.4,6.9c-0.5,1.2-1,2.4-1.5,3.6
		C296.3,161.1,294.6,158.8,293.3,155.9z"/>
	<path class="st7" d="M280.6,133c0-0.7,0-1.3-0.1-2c0.3-0.7,0.6-1.3,1-2c2,0,4,0,6,0c0,0.6,0,1.2-0.1,1.8c-1.3,0.8-2.6,1.5-3.9,2.3
		C282.5,133.2,281.6,133.1,280.6,133z"/>
	<path class="st6" d="M296.6,131.1c-0.1,0.6-0.1,1.3-0.2,1.9c-2-0.7-3.9-1.4-5.9-2.1c-0.4-0.7-0.7-1.3-1.1-2
		c1.2-0.5,2.6-1.6,3.6-1.3C294.4,128.3,297.4,127.8,296.6,131.1z"/>
	<path class="st19" d="M289.3,129c0.4,0.7,0.7,1.3,1.1,2c-0.7,0.7-1.4,1.4-2,2.1c-0.3-0.7-0.7-1.4-1-2.1c0-0.6,0-1.2,0.1-1.8
		C288.1,129.1,288.7,129,289.3,129z"/>
	<path class="st20" d="M301.3,137c-0.6,2.1-1.3,4.1-1.9,6.2c0.6-3-0.6-3.5-3.1-2.2c-0.3,0-0.7,0-1,0c-0.3,0-0.6,0-1,0
		c-0.3,0-0.7,0-1,0c-0.7-1.2-1.4-2.3-2.1-3.5c-0.3,0.5-0.6,1-0.9,1.6c-0.6-0.7-1.3-1.4-1.9-2.1c0-0.6,0-1.3,0-1.9
		c0.3-0.3,0.7-0.7,1-1c2.3,0.3,4.6,0.6,6.9,1C298,135.7,299.7,136.4,301.3,137z"/>
	<path class="st20" d="M278.5,144.1c1.3-4.1,5.1-4,8.2-5c-1.3,1.7-2.3,3.7-3.9,4.9C281.8,144.7,279.9,144.1,278.5,144.1z"/>
	<path class="st21" d="M293.4,141c0.3,0,0.7,0,1,0c0.3,0,0.6,0,1,0c0.3,0,0.7,0,1,0c0.7,1.3,1.3,2.6,2,3.9c0,0,0.1,0.2,0.1,0.2
		c-2-0.7-4-1.4-6-2.2c-0.1-0.6-0.2-1.3-0.3-1.9C292.5,141,293,141,293.4,141z"/>
	<path class="st22" d="M293.4,141c-0.4,0-0.9,0.1-1.3,0.1c-0.6-0.7-1.1-1.4-1.7-2c0.3-0.5,0.6-1,0.9-1.6
		C292,138.6,292.7,139.8,293.4,141z"/>
	<path class="st19" d="M280.6,133c1,0.1,1.9,0.1,2.9,0.2c0,0.6,0,1.2,0,1.8c-2,0.7-4,1.3-5.9,2C277.4,134.8,277.5,132.7,280.6,133z"
		/>
	<path class="st17" d="M283.5,135c0-0.6,0-1.2,0-1.8c1.3-0.8,2.6-1.5,3.9-2.3c0.3,0.7,0.7,1.4,1,2.1c0.3,0.3,0.7,0.7,1,1
		c-0.3,0.3-0.7,0.7-1,1C286.8,133.7,285.1,139.4,283.5,135z"/>
	<path class="st16" d="M303.2,137.1c5.3-0.1,6.3,4.3,8,7.8C308.6,142.3,305.9,139.7,303.2,137.1z"/>
	<path class="st23" d="M301.3,137c-1.7-0.7-3.3-1.3-5-2c1,0,2,0,3,0c1.3,0.7,2.6,1.4,3.9,2C302.6,137.1,302,137.1,301.3,137z"/>
	<path class="st22" d="M298.3,144.9c-0.7-1.3-1.3-2.6-2-3.9c2.5-1.3,3.6-0.7,3.1,2.2C299.1,143.8,298.7,144.3,298.3,144.9z"/>
	<path class="st16" d="M299.3,135c-1,0-2,0-3,0c-2.3-0.3-4.6-0.6-6.9-1c-0.3-0.3-0.7-0.7-1-1c0.7-0.7,1.4-1.4,2-2.1
		c2,0.7,3.9,1.4,5.9,2.1C297.4,133.7,298.3,134.4,299.3,135z"/>
	<path class="st22" d="M295.3,141c-0.3,0-0.6,0-1,0C294.7,141,295,141,295.3,141z"/>
</g>
</svg>
