<?xml version="1.0" encoding="utf-8"?>
<!-- Generator: Adobe Illustrator 24.3.0, SVG Export Plug-In . SVG Version: 6.00 Build 0)  -->
<svg version="1.1" id="图层_1" xmlns="http://www.w3.org/2000/svg" xmlns:xlink="http://www.w3.org/1999/xlink" x="0px" y="0px"
	 viewBox="0 0 560 288" style="enable-background:new 0 0 560 288;" xml:space="preserve">
<style type="text/css">
	.st0{fill:#F7F5E2;}
	.st1{fill:#F7F9F1;}
	.st2{fill:#F7E6BC;}
	.st3{fill:#F6A774;}
	.st4{fill:#EEA26E;}
	.st5{fill:#F6AF91;}
	.st6{fill:#F6F5E8;}
	.st7{fill:#F8F0D1;}
	.st8{fill:#F8EAD5;}
	.st9{fill:#F8E5C2;}
	.st10{fill:#F6AE86;}
	.st11{fill:#F9FAFB;}
	.st12{fill:#F6B68D;}
	.st13{fill:#F0E493;}
	.st14{fill:#F79770;}
	.st15{fill:#E5A16D;}
	.st16{fill:#F5F3E7;}
	.st17{fill:#E4E3D7;}
	.st18{fill:#EEDFCE;}
	.st19{fill:#F4ECDD;}
	.st20{fill:#F6F4EC;}
	.st21{fill:#D2CCC2;}
	.st22{fill:#F3EDA2;}
	.st23{fill:#ECE9E3;}
	.st24{fill:#DCBC86;}
	.st25{fill:#EFE6D5;}
	.st26{fill:#EB9777;}
	.st27{fill:#ECEAE4;}
	.st28{fill:#DD9A60;}
	.st29{fill:#F0ECE0;}
	.st30{fill:#EFEBE1;}
	.st31{fill:#EEEBE3;}
	.st32{fill:#F4F2E1;}
	.st33{fill:#F4F1E4;}
	.st34{fill:#EDC9BB;}
	.st35{fill:#E8E3D3;}
	.st36{fill:#E2D7D8;}
	.st37{fill:#E4DBD5;}
	.st38{fill:#E6DFD3;}
	.st39{fill:#F7F5E7;}
	.st40{fill:#E8E6D2;}
	.st41{fill:#D8CECC;}
	.st42{fill:#D1D6C9;}
	.st43{fill:#E1E0D5;}
	.st44{fill:#E5E0DD;}
	.st45{fill:#E3DBD4;}
	.st46{fill:#DEDACA;}
	.st47{fill:#D9DCD9;}
	.st48{fill:#BC5C43;}
	.st49{fill:#F0E3A5;}
	.st50{fill:#F8E2C7;}
	.st51{fill:#F8DAB9;}
	.st52{fill:#F9F5EF;}
	.st53{fill:#F7E4C3;}
	.st54{fill:#FBF5E4;}
	.st55{fill:#F9F7DF;}
	.st56{fill:#F7F5E3;}
	.st57{fill:#F7D5A6;}
	.st58{fill:#F7CD9A;}
	.st59{fill:#F7BF8D;}
	.st60{fill:#F79870;}
	.st61{fill:#F7B07C;}
	.st62{fill:#F98F6A;}
	.st63{fill:#F8B982;}
	.st64{fill:#F7B798;}
	.st65{fill:#F7A881;}
	.st66{fill:#F7C7A2;}
	.st67{fill:#F9C3A2;}
	.st68{fill:#F9D1B1;}
	.st69{fill:#F7B691;}
	.st70{fill:#F89F77;}
	.st71{fill:#FEFDD1;}
	.st72{fill:#F7C09B;}
	.st73{fill:#F7A580;}
	.st74{fill:#F7B891;}
	.st75{fill:#FABA9A;}
	.st76{fill:#F7AF8B;}
</style>
<g>
	<path class="st0" d="M327.2,141.9c0,0.7,0,1.3,0,2c0,0.7,0,1.3,0,2c0.3,0.7,0.7,1.3,1,2c0.3,0.7,0.7,1.3,1,2c0.3,0.7,0.6,1.3,1,2
		c-1.6,1.3-3.3,2.6-4.9,3.9c-0.3,0.6-0.7,1.3-1,1.9c-1-1.3-2-2.6-2.9-3.9c0.1-1.8,0.2-3.6,0.3-5.4c-0.7,0-1.4,0.1-2.1,0.1
		c0.3,1.8,0.6,3.5,0.9,5.3c-0.7,0-1.3,0-2,0c-1.5-3.8-1.6-7.5,1-10.8c3.3-4.1,1.9-7.6-1-11c-0.7-1.3-1.3-2.7-2-4c-1.6-2-3.3-4-4.9-6
		c0.6-1,1.3-2,1.9-3c0,0.4,0,0.7,0,1.1c0.3,0,0.6,0,1,0c0.3,0.6,0.7,1.3,1,1.9c0.7,0.7,1.3,1.4,2,2c0,0,0,0,0,0c0.3,0.3,0.6,0.7,1,1
		c0,0.4,0,0.7,0,1.1c0.3,0.3,0.6,0.6,0.9,1c1.3,2.3,2.7,4.7,4,7c0,0.3,0,0.7,0,1c0.3,0.3,0.7,0.7,1,1c0.3,0,0.6,0,0.9,0
		c0.3,0.7,0.7,1.3,1,2c-0.1,0.1-0.4,0.2-0.4,0.3c0.1,0.2,0.3,0.4,0.4,0.7c0,0.3,0,0.7,0,1C326.6,140.6,326.9,141.2,327.2,141.9z"/>
	<path class="st1" d="M271.8,117c0.6,0.2,1.2,0.5,1.7,0.7c-0.1-0.6-0.3-1.1-0.2-1.7c0.1-0.7,0.3-1.3,0.5-2c0.3,0,0.6,0,1,0
		c0.7-0.7,1.3-1.3,2-2c1,3.1,2,1.6,2.9,0c0.3,0,0.7,0,1,0c2.6-0.7,5.2-1.3,7.9-2c0.7,0,1.4,0,2,0c1.3,0.3,2.6,0.7,3.9,1
		c-3.3,1.7-6.6,3.3-9.9,5c-0.3,0-0.6,0-1,0c-1.4,1.7-8.4-3.9-5,3.9l0,0c-2.3,2-4.6,4-6.9,6c-3.8,0.2-5.1,2.5-5,6c0,0,0,0,0,0
		c-0.7,0.7-1.3,1.3-2,2c-0.7,0.7-1.3,1.3-2,2c-0.3-0.7-0.7-1.3-1-2c-0.3-1.3-0.7-2.7-1-4c0.7-2,1.3-4,2-6c0,0,0,0,0,0
		c0.7-0.7,1.3-1.3,2-2c0.6-0.7,1.3-1.3,1.9-2c0.7-0.7,1.3-1.3,2-2c0,0,0,0,0,0C269.8,117.7,270.8,117.4,271.8,117z"/>
	<path class="st2" d="M265.9,155.8c-1.6-0.3-3.2-0.6-4.9-0.9c0-0.4-0.1-0.8-0.1-1.1c-1-7.5,3.7-13.3,5.9-19.8
		c3.6-3.3,7.3-6.6,10.9-9.9c0.3,0,0.7,0,1,0c0.9,1.6,2.7,3.3-0.8,4.2c-0.5,0.1-0.8,1.2-1.2,1.8c-0.7,0.7-1.3,1.3-2,2
		c-1.3,1.3-2.6,2.7-3.9,4C265.5,141.6,265.5,148.7,265.9,155.8z"/>
	<path class="st3" d="M304.5,154.7c-1.1-0.3-2.1-0.5-3.2-0.8c0.4,0,0.8-0.1,1.2-0.1c0.2,0.2,0.3,0.4,0.5,0.5c0-0.1,0-0.3-0.1-0.3
		c-0.1-0.1-0.3-0.2-0.4-0.2c-0.3-0.7-0.7-1.3-1-2c-0.3-2.1-0.4-4.3-1.1-6.2c-0.5-1.5-1.8-2.7-2.8-4c-1.3,1.2-2.9,2.2-4,3.7
		c-1.6,2.1-2.8,4.4-4.1,6.6c0-2.6,0-5.3,0-7.9c0-0.7,0-1.3,0-2c4.1,0.1,4.8-3.1,5.9-6c3,2.6,5.9,5.3,8.9,7.9c0.3,2.7,0.7,5.3,1,8
		C305.2,152.8,304.8,153.8,304.5,154.7z"/>
	<path class="st4" d="M289.6,151.8c1.3-2.2,2.5-4.5,4.1-6.6c1.1-1.4,2.6-2.5,4-3.7c0.9,1.3,2.2,2.6,2.8,4c0.7,2,0.7,4.1,1.1,6.2
		c-1-0.6-2-1.1-2.9-1.8c-0.5-0.4-0.9-1.1-1.3-1.7c-0.5,0.7-1.2,1.4-1.6,2.2c-0.8,1.7-1.4,3.5-2.1,5.3c-1,0.7-2,1.3-3,2
		c-1.3,0-2.7,0-4,0.1c-0.6-0.3-1.3-0.7-1.9-1c0-0.3,0-0.7,0-1l0.1-0.1C288.4,156.9,289.2,154.6,289.6,151.8z"/>
	<path class="st5" d="M277.7,155.8c-0.3,0-0.7,0-1-0.1c-0.7-0.3-1.3-0.6-2-0.9c-0.2-6.5,4.5-10.4,7.9-14.9c0.3,3,0.7,6,1,9
		c-0.4,1.7-0.7,3.4-1.1,5C281,154.5,279.4,155.2,277.7,155.8z"/>
	<path class="st6" d="M261.9,133.9c0.3,0.7,0.7,1.3,1,2c-0.5,1.5-0.9,2.9-1.5,4.4c-1.1,2.8-2.3,5.5-3.5,8.2c-0.9,2.1-2,4.2-3,6.3
		c-1.6-1-3.3-2-4.9-3c0.7-2,1.3-4,2-6c0.1,1.3,0.2,2.6,0.3,5.3c1.2-3.3,1.9-5.3,2.7-7.3c4.9-0.5,3-6,5.9-8c0-0.3,0-0.7,0-1
		c0-0.3,0-0.7,0-1l0.5,0L261.9,133.9z"/>
	<path class="st7" d="M255,154.8c1-2.1,2-4.2,3-6.3c1.2-2.7,2.4-5.5,3.5-8.2c0.6-1.4,1-2.9,1.5-4.4c0.7-0.7,1.3-1.3,2-2
		c0.7,0,1.3,0,2,0l0,0c-2.3,6.5-7,12.3-5.9,19.8c-0.7,0.3-1.4,0.7-2,1c-1.3,0.7-2.6,1.3-3.9,2c0-0.3,0-0.7,0-1
		C255,155.5,255,155.1,255,154.8z"/>
	<path class="st8" d="M313.4,119c-0.6,1-1.3,2-1.9,3c-0.7,0.7-1.3,1.4-2,2c-2-1.3-4-2.7-5.9-4c-1-2-2-4-3-5.9c0.7-0.3,1.3-0.7,2-1
		c0-0.3,0-0.6,0-1c2.3,1.3,4.6,2.6,6.9,3.9c0.3,2.9,0.3,2.9,2,2C312.1,118.4,312.7,118.7,313.4,119z"/>
	<path class="st9" d="M318.3,132c2.9,3.4,4.3,6.9,1,11c-2.6,3.3-2.4,7-1,10.8c0,0.4,0,0.7,0,1.1c-0.9-0.3-1.9-0.7-2.8-1
		c-0.4,0-0.7,0-1.1,0c0.7-4,1.3-7.9,2-11.9c0.7-2.3,1.3-4.6,2-6.9C318.3,133.9,318.3,133,318.3,132z"/>
	<path class="st10" d="M270.8,157.8c-1.3-0.6-2.7-1.3-4-1.9c0-1.7-0.3-3.7,0.2-5.2c1.3-3.7,3.1-7.2,4.8-10.8c0,4.6,0,9.3,0,13.9
		C271.4,155.1,271.1,156.5,270.8,157.8z"/>
	<path class="st11" d="M261.9,133.9l-0.5,0c0,0-0.5,0-0.5,0c-0.4,0.2-0.9,0.3-1.3,0.5c0.4,0.2,0.9,0.3,1.3,0.5c0,0.3,0,0.7,0,1
		c-1,0.6-2.3,1-2.9,1.9c-1.2,1.9-2.1,4-3.1,6.1c-0.7,2-1.5,4-2.7,7.3c-0.2-2.6-0.2-4-0.3-5.3c0,0,0,0,0,0c0.3-1.3,0.7-2.7,1-4
		c0,0,0,0,0,0c1-2.3,2-4.6,3-7c0-0.3,0-0.6,0-1c1.6-1.3,3.3-2.7,4.9-4C261.2,131.3,261.6,132.6,261.9,133.9z"/>
	<path class="st12" d="M271.8,139.9c-1.6,3.6-3.4,7.1-4.8,10.8c-0.6,1.6-0.2,3.5-0.2,5.2c-0.3,0-0.6-0.1-0.9-0.1
		c-0.3-7.1-0.4-14.2,5-19.9c1,0,2,0,3,0c0.3,0.3,0.7,0.7,1,1C273.8,137.9,272.8,138.9,271.8,139.9z"/>
	<path class="st13" d="M304.5,154.7c0.3-1,0.7-1.9,1-2.9c1.6-1,3.3-2,4.9-3c0.7,0.3,1.3,0.6,2,1c0.3,1.3,0.7,2.7,1,4l0,0
		c-0.7,0-1.3,0-2,0c-0.1-0.1-0.3-0.2-0.4-0.2c0.1,0.1,0.3,0.2,0.4,0.2c-0.7,1-1.3,2-2,3.1c-0.7,0-1.3-0.1-2-0.1l0,0
		C306.5,156.1,305.5,155.4,304.5,154.7z"/>
	<path class="st14" d="M282.6,153.9c0.4-1.7,0.7-3.4,1.1-5c0.3-2.3,0.7-4.6,1-7c1.6-1.6,3.3-1.6,4.9,0l0,0c0,0.7,0,1.3,0,2
		c-1.9,1-4.9,8.4-4.9,11.8c0,0-0.1,0.1-0.1,0.1c-0.3,0-0.7,0-1,0.1c-0.3-0.1-0.6-0.2-0.9-0.2C282.7,155.1,282.7,154.5,282.6,153.9z"
		/>
	<path class="st15" d="M293.6,155.8c0.7-1.8,1.3-3.6,2.1-5.3c0.4-0.8,1.1-1.5,1.6-2.2c0.4,0.6,0.7,1.3,1.3,1.7
		c0.9,0.7,2,1.2,2.9,1.8c0.3,0.7,0.7,1.3,1,2l0,0c-0.4,0-0.8,0.1-1.2,0.1c-2.2,1-4.4,1.9-6.6,2.9C294.3,156.5,294,156.2,293.6,155.8
		z"/>
	<path class="st16" d="M260.9,129.9c-1.6,1.3-3.3,2.7-4.9,4c2.3-3.3,4.6-6.6,6.9-10C262.2,126,261.6,128,260.9,129.9z"/>
	<path class="st17" d="M255,154.8c0,0.3,0,0.6,0,1c-2.8,0.2-5.6,0.3-4.9-4C251.7,152.8,253.3,153.8,255,154.8z"/>
	<path class="st18" d="M318.3,154.9c0-0.4,0-0.7,0-1.1c0.7,0,1.3,0,2,0c0.3,0,0.6,0,1,0c1,1.3,2,2.6,2.9,3.9
		C322.3,156.8,320.3,155.8,318.3,154.9z"/>
	<path class="st1" d="M302.5,113.1c-0.7,0.3-1.3,0.7-2,1c-0.7,0-1.3,0-2,0c-0.7-0.7-1.3-1.3-2-2c0.4-0.2,0.9-0.3,1.3-0.5
		c-0.4-0.2-0.9-0.3-1.3-0.5l0,0c0-0.3,0-0.6,0-1c1.3,0.7,2.7,1.3,4,2C301.2,112.4,301.8,112.8,302.5,113.1z"/>
	<path class="st19" d="M282.6,153.9c0,0.6,0.1,1.2,0.1,1.7c-1.7,0-3.4,0.1-5,0.1C279.4,155.2,281,154.5,282.6,153.9z"/>
	<path class="st20" d="M256,134.9c-1,2.3-2,4.6-3,7C254,139.6,255,137.2,256,134.9z"/>
	<path class="st21" d="M325.3,155.8c1.6-1.3,3.3-2.6,4.9-3.9c0,0,0,0,0,0c0,0.7,0,1.3,0,2C328.6,154.5,326.9,155.1,325.3,155.8z"/>
	<path class="st22" d="M309.4,156.9c0.7-1,1.3-2,2-3.1l0,0c0.7,0,1.3,0,2,0c0.3,0.3,0.7,0.7,1,1
		C312.8,155.5,311.1,156.2,309.4,156.9z"/>
	<path class="st23" d="M288.6,110.1c-2.6,0.7-5.2,1.3-7.9,2C283.4,111.4,286,110.8,288.6,110.1z"/>
	<path class="st24" d="M286.6,157.8c1.3,0,2.7,0,4-0.1c0.6,0.3,1.2,0.6,1.8,0.9C290.5,158.4,288.6,158.1,286.6,157.8z"/>
	<path class="st25" d="M255,156.8c1.3-0.7,2.6-1.3,3.9-2c0.4,0.4,0.7,0.7,1.1,1.1C258.3,156.2,256.6,156.5,255,156.8z"/>
	<path class="st26" d="M270.8,157.8c0.3-1.3,0.6-2.6,1-4c0,0,0,0,0,0c0.3,0.3,0.7,0.7,1,1c0.3,0.9,0.7,1.9,1,2.8c-0.3,0-0.7,0-1,0
		c-0.3,0-0.6,0-0.9,0C271.5,157.7,271.1,157.8,270.8,157.8z"/>
	<path class="st0" d="M311.4,118c-1.7,0.9-1.7,0.9-2-2c0.7-0.1,1.4-0.1,2.1-0.2C311.5,116.6,311.5,117.3,311.4,118z"/>
	<path class="st10" d="M273.8,157.7c-0.3-0.9-0.7-1.9-1-2.8c0.3,0,0.7,0,1,0c0.3,0,0.6,0,1,0c0.7,0.3,1.3,0.6,2,0.9
		C275.7,156.3,274.8,157,273.8,157.7z"/>
	<path class="st27" d="M296.5,110.1c0,0.3,0,0.6,0,1c-0.7,0-1.3,0-2,0c-1.3-0.3-2.6-0.7-3.9-1C292.6,110.1,294.6,110.1,296.5,110.1z
		"/>
	<path class="st28" d="M292.5,158.7c-0.6-0.3-1.2-0.6-1.8-0.9c1-0.7,2-1.3,3-2c0.4,0.3,0.7,0.7,1.1,1
		C294,157.5,293.2,158.1,292.5,158.7z"/>
	<path class="st29" d="M279.7,112.1c-1,1.5-2,3.1-2.9,0C277.7,112.1,278.7,112.1,279.7,112.1z"/>
	<path class="st30" d="M271.8,117c-1,0.3-2,0.7-3,1C269.8,117.7,270.8,117.4,271.8,117z"/>
	<path class="st31" d="M253,141.9c-0.3,1.3-0.7,2.7-1,4C252.3,144.5,252.7,143.2,253,141.9z"/>
	<path class="st32" d="M268.8,118c-0.7,0.7-1.3,1.3-2,2C267.5,119.4,268.2,118.7,268.8,118z"/>
	<path class="st33" d="M264.9,122c-0.7,0.7-1.3,1.3-2,2C263.5,123.3,264.2,122.7,264.9,122z"/>
	<path class="st34" d="M260,155.8c-0.4-0.4-0.7-0.7-1.1-1.1c0.7-0.3,1.4-0.7,2-1c0,0.4,0.1,0.8,0.1,1.1
		C260.6,155.2,260.3,155.5,260,155.8z"/>
	<path class="st35" d="M317.4,124c-0.7-0.7-1.3-1.4-2-2C316,122.6,316.7,123.3,317.4,124z"/>
	<path class="st36" d="M302.5,113.1c-0.6-0.3-1.3-0.7-1.9-1c0.6,0,1.3,0,1.9,0C302.5,112.4,302.5,112.8,302.5,113.1z"/>
	<path class="st37" d="M327.3,145.9c0-0.7,0-1.3,0-2C327.3,144.5,327.3,145.2,327.3,145.9z"/>
	<path class="st38" d="M329.3,149.8c-0.3-0.7-0.7-1.3-1-2C328.6,148.5,328.9,149.2,329.3,149.8z"/>
	<path class="st39" d="M331.2,151.8c0.1-0.4,0.2-0.9,0.4-1.3C331.5,151,331.3,151.4,331.2,151.8
		C331.2,151.8,331.2,151.8,331.2,151.8z"/>
	<path class="st40" d="M327.2,141.9c-0.3-0.7-0.6-1.3-1-2C326.6,140.6,326.9,141.2,327.2,141.9z"/>
	<path class="st0" d="M330.2,153.8c0-0.7,0-1.3,0-2c0.3,0,0.7,0,1,0c0,0,0,0,0,0C330.9,152.5,330.6,153.2,330.2,153.8z"/>
	<path class="st13" d="M314.4,154.8c-0.3-0.3-0.7-0.7-1-1c0,0,0,0,0,0c0.3,0,0.7,0,1,0c0.4,0,0.7,0,1.1,0
		C315.1,154.2,314.8,154.5,314.4,154.8z"/>
	<path class="st41" d="M325.2,136c-0.3,0-0.6,0-0.9,0C324.6,135.9,324.9,135.9,325.2,136z"/>
	<path class="st42" d="M314.4,120c-0.3,0-0.6,0-1,0C313.7,120,314,120,314.4,120z"/>
	<path class="st43" d="M318.3,125c-0.3-0.3-0.6-0.7-1-1C317.7,124.3,318,124.6,318.3,125z"/>
	<path class="st44" d="M274.8,114.1c-0.3,0-0.6,0-1,0C274.1,114.1,274.4,114.1,274.8,114.1z"/>
	<path class="st45" d="M319.3,127c-0.3-0.3-0.6-0.6-0.9-1C318.7,126.3,319,126.7,319.3,127z"/>
	<path class="st46" d="M326.3,138.9c-0.1-0.2-0.3-0.4-0.4-0.7c0,0,0.2-0.2,0.4-0.3C326.3,138.3,326.3,138.6,326.3,138.9z"/>
	<path class="st47" d="M323.3,134.9c0-0.3,0-0.7,0-1C323.3,134.3,323.3,134.6,323.3,134.9z"/>
	<path class="st19" d="M283.7,155.9c0.3,0,0.7,0,1-0.1c0,0.3,0,0.7,0,1C284.3,156.5,284,156.2,283.7,155.9z"/>
	<path class="st48" d="M271.8,157.7c0.3,0,0.6,0,0.9,0c0,0-0.4,0.1-0.4,0.1L271.8,157.7z"/>
	<path class="st49" d="M307.4,156.8c-0.1,0.2-0.3,0.3-0.4,0.5c0-0.1,0-0.2,0.1-0.3C307.2,156.9,307.4,156.8,307.4,156.8
		C307.5,156.8,307.4,156.8,307.4,156.8z"/>
	<path class="st50" d="M309.4,124c0.7-0.7,1.3-1.3,2-2c1.6,2,3.3,4,4.9,6c-0.9-0.4-1.8-0.7-2.1-0.8c-0.6,2.2-1.2,4.5-1.9,6.8
		c-0.3-1.3-0.7-2.7-1-4C310.8,128,310.1,126,309.4,124z"/>
	<path class="st51" d="M312.4,133.9c0.6-2.3,1.3-4.6,1.9-6.8c0.3,0.1,1.2,0.5,2.1,0.8c0.7,1.3,1.3,2.7,2,4c0,1,0,2,0,3
		c-1-0.9-2-1.8-2.5-2.3c-0.5,0.7-1.3,1.9-2.1,3.1C313.3,135.1,312.8,134.5,312.4,133.9z"/>
	<path class="st52" d="M321.3,153.8c-0.3,0-0.6,0-1,0c-0.3-1.8-0.6-3.5-0.9-5.3c0.7,0,1.4-0.1,2.1-0.1
		C321.5,150.2,321.4,152,321.3,153.8z"/>
	<path class="st53" d="M298.5,114c0.7,0,1.3,0,2,0c1,2,2,4,3,5.9c-1.2,0.2-2.8,0.1-3.7,0.8c-2.3,1.8-2.8,1-3.4-1.4
		c-0.4-1.3-2.1-2.2-3.2-3.3c-0.9,1.3-1.7,2.6-2.6,3.9c0,0.3,0,0.6,0,1c-1.1,0.3-2.6,1.2-3.2,0.8c-3.8-2.5-6.2,0-8.7,2.2
		c-0.3,0-0.7,0-1,0c0.3-1.3,0.7-2.6,1-4c0,0,0,0,0,0c1.7-1.3,3.3-2.6,5-3.9c0.3,0,0.6,0,1,0c1.2,0.2,3.1,0.9,3.4,0.5
		C291,112.7,295,114.5,298.5,114z"/>
	<path class="st7" d="M278.7,120c-0.3,1.3-0.7,2.6-1,4c-3.6,3.3-7.3,6.6-10.9,9.9c0,0,0,0,0,0c0-0.7,0-1.3,0-2c0,0,0,0,0,0
		c1.7-2,3.3-4,5-6C274.1,124,276.4,122,278.7,120z"/>
	<path class="st54" d="M298.5,114c-3.5,0.4-7.6-1.3-10.4,2.5c-0.3,0.4-2.2-0.3-3.4-0.5c3.3-1.7,6.6-3.3,9.9-5c0.7,0,1.3,0,2,0
		c0,0,0,0,0,0c0,0.3,0,0.7,0,1C297.2,112.7,297.9,113.4,298.5,114z"/>
	<path class="st55" d="M271.8,126c-1.7,2-3.3,4-5,6C266.7,128.5,268,126.2,271.8,126z"/>
	<path class="st56" d="M283.7,116.1c-1.7,1.3-3.3,2.6-5,3.9C275.3,112.2,282.3,117.7,283.7,116.1z"/>
	<path class="st55" d="M266.9,131.9c0,0.7,0,1.3,0,2c-0.7,0-1.3,0-2,0C265.5,133.3,266.2,132.6,266.9,131.9z"/>
	<path class="st57" d="M278.8,124c2.5-2.1,4.9-4.7,8.7-2.2c0.6,0.4,2.1-0.5,3.2-0.8c-0.3,1.7-0.6,3.3-1,5c-2.7,0.8-5.3,1.7-8,2.5
		c-1.6,0.5-3.3,1-4.9,1.4c0.4-0.6,0.7-1.7,1.2-1.8C281.5,127.3,279.7,125.6,278.8,124z"/>
	<path class="st58" d="M276.8,130c1.6-0.5,3.3-0.9,4.9-1.4c2.7-0.8,5.3-1.7,8-2.5c0,0.7,0,1.3,0,2c-4.3,1.3-8.6,2.6-12.9,4
		c-0.3,0-0.6,0-1,0c-0.3,0-0.7,0-1,0C275.4,131.3,276.1,130.6,276.8,130z"/>
	<path class="st59" d="M274.7,131.9c0.3,0,0.7,0,1,0c-0.7,1.3-1.3,2.6-2,4h0c-1,0-2,0-3,0C272.1,134.6,273.4,133.3,274.7,131.9z"/>
	<path class="st60" d="M304.5,143.9c-3-2.6-5.9-5.3-8.9-7.9c-0.3-0.7-0.7-1.3-1-2c0.3-7,3.3-0.6,5-1c0.3,0,0.7,0,1,0
		c1.3,2,2.7,4,4,6c0.6,0.3,1.3,0.7,1.9,1c0,1.3,0,2.6,0,4C305.8,143.9,305.1,143.9,304.5,143.9z"/>
	<path class="st61" d="M294.6,133.9c0.3,0.7,0.7,1.3,1,2c-1.1,2.8-1.9,6.1-5.9,6c0,0,0,0,0,0c-0.7-2-1.3-4-2-6c0,0,0,0,0,0
		c1.6-1.6,3.3-3.3,4.9-4.9C293.3,131.9,293.9,132.9,294.6,133.9z"/>
	<path class="st62" d="M284.8,155.7c-0.1-3.4,2.9-10.8,4.9-11.8c0,2.6,0,5.3,0,7.9C289.2,154.6,288.4,156.9,284.8,155.7z"/>
	<path class="st63" d="M304.5,143.9c0.7,0,1.3,0,2,0c1,0.3,2,0.7,3,1c0.3,0.7,0.7,1.3,1,2l0,0c0.3,0.3,0.6,0.6,1,1l0,0
		c-0.3,0.3-0.7,0.7-1,1c-1.6,1-3.3,2-4.9,3C305.2,149.2,304.8,146.5,304.5,143.9z"/>
	<path class="st64" d="M274.8,154.8c-0.3,0-0.6,0-1,0c-0.7-0.3-1.3-0.6-2-1c0,0,0,0,0,0c0-4.6,0-9.3,0-13.9c1-1,2-2,3-3
		c3.6-1.6,6.2-0.4,7.9,3C279.2,144.4,274.6,148.3,274.8,154.8z"/>
	<path class="st65" d="M282.7,139.9c-1.7-3.4-4.3-4.6-7.9-3c-0.3-0.3-0.7-0.7-1-1c0,0,0,0,0,0c1.3-1.3,2.6-2.6,4-4
		c3.9-0.2,7.8-0.4,9.9,4c0,0,0,0,0,0c-5.5-0.3-4.2,2.9-3,6c-0.3,2.3-0.7,4.6-1,7C283.4,145.9,283,142.9,282.7,139.9z"/>
	<path class="st1" d="M255,143.9c1-2,1.8-4.2,3.1-6.1c0.6-0.9,1.9-1.3,2.9-1.9C258,137.9,259.9,143.4,255,143.9z"/>
	<path class="st1" d="M260.9,134.9c-0.4-0.2-0.9-0.3-1.3-0.5c0.4-0.2,0.9-0.3,1.3-0.5C260.9,134.3,260.9,134.6,260.9,134.9z"/>
	<path class="st66" d="M290.7,120c0.9-1.3,1.7-2.6,2.6-3.9c1.1,1.1,2.8,2,3.2,3.3c0.7,2.4,1.1,3.3,3.4,1.4c0.9-0.7,2.4-0.6,3.7-0.8
		c2,1.3,4,2.7,5.9,4c0.7,2,1.3,4,2,5.9c-0.3,2-0.7,4-1,6l0,0c0.9-7.4-4.2-10.3-9.9-13.4c0,2.2,0,3.8,0,5.4c-1-0.7-2-1.3-3-2
		c-0.7-1-1.3-2-2-3c0-0.3,0-0.7,0-1c-1.3-3.4-2.1-3.8-3.9-2l0,0C291.3,120,291,120,290.7,120z"/>
	<path class="st67" d="M314.4,153.8c-0.3,0-0.7,0-1,0c-0.3-1.3-0.7-2.7-1-4c-0.3-0.7-0.7-1.3-1-2c0,0,0,0,0,0c-0.3-0.3-0.6-0.6-1-1
		c0,0,0,0,0,0c0-0.6,0-1.3,0-1.9c0.7-0.3,1.3-0.7,2-1c2.4-5-1.8-3.5-4-4c0,0,0,0,0,0c-0.7-0.3-1.3-0.7-2-1l0,0c0.3-1,0.7-2,1-3
		c0.7,0,1.3,0,2,0c0.3,0,0.7,0,1,0c0,0,0,0,0,0c0.8,1,1.7,2.9,2.2,2.8c2.9-0.6,3.4,1,3.7,3.2C315.7,145.9,315.1,149.8,314.4,153.8z"
		/>
	<path class="st68" d="M316.4,141.9c-0.3-2.2-0.8-3.8-3.7-3.2c-0.5,0.1-1.5-1.8-2.2-2.8c0.3-2,0.7-4,1-6c0.3,1.3,0.7,2.7,1,4
		c0.4,0.6,0.9,1.2,1.3,1.8c0.8-1.2,1.6-2.3,2.1-3.1c0.5,0.5,1.5,1.4,2.5,2.3C317.7,137.3,317,139.6,316.4,141.9z"/>
	<path class="st69" d="M311.4,147.9c0.3,0.7,0.7,1.3,1,2c-0.7-0.3-1.3-0.6-2-1C310.8,148.5,311.1,148.2,311.4,147.9z"/>
	<path class="st22" d="M311.4,153.8c-0.1-0.1-0.3-0.2-0.4-0.2C311.1,153.7,311.3,153.7,311.4,153.8
		C311.4,153.8,311.4,153.8,311.4,153.8z"/>
	<path class="st70" d="M284.7,141.9c-1.3-3.1-2.6-6.2,3-6c0.7,2,1.3,4,2,6C288,140.3,286.3,140.2,284.7,141.9z"/>
	<path class="st71" d="M296.6,112.1c0-0.3,0-0.7,0-1c0.4,0.2,0.9,0.3,1.3,0.5C297.4,111.7,297,111.9,296.6,112.1z"/>
	<path class="st5" d="M271.8,153.8c0.7,0.3,1.3,0.6,2,1c-0.3,0-0.7,0-1,0C272.4,154.5,272.1,154.2,271.8,153.8z"/>
	<path class="st72" d="M290.7,120c0.3,0,0.6,0,1,0c-0.7,2.6-1.3,5.3-2,7.9c0-0.7,0-1.3,0-2c0.3-1.7,0.6-3.3,1-5
		C290.6,120.7,290.6,120.4,290.7,120z"/>
	<path class="st59" d="M289.6,128c0.7-2.6,1.3-5.3,2-7.9c0,0,0,0,0,0c1.3,0.7,2.6,1.3,3.9,2c0,0.3,0,0.7,0,1c0,0.3,0,0.7,0,1
		c-5.3,0.5-2,4.6-3,7c-1.6,1.6-3.3,3.3-4.9,4.9c-2.1-4.4-6-4.2-9.9-4c-0.3,0-0.7,0-1,0C281,130.6,285.3,129.3,289.6,128z"/>
	<path class="st12" d="M276.7,131.9c0.3,0,0.7,0,1,0c-1.3,1.3-2.6,2.6-4,4c0.7-1.3,1.3-2.6,2-4C276.1,131.9,276.4,131.9,276.7,131.9
		z"/>
	<path class="st73" d="M292.6,131c0.9-2.3-2.4-6.5,3-7c0.3,0.7,0.7,1.3,1,2c1,2,2,4,3,6c0,0.3,0,0.7,0,1c-1.6,0.4-4.6-6-5,1
		C293.9,132.9,293.3,131.9,292.6,131z"/>
	<path class="st74" d="M307.5,135.9c-0.3,1-0.7,2-1,3c-0.7,0-1.3,0-2,0c-1.3-2-2.7-4-4-6c0,0,0,0,0,0c1.3,0.3,2.6,0.7,3.9,1
		C305.5,134.6,306.5,135.3,307.5,135.9z"/>
	<path class="st3" d="M309.4,144.9c-1-0.3-2-0.7-3-1c0-1.3,0-2.6,0-4c0,0,0,0,0,0c0.7,0,1.3,0,2,0c0,0,0,0,0,0c0.7,1.3,1.3,2.7,2,4
		C310.1,144.2,309.8,144.5,309.4,144.9L309.4,144.9z"/>
	<path class="st3" d="M304.5,138.9c0.7,0,1.3,0,2,0c0,0,0,0,0,0c0,0.3,0,0.7,0,1c0,0,0,0,0,0C305.8,139.6,305.1,139.2,304.5,138.9z"
		/>
	<path class="st74" d="M299.5,132.9c0-0.3,0-0.7,0-1c0.3,0.3,0.7,0.7,1,1c0,0,0,0,0,0C300.2,132.9,299.9,132.9,299.5,132.9z"/>
	<path class="st69" d="M310.5,144.9c0,0.6,0,1.3,0,1.9c-0.3-0.7-0.7-1.3-1-2c0,0,0,0,0,0C309.8,144.9,310.1,144.9,310.5,144.9z"/>
	<path class="st69" d="M310.4,146.9c0.3,0.3,0.6,0.6,1,1C311.1,147.5,310.8,147.2,310.4,146.9z"/>
	<path class="st74" d="M310.4,135.9c-0.3,0-0.7,0-1,0c-1.4-2.3-2.6-4.8-4.4-6.7c-2.4-2.4-2.4,0.1-2.5,1.7c-0.7-1-1.3-2-2-3
		c0-1.6,0-3.3,0-5.4C306.2,125.6,311.3,128.5,310.4,135.9z"/>
	<path class="st75" d="M300.5,128c0.7,1,1.3,2,2,3c0,0,0,0,0,0c0.3,0.3,0.7,0.7,1,1c0.3,0.7,0.7,1.3,1,2c-1.3-0.3-2.6-0.7-3.9-1
		c-0.3-0.3-0.7-0.7-1-1c-1-2-2-4-3-6c0,0,0.5,0,0.5,0l0.5,0C298.5,126.6,299.5,127.3,300.5,128z"/>
	<path class="st72" d="M295.6,122c-1.3-0.7-2.6-1.3-3.9-2C293.5,118.2,294.3,118.6,295.6,122z"/>
	<path class="st72" d="M297.6,126l-0.5,0c0,0-0.5,0-0.5,0c-0.3-0.7-0.7-1.3-1-2c0-0.3,0-0.7,0-1C296.2,124,296.9,125,297.6,126z"/>
	<path class="st76" d="M304.5,133.9c-0.3-0.7-0.7-1.3-1-2c-0.3-0.3-0.7-0.7-1-1c0,0,0,0,0,0c0.1-1.6,0.1-4.1,2.5-1.7
		c1.8,1.8,3,4.4,4.4,6.7c-0.7,0-1.3,0-2,0C306.5,135.3,305.5,134.6,304.5,133.9z"/>
	<path class="st69" d="M310.4,143.9c-0.7-1.3-1.3-2.7-2-4c2.2,0.5,6.3-1.1,4,4C311.8,143.9,311.1,143.9,310.4,143.9z"/>
	<path class="st63" d="M310.4,143.9c0.7,0,1.3,0,2,0c-0.7,0.3-1.3,0.7-2,1c-0.3,0-0.7,0-1,0C309.8,144.5,310.1,144.2,310.4,143.9z"
		/>
	<path class="st74" d="M306.5,139.9c0-0.3,0-0.7,0-1c0.7,0.3,1.3,0.7,2,1C307.8,139.9,307.1,139.9,306.5,139.9z"/>
	<path class="st74" d="M302.5,131c0.3,0.3,0.7,0.7,1,1C303.2,131.6,302.8,131.3,302.5,131z"/>
</g>
</svg>
