<?xml version="1.0" encoding="iso-8859-1"?><!-- Generator: Adobe Illustrator 19.0.0, SVG Export Plug-In . SVG Version: 6.00 Build 0)  -->
<svg version="1.1" id="Capa_1" xmlns="http://www.w3.org/2000/svg"
    xmlns:xlink="http://www.w3.org/1999/xlink" x="0px" y="0px" viewBox="0 0 512 512"
    style="enable-background:new 0 0 512 512;" xml:space="preserve">
<circle style="fill:#69739B;" cx="256" cy="256" r="256" />
    <path style="fill:#FE6782;" d="M236.417,267.678c0,0-63.851-113.511-190.528-137.083c-4.182-0.778-8.352-1.142-12.469-1.13
	C12.156,166.787,0,209.972,0,256c0,92.233,48.784,173.063,121.95,218.123c25.037,0.595,50.411-5.772,73.049-19.949
	C257.762,414.87,275.722,330.44,236.417,267.678z" />
    <path style="fill:#F9587B;" d="M74.356,405.43c0,0-43.58-39.659-70.47-104.803C16.777,373.939,60.861,436.5,121.95,474.123
	c25.037,0.595,50.411-5.772,73.049-19.949c7.67-4.803,14.665-10.284,20.974-16.313C168.18,454.576,112.339,443.414,74.356,405.43z" />
    <path style="fill:#FBB659;" d="M478.581,129.464c-4.117-0.012-8.287,0.352-12.469,1.13
	c-126.677,23.572-190.528,137.083-190.528,137.083c-39.305,62.763-21.345,147.192,41.418,186.497
	c22.638,14.177,48.013,20.544,73.049,19.949C463.216,429.063,512,348.233,512,256C512,209.972,499.844,166.787,478.581,129.464z" />
    <path style="fill:#F7A15F;" d="M332.81,267.678c0,0,50.902-90.476,151.966-126.648c-1.97-3.913-4.033-7.771-6.195-11.565
	c-4.117-0.012-8.287,0.352-12.469,1.13c-126.677,23.572-190.528,137.083-190.528,137.083
	c-39.305,62.763-21.345,147.192,41.418,186.497c22.638,14.177,48.013,20.544,73.049,19.949c3.717-2.289,7.367-4.675,10.955-7.146
	C319.215,438.761,287.387,340.208,332.81,267.678z" />
    <g>
	<path style="fill:#FDD36E;" d="M462.264,407.63c-51.368-2.792-129.753-18.34-207.071-77.48
		c-1.661,22.838,2.418,45.769,11.763,66.482c57.456,34.378,112.499,49.238,153.613,55.449
		C436.163,438.979,450.17,424.054,462.264,407.63z" />
        <path style="fill:#FDD36E;" d="M477.352,352.841c5.107,0.734,10.081,1.35,14.915,1.864c6.319-15.107,11.237-30.945,14.579-47.358
		c-7.721-0.614-15.941-1.52-24.585-2.811c-64.861-9.684-124.34-35.612-177.125-77.136c-16.576,19.145-26.197,34.615-28.816,39.015
		C337.247,313.877,406.821,342.706,477.352,352.841z" />
        <path style="fill:#FDD36E;" d="M505.895,200.254c-38.485-9.365-74.873-24.759-108.866-46.031
		c-16.609,8.467-31.514,18.248-44.726,28.445c57.723,40.245,114.728,59.5,159.636,68.54
		C511.618,233.739,509.548,216.7,505.895,200.254z" />
</g>
    <path style="fill:#FBB659;" d="M397.029,154.223c-24.263,12.367-39.434,24.71-44.726,28.445
	c11.025,7.686,22.022,14.601,32.915,20.832c11.703-11.086,25.356-22.383,40.962-32.794
	C416.282,165.67,406.558,160.186,397.029,154.223z" />
    <g>
	<path style="fill:#FC90AA;" d="M28.451,373.388c5.933,11.476,12.713,22.441,20.25,32.823c11.26-6.364,13.092-21.527,4.167-30.452
		C46.228,369.118,35.959,368.333,28.451,373.388z" />
        <path style="fill:#FC90AA;" d="M78.641,440.593c8.693,8.354,17.976,16.096,27.778,23.166c11.196-6.424,12.938-21.512,4.061-30.389
		C100.471,423.361,83.37,427.18,78.641,440.593z" />
        <path style="fill:#FC90AA;" d="M0.131,263.855c7.278,3.798,16.469,2.643,22.581-3.469c7.54-7.54,7.54-19.765,0-27.305
		c-5.759-5.76-14.247-7.105-21.298-4.065C0.485,237.884,0,246.885,0,256C0,258.629,0.053,261.245,0.131,263.855z" />
        <circle style="fill:#FC90AA;" cx="66.67" cy="304.34" r="19.308" />
        <circle style="fill:#FC90AA;" cx="124.28" cy="361.96" r="19.308" />
        <path style="fill:#FC90AA;" d="M50.168,175.319c7.54-7.54,7.54-19.765,0-27.305c-7.008-7.008-18.057-7.493-25.636-1.474
		c-2.607,5.503-5.025,11.113-7.243,16.824C18.706,179.512,38.513,186.974,50.168,175.319z" />
        <circle style="fill:#FC90AA;" cx="94.13" cy="219.28" r="19.308" />
</g>
    <path style="fill:#96DFF8;" d="M305.866,120.807c-25.614-23.551-65.118-23.551-90.732,0
	c-94.848,87.209-88.716,217.297-88.716,217.297c0,74.052,60.03,136.072,134.082,136.072l0,0l0,0
	c74.051,0,134.082-62.021,134.082-136.072C394.581,338.103,400.713,208.016,305.866,120.807z" />
    <path style="fill:#80CBF0;" d="M190.101,338.103c0,0-4.676-130.087,67.654-217.297c6.117-7.375,13.272-12.439,20.815-15.195
	c-21.697-6.046-45.843-0.982-63.436,15.195c-94.848,87.209-88.716,217.297-88.716,217.297c0,80.422,70.696,146.111,152.152,134.786
	C228.621,463.782,190.101,406.022,190.101,338.103z" />
    <path style="fill:#CDF3F9;" d="M364.758,201.671c-6.674-14.145-14.826-28.422-24.788-42.307c-4.591,2.111-10.05,3.484-17.122,3.484
	c-31.178,0-31.178-26.533-62.357-26.533c-31.177,0-31.177,26.533-62.354,26.533c-7.067,0-12.522-1.371-17.111-3.479
	c-9.962,13.885-18.113,28.162-24.787,42.308c13.236,7.727,19.582,21.318,41.898,21.318c31.177,0,31.177-26.533,62.354-26.533
	c31.178,0,31.178,26.533,62.357,26.533C345.171,222.995,351.515,209.398,364.758,201.671z" />
    <path style="fill:#96DFF8;" d="M206.136,222.339c7.973-27.397,19.872-56.309,37.593-82.71c-15.932,7.115-21.3,23.22-45.591,23.22
	c-7.067,0-12.522-1.371-17.111-3.479c-9.308,12.974-17.688,27.262-24.787,42.308C169.86,209.629,179.056,227.06,206.136,222.339z" />
    <path style="fill:#CDF3F9;" d="M319.641,256.609c-31.179,0-31.179,26.533-62.359,26.533c-31.178,0-31.178-26.533-62.357-26.533
	c-31.743,0-31.216,27.518-63.989,26.489c-3.37,19.67-5.112,39.557-4.397,59.816c36.023,4.533,35.467-26.158,68.386-26.158
	c31.178,0,31.178,26.533,62.357,26.533s31.179-26.533,62.359-26.533c31.181,0,31.181,26.533,62.362,26.533
	c4.837,0,8.922-0.64,12.492-1.72c0.471-18.469-0.696-36.912-4.534-59.077c-2.415,0.418-5.05,0.65-7.957,0.65
	C350.822,283.142,350.822,256.609,319.641,256.609z" />
    <path style="fill:#96DFF8;" d="M197.838,256.692c-34.331-1.941-33.236,27.463-66.901,26.406c-0.835,6.534-5.481,29.094-4.397,59.816
	c34.311,4.317,35.459-23.301,63.934-25.937C191.203,302.271,193.098,280.989,197.838,256.692z" />
    <path style="fill:#CDF3F9;" d="M388.866,377.048c-1.176-0.085-2.383-0.145-3.659-0.145c-31.179,0-31.179,26.533-62.359,26.533
	c-31.178,0-31.178-26.533-62.357-26.533c-31.177,0-31.177,26.533-62.354,26.533c-32.467,0-31.435-28.887-66.004-26.389
	c11.413,38.172,39.089,69.673,74.91,85.693c22.604-4.489,25.57-25.69,53.448-25.69c27.884,0,30.847,21.207,53.461,25.692
	C349.775,446.723,377.452,415.222,388.866,377.048z" />
    <path style="fill:#96DFF8;" d="M232.241,447.841c-12.112-11.829-22.211-27.094-29.485-44.63
	c-36.471,3.407-34.553-28.771-70.623-26.164l0,0c19.221,64.284,74.703,85.54,74.91,85.693
	C218.585,460.448,225.009,453.8,232.241,447.841z" />
    <g>
</g>
    <g>
</g>
    <g>
</g>
    <g>
</g>
    <g>
</g>
    <g>
</g>
    <g>
</g>
    <g>
</g>
    <g>
</g>
    <g>
</g>
    <g>
</g>
    <g>
</g>
    <g>
</g>
    <g>
</g>
    <g>
</g>
</svg>
