<?xml version="1.0" standalone="no"?><!DOCTYPE svg PUBLIC "-//W3C//DTD SVG 1.1//EN" "http://www.w3.org/Graphics/SVG/1.1/DTD/svg11.dtd"><svg t="1602915454096" class="icon" viewBox="0 0 1024 1024" version="1.1" xmlns="http://www.w3.org/2000/svg" p-id="6156" width="32" height="32" xmlns:xlink="http://www.w3.org/1999/xlink"><defs><style type="text/css"></style></defs><path d="M 512 85.3333 c 71.4773 0 159.68 57.5467 229.259 147.019 C 817.845 330.827 864 455.979 864 586.667 c 0 211.808 -148.501 352 -352 352 S 160 798.475 160 586.667 c 0 -130.688 46.144 -255.84 122.741 -354.315 C 352.32 142.88 440.523 85.3333 512 85.3333 Z m 0 64 c -48.2133 0 -120.096 46.912 -178.741 122.315 C 265.109 359.253 224 470.763 224 586.667 c 0 175.616 119.051 288 288 288 s 288 -112.384 288 -288 c 0 -115.904 -41.1093 -227.403 -109.259 -315.019 C 632.096 196.235 560.213 149.333 512 149.333 Z m -74.6667 522.667 a 53.3333 53.3333 0 1 1 0 106.667 a 53.3333 53.3333 0 0 1 0 -106.667 Z m -96 -128 a 42.6667 42.6667 0 1 1 0 85.3333 a 42.6667 42.6667 0 0 1 0 -85.3333 Z" fill="#f4ea2a" p-id="6157"></path></svg>