<?xml version="1.0" standalone="no"?><!DOCTYPE svg PUBLIC "-//W3C//DTD SVG 1.1//EN" "http://www.w3.org/Graphics/SVG/1.1/DTD/svg11.dtd"><svg t="1602914195759" class="icon" viewBox="0 0 1024 1024" version="1.1" xmlns="http://www.w3.org/2000/svg" p-id="3226" xmlns:xlink="http://www.w3.org/1999/xlink" width="128" height="128"><defs><style type="text/css"></style></defs><path d="M246.75297 515.10303c7.261091 1.892848 14.677333 3.009939 22.031515 4.499394 14.832485 2.947879 29.72703 5.678545 44.559515 8.688485 9.929697 1.985939 19.642182 1.272242 29.168485-2.234182 39.284364-14.522182 78.599758-28.982303 117.853091-43.597575a126.169212 126.169212 0 0 1 89.243151 0.03103c38.322424 14.211879 76.737939 28.237576 115.029334 42.573576 11.481212 4.344242 22.931394 5.182061 34.940121 2.730666 25.382788-5.213091 50.796606-9.991758 76.210424-14.894545 3.04097-0.620606 3.04097-0.620606 2.606546-3.537455-2.358303-15.204848-6.423273-30.068364-9.619394-45.11806l-5.678546-25.258667c-0.217212-1.05503-0.527515-2.141091-0.775757-3.10303-0.99297-0.682667-1.799758-0.248242-2.606546 0-7.540364 1.861818-14.956606 4.096-22.341818 6.454303-4.158061 1.334303-6.268121 0.775758-7.819636-2.01697a7.043879 7.043879 0 0 1 1.551515-9.153939 17.066667 17.066667 0 0 1 2.730666-1.98594c15.484121-8.688485 31.619879-15.577212 49.152-18.835394a98.397091 98.397091 0 0 1 31.030303-0.248242c16.35297 2.172121 32.116364 6.516364 47.383273 12.598303a29.478788 29.478788 0 0 1 3.723636 1.799757c2.885818 1.675636 4.002909 4.406303 3.103031 7.292122a6.11297 6.11297 0 0 1-6.640485 4.344242c-4.654545-0.465455-9.18497-1.241212-13.777455-1.830788C831.053576 432.252121 814.235152 430.142061 797.323636 430.142061c-1.241212 0-2.513455-0.217212-3.971878 0.403394 1.241212 5.926788 2.575515 11.853576 3.909818 17.811393 3.506424 15.732364 7.074909 31.464727 10.519272 47.228122 0.775758 3.537455 1.365333 7.13697 1.861819 10.736485 0.186182 1.551515 0.744727 2.048 2.296242 2.203151 5.988848 0.527515 11.946667 1.551515 17.594182 3.599515 27.585939 10.333091 43.969939 29.944242 48.717576 59.112727 0.930909 5.523394 1.241212 11.170909 1.520485 16.818425 0.434424 0.930909 0.186182 1.892848 0.248242 2.854788v6.702545c0.093091 0.806788-0.310303 1.737697 0.372364 2.482424v30.782061c-0.682667 0.775758-0.310303 1.675636-0.372364 2.544485v7.881697c0.062061 24.731152-4.685576 48.779636-10.736485 72.610909a372.177455 372.177455 0 0 1-27.027394 72.73503c-12.25697 24.886303-26.996364 48.252121-44.373333 69.942303a379.159273 379.159273 0 0 1-108.51297 93.090909c-21.038545 12.039758-43.070061 21.907394-66.032485 29.63394-24.017455 8.067879-48.624485 13.684364-73.883151 16.570181-7.19903 0.806788-14.429091 1.05503-21.659152 1.489455h-45.676606a294.074182 294.074182 0 0 1-57.964606-7.602424 372.363636 372.363636 0 0 1-78.320485-26.996364 365.692121 365.692121 0 0 1-81.547636-52.534303A383.751758 383.751758 0 0 1 131.537455 667.67903C129.706667 654.180848 129.05503 640.558545 128.217212 626.936242c-0.651636-10.922667 0-21.783273 0.465455-32.581818 0.558545-13.715394 1.086061-27.554909 6.485333-40.587636A72.331636 72.331636 0 0 1 176.252121 512.744727c3.630545-1.458424 5.12-3.568485 5.771637-7.354182 3.196121-18.618182 8.657455-36.801939 13.032727-55.202909l3.723636-14.956606c0.899879-3.661576 0.682667-3.909818-2.916848-4.033939-10.674424-0.310303-21.255758 0.868848-31.837091 1.892848C153.289697 434.176 142.615273 435.572364 132.002909 436.999758 127.751758 437.620364 125.486545 436.130909 124.214303 432.438303 123.810909 426.852848 124.493576 425.518545 129.799758 423.315394 141.622303 418.350545 153.879273 414.75103 166.384485 412.144485c7.012848-1.458424 14.056727-2.420364 21.193697-2.916849 14.211879-1.024 27.896242 1.551515 41.239273 6.237091 9.929697 3.537455 19.48703 7.850667 28.672 13.032728 0.868848 0.496485 1.737697 0.961939 2.544484 1.551515 5.337212 3.785697 5.399273 8.843636 0.217213 12.939636-2.482424 0.99297-4.809697 0.620606-7.261091-0.217212-5.182061-1.830788-10.550303-3.196121-15.825455-4.654546C233.347879 437.030788 232.727273 437.403152 231.796364 441.064727l-15.235879 60.850425a27.61697 27.61697 0 0 0-0.434424 2.203151c-0.651636 3.723636-0.372364 4.06497 3.289212 4.778667 7.633455 1.396364 15.204848 3.009939 22.807272 4.499394 1.613576 0.310303 3.227152 0.558545 4.530425 1.706666" fill="#531704" p-id="3227"></path><path d="M291.033212 174.638545c-0.155152 0.186182-0.186182 0.403394-0.03103 0.589576-0.651636 1.241212 0.093091 2.637576-0.558546 3.878788a16.042667 16.042667 0 0 1-12.908606 11.698424 14.242909 14.242909 0 0 1-7.757575-0.837818c-4.561455-1.675636-9.18497-3.258182-13.653334-5.306182-12.753455-5.833697-19.704242-15.918545-19.952485-30.099394-0.248242-14.398061 6.485333-24.948364 19.549091-31.030303 11.357091-5.213091 22.962424-9.929697 34.505697-14.770424L452.111515 39.780848c8.316121-3.537455 16.880485-6.237091 25.848243-7.478303 0.868848-0.124121 1.706667-0.403394 2.575515-0.558545C480.969697 31.340606 481.528242 31.402667 482.055758 31.402667H485.748364c1.024-0.155152 2.110061 0.310303 3.040969-0.403394h8.285091c0.930909 0.744727 2.07903 0.248242 3.103031 0.403394h1.675636c0.899879 0.093091 1.861818-0.310303 2.730667 0.310303 12.288 1.613576 23.738182 5.771636 35.064242 10.612363 62.774303 26.872242 125.610667 53.620364 188.44703 80.306425 9.774545 4.189091 16.694303 10.953697 19.921455 21.100606a33.233455 33.233455 0 0 1-21.969455 42.170181c-28.020364 8.812606-56.102788 17.563152-84.154182 26.282667-4.685576 1.489455-4.654545 1.458424-3.909818 6.454303 0.713697 5.08897 1.241212 10.177939 1.923879 15.266909 0.124121 0.806788-0.186182 1.799758 0.837818 2.389334 1.241212-0.558545 2.01697-1.706667 2.947879-2.699637 4.623515-4.778667 9.091879-9.650424 14.118788-14.056727 5.430303-4.716606 11.388121-8.564364 18.618182-9.960727a23.800242 23.800242 0 0 1 19.859394 4.344242c3.630545 2.761697 6.764606 6.019879 9.619394 9.495273 9.464242 11.450182 17.066667 24.110545 24.203636 37.081212 15.515152 28.082424 27.927273 57.561212 38.974061 87.691636 0.124121 0.310303 0.217212 0.713697 0.310303 1.055031 1.241212 3.320242 1.241212 3.289212 4.654545 2.296242a164.89503 164.89503 0 0 1 47.569455-5.647515 121.018182 121.018182 0 0 1 14.584242 0.713697c4.592485 0.589576 7.105939 2.637576 7.230061 6.144 0.124121 3.413333-2.296242 5.833697-6.764606 6.702545-11.915636 2.327273-23.645091 5.430303-35.529697 7.850667-28.020364 5.771636-52.130909 19.362909-74.472728 36.584727-1.241212 0.99297-2.513455 2.01697-3.847757 2.947879-2.606545 1.923879-4.747636 2.07903-6.888727 0.527515-2.420364-1.799758-3.723636-5.399273-2.792728-7.974788a18.866424 18.866424 0 0 1 3.196121-5.088969c7.416242-9.029818 15.515152-17.37697 24.607031-24.731152 1.210182-0.99297 2.01697-1.706667 1.303272-3.723636-11.605333-32.147394-24.576-63.674182-41.363393-93.556364a215.350303 215.350303 0 0 0-17.37697-26.748121c-0.620606-0.775758-1.272242-1.551515-1.861818-2.358303-0.930909-1.272242-1.799758-1.427394-3.00994-0.248243-2.544485 2.575515-5.275152 4.964848-7.757575 7.633455a428.838788 428.838788 0 0 1-32.395637 31.340606 17.37697 17.37697 0 0 1-20.107636 2.916849 220.718545 220.718545 0 0 0-46.359273-14.677334c-0.930909 1.241212-0.496485 2.482424-0.527515 3.692606-0.03103 9.557333 0.062061 19.083636-0.03103 28.547879a15.484121 15.484121 0 0 1-11.23297 14.801455 15.763394 15.763394 0 0 1-17.43903-6.516364 18.276848 18.276848 0 0 1-2.637576-10.364121V268.784485c-0.03103-3.506424-0.03103-3.537455-3.413333-3.816727-8.502303-0.682667-17.004606-0.961939-25.50691-1.272243-1.985939-0.062061-2.296242 0.682667-2.296242 2.358303 0.062061 9.929697 0 19.797333 0 29.696a19.828364 19.828364 0 0 1-0.99297 7.012849 15.670303 15.670303 0 0 1-17.314909 10.146909 15.515152 15.515152 0 0 1-13.032727-14.894546c-0.124121-9.495273 0-19.021576 0-28.547878v-3.909819c-3.847758-0.310303-7.385212 0.310303-10.922667 0.682667-5.957818 0.620606-11.946667 1.365333-17.904485 1.954909-2.048 0.186182-2.637576 1.086061-2.637575 3.072 0.093091 9.929697 0.062061 19.797333 0.06206 29.696-0.03103 2.01697-0.03103 4.002909-0.682666 5.957818a15.453091 15.453091 0 0 1-17.283879 10.643394 15.204848 15.204848 0 0 1-13.187879-14.987636c-0.124121-8.285091 0-16.539152-0.03103-24.824243 0-1.241212 0.217212-2.482424-0.248243-3.785697-1.768727-0.558545-3.413333 0.248242-5.057939 0.589576a197.694061 197.694061 0 0 0-37.732849 11.046788 15.142788 15.142788 0 0 1-16.259878-2.203151c-2.823758-2.265212-6.299152-4.220121-7.943758-7.292122-1.551515-2.885818-0.465455-6.640485-0.465454-10.022788-0.062061-9.991758 0.217212-20.014545-0.093091-30.037333-0.403394-12.598303 1.303273-24.979394 2.916848-37.422545 0.186182-1.241212 0.186182-2.482424 0.279273-3.723637-1.05503-1.768727-0.341333-3.723636-0.155152-5.492363 0.99297-9.495273 2.07903-18.928485 7.354182-27.306667 8.781576-13.901576 21.721212-20.883394 37.701818-23.055515 16.104727-2.203152 32.178424-4.654545 48.314182-6.454303 14.522182-1.892848 29.106424-3.537455 43.721697-3.785697a224.969697 224.969697 0 0 1 26.220606 1.396364 1892.538182 1892.538182 0 0 1 51.106909 5.802666c9.805576 1.303273 19.673212 2.172121 29.385697 4.03394 21.038545 4.096 34.878061 16.135758 39.780849 37.453575 0.589576 2.482424 1.520485 2.947879 3.878788 2.172122 23.179636-7.19903 46.359273-14.491152 69.569939-21.721213L713.69697 155.958303c1.05503-0.310303 2.451394-0.465455 2.482424-1.861818 0-1.334303-1.272242-1.737697-2.265212-2.234182-2.699636-1.334303-5.492364-2.420364-8.254061-3.630545-54.365091-22.962424-108.544-46.297212-162.909091-69.228606l-21.721212-9.340122a67.335758 67.335758 0 0 0-49.803636-2.513454c-11.636364 4.002909-22.714182 9.278061-34.009212 14.087757-34.78497 14.801455-69.60097 29.540848-104.323879 44.497455a24.638061 24.638061 0 0 1-5.709576 1.520485c-2.792727 0.806788-5.988848 1.489455-7.757576 3.475394-1.551515 1.830788-0.434424 5.057939-0.465454 7.664485-0.03103 17.159758 0 34.319515-0.062061 51.479272 0 2.265212 0.527515 3.413333 2.792728 4.406303 8.347152 3.630545 12.846545 10.24 12.877575 19.39394 0.093091 34.288485 0.062061 68.63903 0 102.927515 0 7.292121-4.685576 12.070788-11.853575 12.163879-6.516364 0.093091-13.032727-0.186182-19.549091 0.093091a12.070788 12.070788 0 0 1-12.412122-12.505213c0.217212-33.047273 0.093091-66.094545 0.093091-99.172848v-3.754667a20.169697 20.169697 0 0 1 10.053818-17.780363c1.458424-0.961939 2.389333-1.768727 2.389334-3.723637-0.093091-17.532121-0.062061-35.064242-0.062061-52.596363 0-0.465455-0.124121-0.961939-0.186182-1.675637-3.506424 0.930909-6.609455 2.482424-9.743515 4.002909a3.971879 3.971879 0 0 1-0.868848 0.496485v-0.03103c-3.10303 2.947879-7.292121 3.692606-10.984728 5.430303-3.413333 1.551515-6.919758 2.947879-10.364121 4.406303-0.930909 0.372364-2.048 0.744727-2.07903 1.923879-0.03103 1.241212 1.148121 1.520485 2.048 1.923879 3.692606 1.520485 7.447273 2.854788 11.139879 4.530424a14.460121 14.460121 0 0 1 8.812606 14.273939" fill="#531704" p-id="3228"></path><path d="M327.214545 127.224242c8.905697-3.847758 17.842424-7.757576 26.810182-11.574303 37.019152-15.825455 74.069333-31.588848 111.150546-47.290181 1.799758-0.806788 3.537455-1.861818 5.585454-1.95491-0.620606 3.568485-3.537455 5.585455-5.647515 8.067879-8.254061 9.557333-15.701333 19.549091-20.169697 31.464728a49.648485 49.648485 0 0 0-3.320242 17.625212c0.062061 3.413333 0.620606 6.733576 2.172121 9.805575-4.933818 0.744727-9.836606 1.396364-14.770424 2.079031-12.722424 1.799758-25.506909 3.413333-38.229334 5.430303a45.831758 45.831758 0 0 0-37.639757 35.157333c-0.99297 4.468364-1.303273 9.153939-1.954909 13.715394-0.186182 1.706667-0.527515 3.413333-0.806788 5.182061-2.327273-0.837818-4.654545-1.861818-7.074909-2.451394-4.778667-1.241212-8.905697-3.816727-13.125818-6.206061-1.551515-0.837818-1.551515-2.07903-1.551516-3.475394v-23.272727-28.951273c-0.062061-1.241212 0.558545-2.885818-1.427394-3.320242" fill="#F5E2BD" p-id="3229"></path><path d="M273.749333 391.168c1.427394 2.327273 3.506424 4.220121 4.871758 6.640485 1.334303 2.389333 1.458424 4.654545 0.03103 7.074909-2.296242 3.847758-5.399273 4.592485-9.060848 1.923879l-12.070788-8.936728a170.790788 170.790788 0 0 0-66.994424-30.72c-11.605333-2.482424-23.117576-5.430303-34.75394-7.664484l-1.489454-0.310303c-3.382303-0.99297-5.337212-3.413333-5.213091-6.454303 0.155152-3.258182 2.420364-5.554424 6.112969-5.988849 10.612364-1.241212 21.255758-1.148121 31.899152-0.434424 12.505212 0.837818 24.824242 2.823758 36.739879 7.012848 2.110061 0.775758 2.203152 0.682667 3.289212-2.07903 5.430303-13.963636 11.201939-27.834182 17.408-41.518545a715.558788 715.558788 0 0 1 29.416727-58.243879c0.651636-1.179152 1.086061-2.482424 2.792727-3.816728v67.397819c-2.482424 9.060848-7.19903 17.252848-10.674424 25.910303-3.537455 8.812606-7.19903 17.532121-10.643394 26.375757-0.99297 2.544485-0.372364 4.12703 1.675637 5.802667 5.057939 4.096 9.371152 8.998788 13.963636 13.560242 1.241212 1.241212 1.923879 2.885818 2.699636 4.468364M574.091636 410.096485c1.303273 1.05503 2.792727 2.048 3.971879 3.289212 6.081939 6.392242 10.736485 13.529212 12.598303 22.279758a26.158545 26.158545 0 0 1-24.451879 32.240484c-20.386909 1.303273-35.87103-10.891636-39.811878-31.402666-0.341333-1.861818-0.186182-4.158061-1.272243-5.337212-1.210182-1.272242-3.568485-0.217212-5.399273-0.155152-9.278061 0.248242-18.525091 0-27.71006-1.489454a7.261091 7.261091 0 0 1-6.206061-5.306182 7.447273 7.447273 0 0 1 1.644606-7.695515 7.819636 7.819636 0 0 1 7.13697-2.420364c8.471273 1.210182 16.973576 1.551515 25.475879 1.086061 10.20897-0.558545 20.107636-2.575515 29.385697-7.012849 6.019879-2.916848 11.419152-6.671515 15.639272-12.008727a7.788606 7.788606 0 0 1 11.015758-1.551515c3.413333 2.637576 4.033939 7.261091 1.396364 11.046788-0.899879 1.334303-1.985939 2.575515-3.413334 4.437333" fill="#531704" p-id="3230"></path><path d="M331.620848 422.756848c-12.722424-0.062061-23.086545-1.799758-32.674909-7.012848a28.609939 28.609939 0 0 1-9.371151-7.912727 13.156848 13.156848 0 0 1-1.861818-13.808485c2.327273-5.430303 6.609455-8.781576 11.481212-11.388121 7.819636-4.220121 16.259879-6.206061 25.134545-6.640485 3.723636-0.217212 7.385212-0.186182 11.108849 0 10.053818 0.558545 19.48703 2.978909 27.927272 8.502303a22.962424 22.962424 0 0 1 7.13697 7.105939c3.723636 6.050909 3.258182 11.946667-1.892848 17.842424-4.530424 5.213091-10.550303 8.036848-16.849455 10.084849-7.13697 2.327273-14.584242 3.506424-20.169697 3.227151M660.852364 422.725818a62.619152 62.619152 0 0 1-26.934303-5.461333 27.989333 27.989333 0 0 1-13.032728-10.302061 14.801455 14.801455 0 0 1 2.544485-18.525091c5.12-5.275152 11.574303-8.16097 18.525091-10.084848 5.275152-1.427394 10.705455-2.07903 16.228849-2.420364 9.743515-0.620606 19.114667 0.620606 28.175515 4.03394 4.654545 1.768727 9.060848 4.12703 12.815515 7.602424 8.192 7.540364 7.012848 18.46303-1.861818 25.134545-7.261091 5.461333-15.670303 7.912727-24.54497 9.309091-3.754667 0.589576-7.447273 0.620606-11.915636 0.713697" fill="#F6D0C6" p-id="3231"></path><path d="M392.22303 333.358545c12.039758 0 22.031515 9.991758 22.031515 22.062546 0 12.039758-10.022788 22.031515-22.031515 22.031515a22.279758 22.279758 0 0 1-22.031515-22.062545c0-12.008727 10.022788-22.031515 22.031515-22.031516M572.229818 355.110788a22.124606 22.124606 0 0 1 22.279758-21.721212 22.062545 22.062545 0 0 1-0.589576 44.06303 22.124606 22.124606 0 0 1-21.690182-22.341818" fill="#531704" p-id="3232"></path><path d="M234.651152 545.109333c8.719515 1.644606 17.43903 3.258182 26.158545 4.964849 16.477091 3.165091 32.892121 6.423273 49.369212 9.526303 14.894545 2.792727 29.416727 1.05503 43.566546-4.189091 38.694788-14.273939 77.420606-28.516848 116.084363-42.945939a99.421091 99.421091 0 0 1 43.442424-6.330182c8.533333 0.744727 16.787394 2.668606 24.824243 5.647515 38.570667 14.273939 77.234424 28.330667 115.712 42.852848a92.16 92.16 0 0 0 52.348121 3.909819c27.803152-5.740606 55.699394-10.953697 83.595636-16.384 5.616485-1.086061 11.201939-2.451394 17.035637-2.358303a41.580606 41.580606 0 0 1 40.618666 37.391515c1.489455 15.732364 2.451394 31.495758 1.923879 47.290181-2.637576 81.175273-28.951273 153.724121-80.709818 216.405334-50.331152 60.943515-114.346667 100.258909-191.581091 117.511757-29.696 6.640485-59.857455 8.843636-90.298182 7.230061a339.285333 339.285333 0 0 1-109.723151-24.482909c-1.396364-0.589576-2.699636-1.241212-4.03394-1.954909-7.416242-4.561455-12.629333-11.543273-18.835394-17.37697-0.930909-0.930909-2.978909-2.296242-0.186181-3.599515a4.654545 4.654545 0 0 1 1.148121 0.124121 16.880485 16.880485 0 0 1 1.613576 0.620606 286.782061 286.782061 0 0 0 48.19006 16.756364c11.450182 2.854788 23.086545 4.592485 34.75394 6.081939a7.974788 7.974788 0 0 0 7.881697-3.227151c15.825455-20.262788 25.693091-42.945939 28.237575-68.57697 3.971879-39.998061-8.967758-74.472727-35.188363-104.323879-19.393939-22.124606-43.659636-36.367515-72.64194-41.487515-41.921939-7.323152-79.437576 2.916848-112.174545 30.347636-2.730667 2.327273-4.623515 5.678545-8.22303 6.981819-1.458424 0.124121-2.420364-0.775758-2.854788-1.954909-1.706667-4.468364-4.189091-8.750545-4.592485-13.653334 0.310303-1.458424 1.334303-2.358303 2.389333-3.320242 24.731152-21.504 53.21697-34.443636 85.98497-37.639758a145.37697 145.37697 0 0 1 71.369697 10.24c31.930182 13.467152 56.195879 35.746909 73.603879 65.567031a150.807273 150.807273 0 0 1 19.859394 57.871515 146.090667 146.090667 0 0 1-10.457213 74.658909 154.903273 154.903273 0 0 1-8.471272 17.190788c-3.10303 5.461333-6.857697 10.457212-10.612364 16.477091 66.808242 7.974788 130.048-2.358303 189.191758-33.419637 83.130182-43.690667 137.526303-111.678061 165.608727-201.138424-7.043879 1.923879-13.901576 3.816727-20.945455 4.747636-30.626909 3.971879-57.902545-3.785697-81.361454-23.893333-21.224727-18.152727-32.612848-41.549576-35.095273-69.197576a96.256 96.256 0 0 1 5.368243-41.425454c2.01697-5.554424 1.892848-5.771636-3.909819-5.554425-14.801455 0.496485-28.268606-4.623515-41.797818-9.619393-36.429576-13.467152-72.797091-26.996364-109.288727-40.339394-18.649212-6.795636-37.205333-5.988848-55.792485 0.868848-40.060121 14.894545-80.027152 29.913212-120.242424 44.280242-16.601212 5.926788-33.667879 6.299152-50.796606 3.196122-24.389818-4.406303-48.655515-9.495273-73.045334-14.087758-0.961939-0.155152-1.985939-0.217212-2.854787-0.806788a1.737697 1.737697 0 0 1-0.589576-1.024c0.589576-4.096 1.737697-8.005818 3.040969-11.884606 0.527515-1.551515 1.210182-3.10303 3.382304-2.544485" fill="#FFFFFF" p-id="3233"></path><path d="M354.27297 918.807273c-0.403394 0.124121-1.241212 0.062061-0.930909 0.682666 0.465455 0.868848 1.241212 1.551515 1.985939 2.234182 5.585455 5.430303 10.798545 11.264 16.818424 16.290909 0.310303 0.310303 0.558545 0.806788 0.837818 1.179152-6.206061-2.048-11.977697-4.964848-17.780363-7.912727-69.445818-34.816-121.638788-87.00897-156.920243-156.144485a345.460364 345.460364 0 0 1-32.488727-98.304 372.053333 372.053333 0 0 1-4.964848-45.490425c-0.775758-16.135758-0.155152-32.271515 1.117091-48.376242 0.434424-5.337212 0.99297-10.705455 2.854787-15.825455 6.764606-18.897455 26.686061-30.409697 46.390303-26.65503 7.819636 1.458424 15.639273 3.10303 23.45891 4.654546-1.551515 0.093091-1.954909 1.179152-2.327273 2.482424l-3.537455 11.822545c-1.303273 1.272242-2.823758 0.713697-4.282182 0.465455-5.399273-1.024-10.798545-2.172121-16.259878-3.04097-14.211879-2.265212-26.872242 6.547394-28.796122 20.852364a288.674909 288.674909 0 0 0-1.768727 55.047757c0.99297 17.687273 3.10303 35.157333 6.671515 52.472243 6.11297 29.633939 16.073697 57.902545 30.068364 84.712727 1.737697 3.351273 1.737697 3.320242 3.971879 0.155152 5.523394-7.602424 11.170909-15.080727 17.997575-21.628122 0.99297-0.99297 1.861818-2.048 3.103031-2.668606a1.241212 1.241212 0 0 1 1.210182 0.124122c1.117091 4.344242 2.978909 8.378182 4.530424 12.567272 0.403394 1.086061 0.620606 2.544485 2.327273 2.513455 0.279273 0.806788-0.124121 1.427394-0.558546 2.01697a137.991758 137.991758 0 0 0-17.935515 23.117575c-1.861818 2.885818-1.861818 5.306182-0.310303 8.316121a304.965818 304.965818 0 0 0 32.768 50.269091 269.218909 269.218909 0 0 0 78.382545 65.629091c3.072 1.675636 6.11297 3.444364 9.309091 4.902788 1.551515 1.334303 4.499394 0.713697 5.05794 3.506424" fill="#F2C78F" p-id="3234"></path><path d="M443.795394 133.399273c-1.272242-0.248242-1.954909-1.117091-2.203152-2.296243a39.346424 39.346424 0 0 1-0.527515-13.746424c1.954909-13.405091 8.564364-24.60703 16.477091-35.188364 4.096-5.523394 8.967758-10.395152 13.218909-15.763394 5.337212-2.420364 11.015758-3.258182 16.756364-3.723636 11.419152-0.868848 22.403879 1.117091 32.954182 5.585455 38.198303 16.384 76.396606 32.581818 114.594909 48.872727l79.065212 33.667879c0.899879 0.372364 1.861818 0.713697 2.730667 1.241212 1.892848 1.117091 1.799758 2.978909-0.155152 3.971879-0.558545 0.279273-1.179152 0.403394-1.768727 0.620606l-78.754909 24.60703c-0.806788 0.248242-1.675636 0.434424-2.482425 0.620606-0.899879-1.489455-0.589576-3.04097-0.930909-4.499394-4.437333-19.48703-16.911515-31.030303-35.90206-35.715879-8.595394-2.172121-17.532121-2.699636-26.344727-3.816727a1836.528485 1836.528485 0 0 0-41.394425-4.964848c-17.159758-1.861818-34.350545-3.723636-51.696485-2.606546-9.371152 0.620606-18.711273 1.551515-28.020363 2.637576-1.861818 0.217212-3.754667 0.310303-5.616485 0.496485M446.681212 164.89503c15.142788-2.01697 30.285576-4.033939 45.583515-3.630545 12.722424 0.341333 25.444848 1.706667 38.136243 3.196121 13.28097 1.551515 26.561939 3.227152 39.842909 4.902788 6.081939 0.744727 12.163879 1.458424 18.245818 2.420364 7.571394 1.148121 12.784485 5.926788 13.653333 12.412121 0.620606 4.220121 1.086061 8.440242 1.613576 12.660363l5.802667 46.173091c0.186182 1.427394 0.558545 2.916848 0.155151 4.375273-0.806788 0.403394-1.489455 0.03103-2.203151-0.186182a306.051879 306.051879 0 0 0-68.670061-13.405091c-14.491152-1.241212-28.982303-1.768727-43.504485-1.210181-13.374061 0.465455-26.686061 1.799758-40.029091 3.320242-5.802667 0.682667-11.636364 1.303273-17.501091 1.954909-3.723636 0.248242-4.12703 0-4.18909-4.033939a193.970424 193.970424 0 0 1 5.244121-46.731637 242.65697 242.65697 0 0 1 4.654545-17.345939c0.620606-1.861818 1.148121-3.878788 3.165091-4.871758" fill="#FFFFFF" p-id="3235"></path><path d="M446.681212 164.89503c-2.637576 5.15103-3.723636 10.860606-5.213091 16.290909-2.265212 8.285091-4.033939 16.663273-5.057939 25.165576-0.496485 4.06497-0.713697 8.192-1.179152 12.22594-0.620606 5.275152-0.434424 10.426182-0.558545 15.639272-0.062061 3.134061 0 3.165091 3.10303 3.661576-4.406303 1.303273-9.029818 1.613576-13.560242 2.482424-7.943758 1.458424-15.949576 2.854788-23.955394 4.282182-2.234182-0.186182-1.861818-2.01697-1.954909-3.351273a84.650667 84.650667 0 0 1-0.031031-10.115878c0.806788-14.584242 1.241212-29.168485 4.437334-43.535516 1.05503-4.747636 2.389333-9.402182 3.847757-14.087757a6.17503 6.17503 0 0 1 2.544485-3.537455c3.599515-1.05503 7.323152-1.241212 11.015758-1.768727 8.843636-1.210182 17.656242-2.637576 26.561939-3.351273" fill="#F5E2BD" p-id="3236"></path><path d="M409.103515 170.046061c-2.823758 6.919758-4.654545 14.118788-5.988848 21.441939a183.171879 183.171879 0 0 0-2.389334 18.804364 334.506667 334.506667 0 0 0-1.365333 30.533818c0 1.303273-0.465455 2.792727 0.899879 3.816727-5.306182 1.861818-10.860606 2.792727-16.259879 4.344243l-8.533333 2.234181c-0.496485-3.475394 0.465455-6.764606 0.868848-10.022788 1.830788-15.515152 3.847758-30.999273 5.802667-46.514424l1.241212-9.309091c1.024-7.354182 4.871758-11.946667 12.008727-13.436121 4.499394-0.99297 9.091879-1.768727 13.715394-1.923879" fill="#EFC9A1" p-id="3237"></path><path d="M318.960485 262.144v45.800727c0 0.868848-0.062061 1.737697 0 2.637576 0.124121 1.706667-0.558545 2.482424-2.358303 2.482424-2.792727-0.124121-5.523394-0.093091-8.285091-0.06206-1.365333 0.03103-2.110061-0.558545-2.048-1.98594V217.212121c0-1.117091-0.093091-2.265212 0.093091-3.382303 0.930909-5.957818 5.461333-6.299152 9.557333-4.871757 2.141091 0.775758 3.04097 2.823758 3.04097 5.15103v48.065939M541.478788 428.714667c1.861818 2.730667 3.382303 4.809697 4.840727 6.981818 1.737697 2.637576 4.033939 4.778667 6.361212 6.826667 3.413333 3.10303 8.874667 2.854788 11.481212-0.279273 3.072-3.661576 2.637576-8.502303-1.241212-11.636364-3.599515-2.947879-5.740606-6.826667-8.098909-10.705454-0.620606-0.99297-0.403394-1.644606 0.620606-2.01697l2.854788-0.930909c0.775758-0.310303 1.458424-0.248242 1.954909 0.527515 1.954909 2.978909 4.871758 5.026909 7.261091 7.602424 2.234182 2.389333 4.033939 5.057939 5.647515 7.912727 1.551515 2.792727 2.172121 5.771636 2.265212 8.998788a9.433212 9.433212 0 0 1-7.695515 9.774546c-8.067879 1.768727-18.618182-0.837818-23.396848-10.674424a31.464727 31.464727 0 0 1-2.854788-12.381091" fill="#DD3400" p-id="3238"></path><path d="M393.681455 345.367273a6.826667 6.826667 0 0 1-6.981819 6.795636 6.950788 6.950788 0 0 1-6.950788-6.857697 6.981818 6.981818 0 1 1 13.963637 0.062061M595.657697 345.11903a6.826667 6.826667 0 0 1-6.702545 7.043879 6.826667 6.826667 0 0 1-7.13697-6.609454 6.826667 6.826667 0 0 1 6.919757-7.261091 6.764606 6.764606 0 0 1 6.919758 6.826666" fill="#FEFEFE" p-id="3239"></path><path d="M240.702061 745.937455a5.08897 5.08897 0 0 0-0.682667 0.06206c-1.241212-0.837818-1.551515-2.234182-1.954909-3.506424a370.812121 370.812121 0 0 1-17.37697-79.747879c-1.551515-15.36-1.768727-30.72-1.210182-46.04897 0.620606-17.997576 3.165091-35.84 7.447273-53.403151 0.310303-1.365333 0.651636-2.699636 1.985939-3.475394 23.427879 4.530424 46.917818 8.998788 70.345697 13.653333 10.364121 2.07903 20.728242 3.413333 31.340606 2.730667 9.557333-0.620606 18.804364-2.575515 27.772122-5.895758 39.191273-14.460121 78.444606-28.858182 117.604848-43.442424a80.399515 80.399515 0 0 1 57.902546-0.03103c38.94303 14.491152 77.917091 28.796121 116.860121 43.225212 11.388121 4.220121 23.117576 6.454303 35.281454 6.330182 0.868848 0 1.737697 0 2.637576 0.06206 0.217212 0 0.403394 0.186182 0.744727 0.372364-14.460121 40.742788-9.18497 78.413576 21.44194 109.754182 30.533818 31.278545 67.894303 37.484606 109.164606 24.017454 0.620606 0.682667-0.124121 1.458424-0.310303 2.265213a332.706909 332.706909 0 0 1-82.91297 140.163878 324.266667 324.266667 0 0 1-194.032485 95.263031c-26.282667 3.10303-52.503273 2.854788-78.692848-0.248243-0.620606-0.062061-1.241212-0.062061-1.737697-0.682666 0-1.241212 1.024-1.892848 1.675636-2.792728 14.584242-19.797333 23.831273-41.890909 27.648-66.187636a142.615273 142.615273 0 0 0-11.884606-83.161212c-14.956606-32.426667-37.794909-57.592242-69.66303-74.162424a138.953697 138.953697 0 0 0-51.913697-15.111758c-43.721697-3.847758-82.075152 8.750545-115.122424 37.608727-0.837818 0.744727-1.551515 1.613576-2.358303 2.389334" fill="#DD3400" p-id="3240"></path><path d="M246.690909 762.321455l0.837818-1.303273c18.959515-19.052606 41.487515-31.930182 67.863273-37.143273 42.604606-8.471273 81.113212 0.682667 114.191515 29.416727a137.836606 137.836606 0 0 1 46.11103 80.989091c5.12 27.61697 0.651636 54.085818-11.29503 79.344485a135.850667 135.850667 0 0 1-17.128727 26.841212c-1.551515 1.954909-3.165091 2.792727-5.709576 2.513455a269.653333 269.653333 0 0 1-46.08-8.688485 267.977697 267.977697 0 0 1-41.208242-15.515152c-1.396364-1.706667-3.878788-1.241212-5.306182-2.854787a511.441455 511.441455 0 0 1-73.914182-95.13891 411.710061 411.710061 0 0 1-27.306667-53.837575c-0.620606-1.427394-1.675636-2.854788-1.05503-4.623515" fill="#CE8020" p-id="3241"></path><path d="M836.825212 620.295758a350.952727 350.952727 0 0 1-5.337212 63.363878 6.423273 6.423273 0 0 1-3.10303 4.747637 84.092121 84.092121 0 0 1-36.243394 12.536242c-28.299636 2.730667-52.317091-6.330182-71.804121-26.903273a81.268364 81.268364 0 0 1-21.969455-46.762666 84.650667 84.650667 0 0 1 10.488242-53.558303 6.516364 6.516364 0 0 1 4.871758-3.537455l47.879758-9.216c10.922667-2.110061 21.845333-4.251152 32.736969-6.454303a33.854061 33.854061 0 0 1 39.842909 25.196606c1.05503 4.809697 1.334303 9.712485 1.675637 14.584243 0.651636 9.060848 1.334303 18.214788 0.961939 25.972363" fill="#FEB344" p-id="3242"></path><path d="M228.910545 559.786667a239.553939 239.553939 0 0 0-4.716606 23.396848c-0.620606 4.437333-1.551515 8.781576-2.07903 13.218909a172.528485 172.528485 0 0 0-0.806788 8.905697c-0.527515 7.974788-1.241212 15.918545-0.868848 23.893334 0.124121 3.258182 0.062061 6.516364 0 9.774545-0.093091 7.602424 0.837818 15.142788 1.365333 22.652121a312.28897 312.28897 0 0 0 9.526303 54.24097c2.327273 8.812606 4.840727 17.563152 7.757576 26.158545 0.434424 1.241212 1.05503 2.544485 0.930909 3.971879-4.654545 5.213091-9.681455 10.084848-13.994667 15.639273-3.413333 4.344242-6.578424 8.781576-9.619394 13.34303-1.241212-0.434424-1.458424-1.551515-1.892848-2.389333a333.203394 333.203394 0 0 1-32.488727-93.897697c-2.792727-14.894545-4.499394-29.882182-5.399273-44.99394-0.868848-14.646303-0.465455-29.261576 0.372363-43.876848 0.217212-3.723636 0.868848-7.447273 1.148122-11.201939a25.879273 25.879273 0 0 1 31.868121-22.559031c5.461333 1.210182 11.015758 2.172121 16.539151 3.258182 0.713697 0.124121 1.489455 0.062061 2.234182 0.124121 0.124121 0.093091 0.155152 0.217212 0.124121 0.372364" fill="#D22900" p-id="3243"></path><path d="M354.893576 919.024485c0.434424-0.093091 0.713697 0.124121 0.899879 0.496485-0.434424 0.062061-0.713697-0.093091-0.899879-0.496485" fill="#F2C78F" p-id="3244"></path><path d="M246.690909 762.321455c4.840727 11.543273 10.146909 22.838303 15.825455 34.009212 5.275152 10.364121 11.139879 20.386909 17.190788 30.254545a494.840242 494.840242 0 0 0 46.266181 62.991515c7.012848 8.067879 13.963636 16.259879 21.628122 23.769212 0.744727 0.744727 1.427394 1.458424 1.334303 2.575516-6.361212-2.575515-12.225939-6.206061-18.090667-9.774546a271.546182 271.546182 0 0 1-100.041697-106.247757 326.656 326.656 0 0 1-4.158061-7.974788c-0.620606-1.179152-0.682667-2.296242 0.062061-3.537455a133.740606 133.740606 0 0 1 19.083636-25.413818c0.279273-0.248242 0.620606-0.434424 0.930909-0.620606" fill="#C36412" p-id="3245"></path></svg>